<svg width="123" height="54" viewBox="0 0 123 54" fill="none" xmlns="http://www.w3.org/2000/svg">
<circle cx="27" cy="27" r="27" fill="#F1F1F1"/>
<path fill-rule="evenodd" clip-rule="evenodd" d="M28.8287 34C28.5367 34 28.2467 33.873 28.0487 33.627L23.2207 27.627C22.9227 27.256 22.9267 26.726 23.2317 26.36L28.2317 20.36C28.5847 19.936 29.2157 19.879 29.6407 20.232C30.0647 20.585 30.1217 21.216 29.7677 21.64L25.2927 27.011L29.6077 32.373C29.9537 32.803 29.8857 33.433 29.4547 33.779C29.2707 33.928 29.0487 34 28.8287 34Z" fill="#151515"/>
<mask id="mask0_2_519" style="mask-type:luminance" maskUnits="userSpaceOnUse" x="23" y="20" width="7" height="14">
<path fill-rule="evenodd" clip-rule="evenodd" d="M28.8287 34C28.5367 34 28.2467 33.873 28.0487 33.627L23.2207 27.627C22.9227 27.256 22.9267 26.726 23.2317 26.36L28.2317 20.36C28.5847 19.936 29.2157 19.879 29.6407 20.232C30.0647 20.585 30.1217 21.216 29.7677 21.64L25.2927 27.011L29.6077 32.373C29.9537 32.803 29.8857 33.433 29.4547 33.779C29.2707 33.928 29.0487 34 28.8287 34Z" fill="white"/>
</mask>
<g mask="url(#mask0_2_519)">
<rect x="15" y="15" width="24" height="24" fill="#151515"/>
</g>
<circle cx="96" cy="27" r="27" fill="#FF4C0D"/>
<path fill-rule="evenodd" clip-rule="evenodd" d="M94.1713 34C94.4633 34 94.7533 33.873 94.9513 33.627L99.7793 27.627C100.077 27.256 100.073 26.726 99.7683 26.36L94.7683 20.36C94.4153 19.936 93.7843 19.879 93.3593 20.232C92.9353 20.585 92.8783 21.216 93.2323 21.64L97.7073 27.011L93.3923 32.373C93.0463 32.803 93.1143 33.433 93.5453 33.779C93.7293 33.928 93.9513 34 94.1713 34Z" fill="white"/>
<mask id="mask1_2_519" style="mask-type:luminance" maskUnits="userSpaceOnUse" x="93" y="20" width="7" height="14">
<path fill-rule="evenodd" clip-rule="evenodd" d="M94.1713 34C94.4633 34 94.7533 33.873 94.9513 33.627L99.7793 27.627C100.077 27.256 100.073 26.726 99.7683 26.36L94.7683 20.36C94.4153 19.936 93.7843 19.879 93.3593 20.232C92.9353 20.585 92.8783 21.216 93.2323 21.64L97.7073 27.011L93.3923 32.373C93.0463 32.803 93.1143 33.433 93.5453 33.779C93.7293 33.928 93.9513 34 94.1713 34Z" fill="white"/>
</mask>
<g mask="url(#mask1_2_519)">
<rect width="24" height="24" transform="matrix(-1 0 0 1 108 15)" fill="white"/>
</g>
</svg>
