<svg width="100" height="100" viewBox="0 0 100 100" fill="none" xmlns="http://www.w3.org/2000/svg">
<mask id="mask0_2_553" style="mask-type:alpha" maskUnits="userSpaceOnUse" x="0" y="0" width="100" height="100">
<rect width="100" height="100" fill="#C4C4C4"/>
</mask>
<g mask="url(#mask0_2_553)">
<path d="M-1279.9 -13.0918C-1281.21 -68.4631 -1248.52 -120.781 -1201.47 -148.688C-1152.72 -177.591 -1093.5 -174.504 -1046.85 -142.893C-1001.83 -112.36 -971.001 -58.1371 -978.278 -2.85095C-985.088 48.8644 -1027.11 102.492 -1084.52 92.144C-1133 83.3982 -1172.4 32.3615 -1164.03 -16.933C-1155.66 -66.2275 -1107.35 -100.84 -1059.15 -103.801C-998.326 -107.519 -952.506 -58.654 -923.73 -10.8172C-888.752 47.0975 -868.237 119.441 -810.121 159.789C-764.301 191.601 -703.328 197.927 -650.633 180.969C-624.184 172.648 -600.227 157.868 -580.931 137.969C-560.069 116.076 -545.473 83.7701 -549.81 53.0623C-554.63 18.9015 -586.049 1.08038 -618.817 6.41421C-654.838 12.3107 -680.612 41.1819 -702.568 68.0115C-744.483 119.258 -783.551 181.335 -783.797 249.756C-783.942 310.334 -751.598 375.359 -689.754 392.568C-619.641 412.072 -551.747 369.82 -505.974 320.22C-481.146 293.306 -459.813 263.278 -438.427 233.624C-416.68 203.478 -395.122 173.157 -371.952 144.03C-327.991 88.8872 -277.463 37.8474 -213.842 5.76742C-154.164 -24.3328 -85.0685 -36.2806 -20.5888 -14.7023C39.48 5.30752 89.0019 49.0499 126.098 99.3167C172.524 162.091 202.45 235.277 234.457 305.939L337.14 532.582L386.369 641.261C387.429 643.599 383.917 645.531 382.843 643.214L281.387 419.292C248.391 346.441 216.937 272.647 181.544 200.925C150.018 137.083 111.48 74.7087 54.3309 30.6506C29.0235 11.1369 0.52021 -4.51648 -30.288 -13.452C-63.8711 -22.9219 -99.214 -24.3855 -133.475 -17.7252C-282.753 10.2204 -369.473 146.523 -452.483 259.839C-492.047 313.812 -536.966 370.326 -602.907 392.313C-631.405 401.843 -662.942 404.563 -692.061 396.141C-718.404 388.265 -741.348 371.811 -757.241 349.399C-792.15 301.181 -794.709 238.016 -775.832 183.101C-765.232 152.401 -748.915 123.95 -730.224 97.5567C-711.116 70.6033 -689.857 42.102 -663.268 22.1223C-640.622 5.11594 -610.079 -4.86982 -582.424 5.50553C-557.72 14.7888 -544.862 38.6619 -545.129 64.2423C-545.709 119.958 -591.651 163.123 -640.691 181.721C-689.331 200.149 -746.04 198.297 -792.642 174.86C-851.937 144.987 -879.442 82.6973 -907.953 26.555C-934.94 -26.6245 -974.23 -90.4364 -1039.29 -99.1089C-1091.25 -106.04 -1149.5 -71.1516 -1159.74 -18.0943C-1170.13 35.5128 -1120.07 93.1074 -1065.22 89.2434C-999.477 84.6337 -971.173 4.85712 -985.237 -50.7169C-999.301 -106.291 -1048.34 -152.138 -1104.73 -162.859C-1163.43 -173.981 -1222.06 -142.128 -1253.17 -92.8209C-1268.44 -69.0312 -1276.32 -41.2686 -1275.84 -13.0229C-1275.78 -10.4064 -1279.8 -10.5791 -1279.9 -13.0918Z" fill="#FF4C0D"/>
</g>
</svg>
