<svg width="1150" height="351" viewBox="0 0 1150 351" fill="none" xmlns="http://www.w3.org/2000/svg">
<path d="M1187.84 72.0365C1166.08 21.6193 1108.94 -10.1906 1054.73 2.98151C1028.35 9.41538 1005.04 24.8267 988.792 46.5705C972.858 68.4989 966.02 95.7379 969.711 122.59C973.119 148.465 985.537 173.507 1005.66 190.419C1024.18 205.998 1050.52 213.977 1074.42 208.587C1099.19 202.94 1115.23 181.774 1116.35 156.762C1117.58 129.328 1103.93 102.726 1085.02 83.6794C1065.07 63.7094 1037.51 51.0066 1009.02 56.23C980.539 61.4534 961.958 83.6946 957.702 111.75C952.674 144.846 965.728 176.323 971.665 208.33C976.806 236.382 974.258 265.303 964.29 292.025C945.284 343.699 901.019 387.076 846.895 400.082C817.273 407.198 782.715 405.684 757.41 387.107C734.376 370.195 724.638 339.793 730.242 312.192C735.906 284.319 757.273 263.819 784.972 258.02C812.427 252.282 842.23 261.472 858.949 284.592C874.986 306.742 877.849 337.007 869.065 362.564C859.373 390.574 835.143 411.074 807.733 420.854C745.643 442.823 681.948 409.393 642.241 361.928C600.656 312.223 580.59 249.163 543.806 196.369C512.08 150.812 460.515 106.632 401.454 110.311C342.968 113.9 302.08 164.287 284.074 216.051C261.131 281.987 264.811 353.828 245.033 420.582C227.285 480.507 187.199 540.433 122.368 554.619C92.897 561.353 61.9603 554.42 38.1835 535.754C16.134 518.434 0.536011 491.348 3.48901 462.672C6.51782 432.997 28.4915 407.652 55.1901 395.767C86.9922 381.626 125.064 386.259 155.457 401.823C204.387 426.911 235.447 481.416 235.447 536.027C235.326 600.494 189.107 652.365 138.012 685.992C109.647 704.645 78.9507 719.301 48.3147 733.82C46.3309 734.759 48.0573 737.696 50.0411 736.848C109.89 708.369 172.964 677.801 211.202 621.131C227.285 597.33 237.719 569.805 238.764 540.887C239.487 514.455 233.517 488.269 221.409 464.761C195.573 413.966 140.692 377.493 82.343 384.926C54.3572 388.484 28.4915 403.504 12.9236 427.319C-1.77209 449.411 -4.09375 477.5 6.77515 501.704C17.7242 526.08 39.6222 545.051 64.443 554.407C90.7932 564.354 119.99 561.569 145.629 550.743C204.69 525.792 237.098 466.972 252.151 407.501C260.662 373.935 264.478 339.521 268.945 305.243C273.64 269.133 279.379 232.236 294.569 198.806C306.941 171.554 325.962 146.345 351.464 130.221C377.614 113.688 409.624 109.23 439.298 117.987C502.16 136.156 541.534 193.538 570.58 248.194C600.308 304.123 627.279 365.017 681.13 402.292C706.012 419.522 735.648 431.059 766.208 431.241C793.891 431.422 821.953 422.399 843.442 404.73C864.144 387.878 876.541 362.895 877.44 336.22C878.258 311.541 869.217 285.894 849.939 269.799C830.66 253.705 803.341 249.36 779.459 255.825C754.941 262.472 735.542 280.625 728.455 305.137C721.579 328.892 725.956 356.145 741.1 375.873C758.833 398.992 789.015 407.834 817.152 407.319C871.458 406.305 920.842 373.359 949.752 328.589C964.336 306.226 973.589 280.814 976.799 254.311C978.329 240.893 978.085 227.331 976.072 213.977C973.3 195.582 967.652 177.792 963.79 159.623C957.233 128.722 956.718 88.9786 986.036 69.0539C1014.36 49.7954 1051.15 58.7736 1075.69 79.6521C1098.4 99.062 1115.65 129.237 1112.71 159.972C1111.32 174.476 1104.43 188.269 1092.44 196.868C1081.31 204.847 1067.31 207.467 1053.82 206.543C991.655 202.001 958.777 129.6 977.571 74.9132C987.505 46.086 1011.27 23.0424 1039.28 11.5055C1067.42 -0.0536587 1099.12 0.792992 1126.6 13.8371C1152.65 26.0797 1173.37 47.3713 1184.89 73.7474C1185.77 75.7611 1188.71 74.0199 1187.84 72.0365Z" fill="#FF4C0D"/>
</svg>
