<svg width="326" height="1134" viewBox="0 0 326 1134" fill="none" xmlns="http://www.w3.org/2000/svg">
<path d="M260.761 0.555939C309.258 36.8347 332.166 100.284 324.376 159.599C316.3 221.044 273.643 269.879 214.946 288.646C158.282 306.729 90.8302 296.612 48.2046 253.009C8.33467 212.219 -9.39312 139.858 38.2861 97.48C78.5545 61.7002 149.056 62.2957 185.791 102.791C222.526 143.286 219.652 208.213 189.638 251.662C151.752 306.473 78.7813 312.865 18.2079 305.295C-55.2212 296.252 -131.288 265.025 -205.241 287.743C-263.547 305.655 -310.174 353.813 -331.188 410.58C-341.899 438.945 -345.373 469.53 -341.296 499.565C-336.562 532.292 -318.642 566.666 -289.306 583.68C-256.676 602.611 -220.127 587.632 -202.579 555.852C-183.317 520.894 -190.733 479.228 -198.973 442.224C-214.726 371.564 -241.716 296.037 -300.386 249.607C-352.379 208.561 -430.142 192.45 -486.716 234.005C-550.849 281.12 -560.379 368.043 -548.648 440.91C-542.275 480.439 -530.865 519.068 -519.812 557.489C-508.579 596.553 -497.068 635.572 -487.674 675.173C-469.952 750.223 -460.194 828.15 -475.585 904.528C-490.014 976.178 -526.414 1043.66 -588.526 1084.53C-646.309 1122.67 -717.376 1135.71 -785.659 1133.65C-870.999 1131.17 -954.148 1107.46 -1036.53 1087.26L-1300.78 1022.46L-1427.49 991.374C-1430.22 990.707 -1429.51 986.381 -1426.79 987.023L-1165.7 1051.04C-1080.77 1071.88 -996.068 1094.68 -910.485 1112.69C-834.292 1128.71 -754.623 1137.7 -678.133 1118.32C-644.258 1109.74 -611.544 1095.81 -583.049 1075.35C-552.221 1052.87 -527.088 1023.47 -509.672 989.506C-432.864 842.263 -491.492 675.62 -532.859 527.694C-552.546 457.214 -570.799 380.412 -545.163 308.857C-534.107 277.914 -515.142 248.958 -488.23 229.607C-463.663 212.276 -434.016 203.66 -404.007 205.133C-338.963 207.686 -282.919 248.154 -248.448 301.481C-229.21 331.334 -215.766 364.584 -205.697 398.485C-195.428 433.124 -185.279 470.657 -186.06 507.017C-186.733 537.978 -198.778 570.988 -226.382 587.76C-251.052 602.732 -280.266 597.663 -302.082 580.153C-349.6 542.019 -355.684 473.355 -338.55 418.622C-321.54 364.348 -281.64 316.835 -230.007 292.593C-164.265 261.784 -92.1222 280.21 -24.586 293.617C39.3732 306.334 120.786 315.653 172.188 265.57C213.251 225.567 222.597 151.912 183.893 107.263C144.813 62.1181 61.4728 66.2582 27.7416 116.037C-12.7038 175.684 36.777 253.912 94.0658 279.358C151.355 304.804 223.901 293.609 271.215 252.357C320.433 209.392 332.647 137.459 311.263 77.3998C301.116 48.2057 282.569 22.6719 257.954 4.00771C255.664 2.29115 258.527 -1.0487 260.761 0.555939Z" fill="#FF4C0D"/>
</svg>
