<svg width="248" height="54" viewBox="0 0 248 54" fill="none" xmlns="http://www.w3.org/2000/svg">
<rect x="1.5" y="1.5" width="245" height="51" rx="25.5" stroke="#151515" stroke-width="3"/>
<path d="M40.328 25.04C41.416 25.04 42.3067 25.3653 43 26.016C43.6933 26.656 44.04 27.488 44.04 28.512C44.04 29.5467 43.6933 30.3893 43 31.04C42.3067 31.68 41.416 32 40.328 32H36.04V20.8H43.08V22.912H38.248V25.04H40.328ZM40.328 29.936C40.7653 29.936 41.128 29.8133 41.416 29.568C41.704 29.312 41.848 28.96 41.848 28.512C41.848 28.064 41.704 27.7173 41.416 27.472C41.128 27.2267 40.7653 27.104 40.328 27.104H38.248V29.936H40.328ZM47.0474 28.848C47.3247 29.8507 48.0767 30.352 49.3034 30.352C50.0927 30.352 50.69 30.0853 51.0954 29.552L52.7594 30.512C51.97 31.6533 50.8074 32.224 49.2714 32.224C47.9487 32.224 46.8874 31.824 46.0874 31.024C45.2874 30.224 44.8874 29.216 44.8874 28C44.8874 26.7947 45.282 25.792 46.0714 24.992C46.8607 24.1813 47.874 23.776 49.1114 23.776C50.2847 23.776 51.25 24.1813 52.0074 24.992C52.7754 25.8027 53.1594 26.8053 53.1594 28C53.1594 28.2667 53.1327 28.5493 53.0794 28.848H47.0474ZM47.0154 27.248H51.0954C50.978 26.704 50.7327 26.2987 50.3594 26.032C49.9967 25.7653 49.5807 25.632 49.1114 25.632C48.5567 25.632 48.098 25.776 47.7354 26.064C47.3727 26.3413 47.1327 26.736 47.0154 27.248ZM61.1518 24V32H59.0878V25.984H56.8798V28.656C56.8798 31.1307 55.7544 32.2453 53.5038 32V30.064C53.9304 30.1707 54.2558 30.1013 54.4798 29.856C54.7038 29.6 54.8158 29.1627 54.8158 28.544V24H61.1518ZM66.6381 26.56C67.5448 26.56 68.2755 26.8107 68.8301 27.312C69.3848 27.8027 69.6621 28.4587 69.6621 29.28C69.6621 30.1013 69.3848 30.7627 68.8301 31.264C68.2755 31.7547 67.5448 32 66.6381 32H63.0221V24H65.0861V26.56H66.6381ZM70.5421 24H72.6061V32H70.5421V24ZM66.6541 30.176C66.9421 30.176 67.1768 30.096 67.3581 29.936C67.5501 29.7653 67.6461 29.5467 67.6461 29.28C67.6461 29.0133 67.5501 28.7947 67.3581 28.624C67.1768 28.4533 66.9421 28.368 66.6541 28.368H65.0861V30.176H66.6541ZM75.8349 22.976V21.184H80.4749V22.976H75.8349ZM80.2669 24H81.8029V32H79.7869V27.456L76.0269 32H74.4909V24H76.5069V28.544L80.2669 24Z" fill="#151515"/>
<rect x="118" width="130" height="54" rx="27" fill="#151515"/>
<path d="M159.88 20.8H162.088V32H159.88V27.904C159.197 28.192 158.467 28.336 157.688 28.336C156.557 28.336 155.624 28.0213 154.888 27.392C154.163 26.752 153.8 25.888 153.8 24.8V20.8H156.008V24.512C156.008 25.0453 156.163 25.4667 156.472 25.776C156.792 26.0747 157.213 26.224 157.736 26.224C158.515 26.224 159.229 26.0693 159.88 25.76V20.8ZM165.813 28.848C166.09 29.8507 166.842 30.352 168.069 30.352C168.858 30.352 169.456 30.0853 169.861 29.552L171.525 30.512C170.736 31.6533 169.573 32.224 168.037 32.224C166.714 32.224 165.653 31.824 164.853 31.024C164.053 30.224 163.653 29.216 163.653 28C163.653 26.7947 164.048 25.792 164.837 24.992C165.626 24.1813 166.64 23.776 167.877 23.776C169.05 23.776 170.016 24.1813 170.773 24.992C171.541 25.8027 171.925 26.8053 171.925 28C171.925 28.2667 171.898 28.5493 171.845 28.848H165.813ZM165.781 27.248H169.861C169.744 26.704 169.498 26.2987 169.125 26.032C168.762 25.7653 168.346 25.632 167.877 25.632C167.322 25.632 166.864 25.776 166.501 26.064C166.138 26.3413 165.898 26.736 165.781 27.248ZM178.022 23.776C179.099 23.776 180.017 24.1867 180.774 25.008C181.542 25.8187 181.926 26.816 181.926 28C181.926 29.184 181.542 30.1867 180.774 31.008C180.017 31.8187 179.099 32.224 178.022 32.224C176.902 32.224 176.038 31.8347 175.43 31.056V35.2H173.366V24H175.43V24.944C176.038 24.1653 176.902 23.776 178.022 23.776ZM176.054 29.632C176.47 30.048 176.998 30.256 177.638 30.256C178.278 30.256 178.806 30.048 179.222 29.632C179.649 29.2053 179.862 28.6613 179.862 28C179.862 27.3387 179.649 26.8 179.222 26.384C178.806 25.9573 178.278 25.744 177.638 25.744C176.998 25.744 176.47 25.9573 176.054 26.384C175.638 26.8 175.43 27.3387 175.43 28C175.43 28.6613 175.638 29.2053 176.054 29.632ZM188.63 24H190.694V32H188.63V28.96H185.446V32H183.382V24H185.446V27.024H188.63V24ZM196.201 26.56C197.107 26.56 197.838 26.8107 198.393 27.312C198.947 27.8027 199.225 28.4587 199.225 29.28C199.225 30.1013 198.947 30.7627 198.393 31.264C197.838 31.7547 197.107 32 196.201 32H192.585V24H194.649V26.56H196.201ZM200.105 24H202.169V32H200.105V24ZM196.217 30.176C196.505 30.176 196.739 30.096 196.921 29.936C197.113 29.7653 197.209 29.5467 197.209 29.28C197.209 29.0133 197.113 28.7947 196.921 28.624C196.739 28.4533 196.505 28.368 196.217 28.368H194.649V30.176H196.217ZM205.397 22.976V21.184H210.037V22.976H205.397ZM209.829 24H211.365V32H209.349V27.456L205.589 32H204.053V24H206.069V28.544L209.829 24Z" fill="#F1F1F1"/>
</svg>
