<svg width="440" height="102" viewBox="0 0 440 102" fill="none" xmlns="http://www.w3.org/2000/svg">
<path d="M9.28 5H11.6L7.26 15.4C6.19333 17.9467 4.46667 19.1467 2.08 19V16.86C2.86667 16.94 3.5 16.82 3.98 16.5C4.47333 16.18 4.86667 15.6467 5.16 14.9L0.5 5H2.82L6.22 12.38L9.28 5ZM20.2553 16.96H21.5953V21.68H19.4753V19H12.6153V21.68H10.4953V16.96H11.7153C12.3286 16.0933 12.6353 14.8867 12.6353 13.34V9H20.2553V16.96ZM14.0953 16.96H18.1353V10.98H14.7553V13.34C14.7553 14.7667 14.5353 15.9733 14.0953 16.96ZM27.6792 19.26C26.2126 19.26 24.9659 18.7533 23.9392 17.74C22.9126 16.7267 22.3992 15.48 22.3992 14C22.3992 12.52 22.9126 11.2733 23.9392 10.26C24.9659 9.24667 26.2126 8.74 27.6792 8.74C29.1592 8.74 30.4059 9.24667 31.4192 10.26C32.4459 11.2733 32.9592 12.52 32.9592 14C32.9592 15.48 32.4459 16.7267 31.4192 17.74C30.4059 18.7533 29.1592 19.26 27.6792 19.26ZM25.4592 16.26C26.0592 16.86 26.7992 17.16 27.6792 17.16C28.5592 17.16 29.2992 16.86 29.8992 16.26C30.4992 15.66 30.7992 14.9067 30.7992 14C30.7992 13.0933 30.4992 12.34 29.8992 11.74C29.2992 11.14 28.5592 10.84 27.6792 10.84C26.7992 10.84 26.0592 11.14 25.4592 11.74C24.8592 12.34 24.5592 13.0933 24.5592 14C24.5592 14.9067 24.8592 15.66 25.4592 16.26ZM39.5523 19.26C38.019 19.26 36.7657 18.7667 35.7923 17.78C34.8323 16.78 34.3523 15.5067 34.3523 13.96C34.3523 12.2667 34.6057 10.96 35.1123 10.04C35.619 9.10667 36.6457 8.26 38.1923 7.5C38.4457 7.38 38.819 7.20667 39.3123 6.98C39.819 6.75333 40.1657 6.59333 40.3523 6.5C40.539 6.39333 40.7723 6.24667 41.0523 6.06C41.3323 5.86 41.539 5.65333 41.6723 5.44C41.8057 5.21333 41.9123 4.94667 41.9923 4.64L43.7523 5.66C43.699 5.95333 43.6123 6.22667 43.4923 6.48C43.3723 6.72 43.199 6.94667 42.9723 7.16C42.7457 7.37333 42.5457 7.54667 42.3723 7.68C42.2123 7.81333 41.939 7.97333 41.5523 8.16C41.1657 8.34667 40.879 8.48 40.6923 8.56C40.519 8.64 40.1857 8.78 39.6923 8.98C38.8123 9.32667 38.1657 9.68667 37.7523 10.06C37.3523 10.42 37.0723 10.8733 36.9123 11.42C37.7123 10.5133 38.799 10.06 40.1723 10.06C41.3457 10.06 42.3657 10.48 43.2323 11.32C44.1123 12.16 44.5523 13.2467 44.5523 14.58C44.5523 15.94 44.0857 17.06 43.1523 17.94C42.2323 18.82 41.0323 19.26 39.5523 19.26ZM39.5323 17.24C40.3723 17.24 41.059 16.9933 41.5923 16.5C42.1257 15.9933 42.3923 15.3533 42.3923 14.58C42.3923 13.7933 42.1257 13.1467 41.5923 12.64C41.0723 12.1333 40.3923 11.88 39.5523 11.88C38.8057 11.88 38.1323 12.12 37.5323 12.6C36.9323 13.0667 36.6323 13.6933 36.6323 14.48C36.6323 15.28 36.9123 15.94 37.4723 16.46C38.0323 16.98 38.719 17.24 39.5323 17.24ZM53 9H55.16V19H53V15.02H48.42V19H46.26V9H48.42V12.98H53V9ZM65.5863 9H67.7463V19H65.5863V17.56C64.7729 18.6933 63.6063 19.26 62.0863 19.26C60.7129 19.26 59.5396 18.7533 58.5663 17.74C57.5929 16.7133 57.1063 15.4667 57.1063 14C57.1063 12.52 57.5929 11.2733 58.5663 10.26C59.5396 9.24667 60.7129 8.74 62.0863 8.74C63.6063 8.74 64.7729 9.3 65.5863 10.42V9ZM60.1663 16.3C60.7663 16.9 61.5196 17.2 62.4263 17.2C63.3329 17.2 64.0863 16.9 64.6863 16.3C65.2863 15.6867 65.5863 14.92 65.5863 14C65.5863 13.08 65.2863 12.32 64.6863 11.72C64.0863 11.1067 63.3329 10.8 62.4263 10.8C61.5196 10.8 60.7663 11.1067 60.1663 11.72C59.5663 12.32 59.2663 13.08 59.2663 14C59.2663 14.92 59.5663 15.6867 60.1663 16.3ZM78.0039 9V19H75.8839V15.64H74.6839L72.1439 19H69.6039L72.3039 15.44C71.6106 15.2133 71.0506 14.8133 70.6239 14.24C70.2106 13.6667 70.0039 13.0267 70.0039 12.32C70.0039 11.4 70.3306 10.62 70.9839 9.98C71.6506 9.32667 72.5039 9 73.5439 9H78.0039ZM73.6639 13.78H75.8839V10.96H73.6639C73.2239 10.96 72.8572 11.0867 72.5639 11.34C72.2706 11.5933 72.1239 11.94 72.1239 12.38C72.1239 12.8067 72.2706 13.1467 72.5639 13.4C72.8572 13.6533 73.2239 13.78 73.6639 13.78ZM94.4178 9V19H92.2578V11.04H87.6778V19H85.5178V9H94.4178ZM104.844 9H107.004V19H104.844V17.56C104.031 18.6933 102.864 19.26 101.344 19.26C99.9707 19.26 98.7974 18.7533 97.8241 17.74C96.8507 16.7133 96.3641 15.4667 96.3641 14C96.3641 12.52 96.8507 11.2733 97.8241 10.26C98.7974 9.24667 99.9707 8.74 101.344 8.74C102.864 8.74 104.031 9.3 104.844 10.42V9ZM99.4241 16.3C100.024 16.9 100.777 17.2 101.684 17.2C102.591 17.2 103.344 16.9 103.944 16.3C104.544 15.6867 104.844 14.92 104.844 14C104.844 13.08 104.544 12.32 103.944 11.72C103.344 11.1067 102.591 10.8 101.684 10.8C100.777 10.8 100.024 11.1067 99.4241 11.72C98.8241 12.32 98.5241 13.08 98.5241 14C98.5241 14.92 98.8241 15.6867 99.4241 16.3ZM116.262 9H118.422V19H116.262V15.02H111.682V19H109.522V9H111.682V12.98H116.262V9ZM122.628 14.92C122.788 15.68 123.155 16.2667 123.728 16.68C124.301 17.08 125.001 17.28 125.828 17.28C126.975 17.28 127.835 16.8667 128.408 16.04L130.188 17.08C129.201 18.5333 127.741 19.26 125.808 19.26C124.181 19.26 122.868 18.7667 121.868 17.78C120.868 16.78 120.368 15.52 120.368 14C120.368 12.5067 120.861 11.26 121.848 10.26C122.835 9.24667 124.101 8.74 125.648 8.74C127.115 8.74 128.315 9.25333 129.248 10.28C130.195 11.3067 130.668 12.5533 130.668 14.02C130.668 14.2467 130.641 14.5467 130.588 14.92H122.628ZM122.608 13.16H128.488C128.341 12.3467 128.001 11.7333 127.468 11.32C126.948 10.9067 126.335 10.7 125.628 10.7C124.828 10.7 124.161 10.92 123.628 11.36C123.095 11.8 122.755 12.4 122.608 13.16ZM140.618 9V19H138.458V11.08H135.118V14.8C135.118 16.3867 134.771 17.5133 134.078 18.18C133.385 18.8467 132.398 19.12 131.118 19V16.98C131.731 17.0867 132.191 16.96 132.498 16.6C132.805 16.24 132.958 15.6067 132.958 14.7V9H140.618ZM147.495 12.4C148.562 12.4 149.435 12.7067 150.115 13.32C150.795 13.92 151.135 14.7133 151.135 15.7C151.135 16.6733 150.795 17.4667 150.115 18.08C149.435 18.6933 148.562 19 147.495 19H143.135V9H145.295V12.4H147.495ZM147.515 17.06C147.942 17.06 148.295 16.9333 148.575 16.68C148.868 16.4267 149.015 16.1 149.015 15.7C149.015 15.2867 148.868 14.96 148.575 14.72C148.295 14.4667 147.942 14.34 147.515 14.34H145.295V17.06H147.515ZM164.641 9H166.941L163.101 19.32C162.634 20.5867 161.981 21.5333 161.141 22.16C160.301 22.7867 159.327 23.0667 158.221 23V20.98C158.901 21.02 159.447 20.88 159.861 20.56C160.287 20.2533 160.627 19.7533 160.881 19.06L160.941 18.92L156.741 9H159.041L162.081 16.28L164.641 9ZM177.191 9V19H175.031V11.04H170.451V19H168.291V9H177.191ZM185.358 8.74C186.731 8.74 187.904 9.25333 188.878 10.28C189.851 11.2933 190.338 12.5333 190.338 14C190.338 15.48 189.851 16.7267 188.878 17.74C187.904 18.7533 186.731 19.26 185.358 19.26C183.838 19.26 182.671 18.7 181.858 17.58V23H179.698V9H181.858V10.44C182.671 9.30667 183.838 8.74 185.358 8.74ZM182.758 16.3C183.358 16.9 184.111 17.2 185.018 17.2C185.924 17.2 186.678 16.9 187.278 16.3C187.878 15.6867 188.178 14.92 188.178 14C188.178 13.08 187.878 12.32 187.278 11.72C186.678 11.1067 185.924 10.8 185.018 10.8C184.111 10.8 183.358 11.1067 182.758 11.72C182.158 12.32 181.858 13.08 181.858 14C181.858 14.92 182.158 15.6867 182.758 16.3ZM200.215 9H202.375V19H200.215V17.56C199.402 18.6933 198.235 19.26 196.715 19.26C195.342 19.26 194.168 18.7533 193.195 17.74C192.222 16.7133 191.735 15.4667 191.735 14C191.735 12.52 192.222 11.2733 193.195 10.26C194.168 9.24667 195.342 8.74 196.715 8.74C198.235 8.74 199.402 9.3 200.215 10.42V9ZM194.795 16.3C195.395 16.9 196.148 17.2 197.055 17.2C197.962 17.2 198.715 16.9 199.315 16.3C199.915 15.6867 200.215 14.92 200.215 14C200.215 13.08 199.915 12.32 199.315 11.72C198.715 11.1067 197.962 10.8 197.055 10.8C196.148 10.8 195.395 11.1067 194.795 11.72C194.195 12.32 193.895 13.08 193.895 14C193.895 14.92 194.195 15.6867 194.795 16.3ZM211.813 13.86C212.799 14.3133 213.293 15.08 213.293 16.16C213.293 17 213.006 17.6867 212.433 18.22C211.873 18.74 211.066 19 210.013 19H204.893V9H209.613C210.639 9 211.433 9.26 211.993 9.78C212.566 10.2867 212.853 10.9467 212.853 11.76C212.853 12.7067 212.506 13.4067 211.813 13.86ZM209.453 10.84H206.953V13.06H209.453C210.333 13.06 210.773 12.6867 210.773 11.94C210.773 11.2067 210.333 10.84 209.453 10.84ZM209.813 17.12C210.719 17.12 211.173 16.7267 211.173 15.94C211.173 15.5933 211.053 15.3267 210.813 15.14C210.573 14.94 210.239 14.84 209.813 14.84H206.953V17.12H209.813ZM223.294 9V19H221.134V11.08H217.794V14.8C217.794 16.3867 217.447 17.5133 216.754 18.18C216.06 18.8467 215.074 19.12 213.794 19V16.98C214.407 17.0867 214.867 16.96 215.174 16.6C215.48 16.24 215.634 15.6067 215.634 14.7V9H223.294ZM227.511 14.92C227.671 15.68 228.037 16.2667 228.611 16.68C229.184 17.08 229.884 17.28 230.711 17.28C231.857 17.28 232.717 16.8667 233.291 16.04L235.071 17.08C234.084 18.5333 232.624 19.26 230.691 19.26C229.064 19.26 227.751 18.7667 226.751 17.78C225.751 16.78 225.251 15.52 225.251 14C225.251 12.5067 225.744 11.26 226.731 10.26C227.717 9.24667 228.984 8.74 230.531 8.74C231.997 8.74 233.197 9.25333 234.131 10.28C235.077 11.3067 235.551 12.5533 235.551 14.02C235.551 14.2467 235.524 14.5467 235.471 14.92H227.511ZM227.491 13.16H233.371C233.224 12.3467 232.884 11.7333 232.351 11.32C231.831 10.9067 231.217 10.7 230.511 10.7C229.711 10.7 229.044 10.92 228.511 11.36C227.977 11.8 227.637 12.4 227.491 13.16ZM244.191 9H246.351V19H244.191V15.02H239.611V19H237.451V9H239.611V12.98H244.191V9ZM256.098 9H257.758V19H255.638V12.64L250.518 19H248.858V9H250.978V15.34L256.098 9ZM268.004 9V19H265.884V15.64H264.684L262.144 19H259.604L262.304 15.44C261.611 15.2133 261.051 14.8133 260.624 14.24C260.211 13.6667 260.004 13.0267 260.004 12.32C260.004 11.4 260.331 10.62 260.984 9.98C261.651 9.32667 262.504 9 263.544 9H268.004ZM263.664 13.78H265.884V10.96H263.664C263.224 10.96 262.857 11.0867 262.564 11.34C262.271 11.5933 262.124 11.94 262.124 12.38C262.124 12.8067 262.271 13.1467 262.564 13.4C262.857 13.6533 263.224 13.78 263.664 13.78Z" fill="#F1F1F1"/>
<path d="M6.832 44.2H7.84L4.578 51.858C4.25133 52.642 3.836 53.2067 3.332 53.552C2.828 53.8973 2.20267 54.0467 1.456 54V53.104C1.97867 53.16 2.408 53.0853 2.744 52.88C3.08933 52.6653 3.374 52.2967 3.598 51.774L3.794 51.312L0.42 44.2H1.428L4.256 50.22L6.832 44.2ZM13.5833 53.104H14.5633V55.876H13.6393V54H7.92728V55.876H7.00328V53.104H7.85728C8.33328 52.4787 8.57128 51.5967 8.57128 50.458V47H13.5833V53.104ZM8.97728 53.104H12.6593V47.896H9.49528V50.458C9.49528 51.5313 9.32261 52.4133 8.97728 53.104ZM21.4137 53.118C20.7043 53.818 19.8363 54.168 18.8097 54.168C17.783 54.168 16.9103 53.818 16.1917 53.118C15.4823 52.4087 15.1277 51.536 15.1277 50.5C15.1277 49.464 15.4823 48.596 16.1917 47.896C16.9103 47.1867 17.783 46.832 18.8097 46.832C19.8363 46.832 20.7043 47.1867 21.4137 47.896C22.1323 48.596 22.4917 49.464 22.4917 50.5C22.4917 51.536 22.1323 52.4087 21.4137 53.118ZM16.8497 52.474C17.3817 53.006 18.035 53.272 18.8097 53.272C19.5843 53.272 20.2377 53.006 20.7697 52.474C21.3017 51.9327 21.5677 51.2747 21.5677 50.5C21.5677 49.7253 21.3017 49.072 20.7697 48.54C20.2377 47.9987 19.5843 47.728 18.8097 47.728C18.035 47.728 17.3817 47.9987 16.8497 48.54C16.3177 49.072 16.0517 49.7253 16.0517 50.5C16.0517 51.2747 16.3177 51.9327 16.8497 52.474ZM27.0059 54.168C25.9979 54.168 25.1579 53.8367 24.4859 53.174C23.8139 52.502 23.4779 51.634 23.4779 50.57C23.4779 49.3753 23.6552 48.4607 24.0099 47.826C24.3646 47.182 25.0832 46.5987 26.1659 46.076C26.3712 45.9733 26.6419 45.852 26.9779 45.712C27.3232 45.572 27.5799 45.46 27.7479 45.376C27.9252 45.292 28.1166 45.1847 28.3219 45.054C28.5272 44.914 28.6812 44.76 28.7839 44.592C28.8866 44.424 28.9519 44.2233 28.9799 43.99L29.7079 44.41C29.6706 44.634 29.5959 44.844 29.4839 45.04C29.3719 45.236 29.2552 45.3947 29.1339 45.516C29.0219 45.6373 28.8399 45.7727 28.5879 45.922C28.3452 46.062 28.1539 46.1647 28.0139 46.23C27.8832 46.286 27.6499 46.384 27.3139 46.524C26.9872 46.664 26.7679 46.7573 26.6559 46.804C26.0026 47.084 25.5219 47.378 25.2139 47.686C24.9059 47.9847 24.6866 48.3767 24.5559 48.862C24.8732 48.442 25.2746 48.134 25.7599 47.938C26.2546 47.7327 26.7352 47.63 27.2019 47.63C28.1352 47.63 28.9052 47.938 29.5119 48.554C30.1279 49.1607 30.4359 49.94 30.4359 50.892C30.4359 51.8347 30.1092 52.6187 29.4559 53.244C28.8119 53.86 27.9952 54.168 27.0059 54.168ZM27.0059 53.244C27.7339 53.244 28.3312 53.0247 28.7979 52.586C29.2739 52.138 29.5119 51.5733 29.5119 50.892C29.5119 50.2013 29.2879 49.6367 28.8399 49.198C28.4012 48.75 27.8132 48.526 27.0759 48.526C26.4132 48.526 25.8112 48.736 25.2699 49.156C24.7286 49.5667 24.4579 50.1173 24.4579 50.808C24.4579 51.5173 24.7006 52.1007 25.1859 52.558C25.6806 53.0153 26.2872 53.244 27.0059 53.244ZM36.6573 47H37.5813V54H36.6573V50.948H32.6253V54H31.7013V47H32.6253V50.052H36.6573V47ZM45.2612 53.118C44.5519 53.818 43.6839 54.168 42.6572 54.168C41.6306 54.168 40.7579 53.818 40.0392 53.118C39.3299 52.4087 38.9752 51.536 38.9752 50.5C38.9752 49.464 39.3299 48.596 40.0392 47.896C40.7579 47.1867 41.6306 46.832 42.6572 46.832C43.6839 46.832 44.5519 47.1867 45.2612 47.896C45.9799 48.596 46.3392 49.464 46.3392 50.5C46.3392 51.536 45.9799 52.4087 45.2612 53.118ZM40.6972 52.474C41.2292 53.006 41.8826 53.272 42.6572 53.272C43.4319 53.272 44.0852 53.006 44.6172 52.474C45.1492 51.9327 45.4152 51.2747 45.4152 50.5C45.4152 49.7253 45.1492 49.072 44.6172 48.54C44.0852 47.9987 43.4319 47.728 42.6572 47.728C41.8826 47.728 41.2292 47.9987 40.6972 48.54C40.1652 49.072 39.8992 49.7253 39.8992 50.5C39.8992 51.2747 40.1652 51.9327 40.6972 52.474ZM54.8575 46.832C55.8561 46.832 56.7055 47.1867 57.4055 47.896C58.1148 48.6053 58.4695 49.4733 58.4695 50.5C58.4695 51.5267 58.1148 52.3947 57.4055 53.104C56.7055 53.8133 55.8561 54.168 54.8575 54.168C53.6161 54.168 52.6735 53.6547 52.0295 52.628V56.8H51.1055V47H52.0295V48.372C52.6735 47.3453 53.6161 46.832 54.8575 46.832ZM52.8275 52.474C53.3595 53.006 54.0128 53.272 54.7875 53.272C55.5621 53.272 56.2155 53.006 56.7475 52.474C57.2795 51.9327 57.5455 51.2747 57.5455 50.5C57.5455 49.7253 57.2795 49.072 56.7475 48.54C56.2155 47.9987 55.5621 47.728 54.7875 47.728C54.0128 47.728 53.3595 47.9987 52.8275 48.54C52.2955 49.072 52.0295 49.7253 52.0295 50.5C52.0295 51.2747 52.2955 51.9327 52.8275 52.474ZM65.8859 47H66.8099V54H65.8859V52.628C65.2419 53.6547 64.2992 54.168 63.0579 54.168C62.0592 54.168 61.2052 53.8133 60.4959 53.104C59.7959 52.3947 59.4459 51.5267 59.4459 50.5C59.4459 49.4733 59.7959 48.6053 60.4959 47.896C61.2052 47.1867 62.0592 46.832 63.0579 46.832C64.2992 46.832 65.2419 47.3453 65.8859 48.372V47ZM61.1679 52.474C61.6999 53.006 62.3532 53.272 63.1279 53.272C63.9025 53.272 64.5559 53.006 65.0879 52.474C65.6199 51.9327 65.8859 51.2747 65.8859 50.5C65.8859 49.7253 65.6199 49.072 65.0879 48.54C64.5559 47.9987 63.9025 47.728 63.1279 47.728C62.3532 47.728 61.6999 47.9987 61.1679 48.54C60.6359 49.072 60.3699 49.7253 60.3699 50.5C60.3699 51.2747 60.6359 51.9327 61.1679 52.474ZM71.8882 54.168C70.8336 54.168 69.9562 53.818 69.2562 53.118C68.5562 52.4087 68.2062 51.536 68.2062 50.5C68.2062 49.464 68.5562 48.596 69.2562 47.896C69.9562 47.1867 70.8336 46.832 71.8882 46.832C72.5789 46.832 73.1996 47 73.7502 47.336C74.3009 47.6627 74.7022 48.106 74.9542 48.666L74.1982 49.1C74.0116 48.68 73.7082 48.3487 73.2882 48.106C72.8776 47.854 72.4109 47.728 71.8882 47.728C71.1136 47.728 70.4602 47.9987 69.9282 48.54C69.3962 49.072 69.1302 49.7253 69.1302 50.5C69.1302 51.2747 69.3962 51.9327 69.9282 52.474C70.4602 53.006 71.1136 53.272 71.8882 53.272C72.4109 53.272 72.8776 53.1507 73.2882 52.908C73.6989 52.656 74.0209 52.32 74.2542 51.9L75.0242 52.348C74.7349 52.908 74.3102 53.3513 73.7502 53.678C73.1902 54.0047 72.5696 54.168 71.8882 54.168ZM82.0909 47V54H81.1669V47.896H77.1349V54H76.2109V47H82.0909ZM89.7708 53.118C89.0615 53.818 88.1935 54.168 87.1668 54.168C86.1402 54.168 85.2675 53.818 84.5488 53.118C83.8395 52.4087 83.4848 51.536 83.4848 50.5C83.4848 49.464 83.8395 48.596 84.5488 47.896C85.2675 47.1867 86.1402 46.832 87.1668 46.832C88.1935 46.832 89.0615 47.1867 89.7708 47.896C90.4895 48.596 90.8488 49.464 90.8488 50.5C90.8488 51.536 90.4895 52.4087 89.7708 53.118ZM85.2068 52.474C85.7388 53.006 86.3922 53.272 87.1668 53.272C87.9415 53.272 88.5948 53.006 89.1268 52.474C89.6588 51.9327 89.9248 51.2747 89.9248 50.5C89.9248 49.7253 89.6588 49.072 89.1268 48.54C88.5948 47.9987 87.9415 47.728 87.1668 47.728C86.3922 47.728 85.7388 47.9987 85.2068 48.54C84.6748 49.072 84.4088 49.7253 84.4088 50.5C84.4088 51.2747 84.6748 51.9327 85.2068 52.474ZM97.7216 47V54H96.7976V47.896H93.6336V51.018C93.6336 52.1847 93.4096 52.9873 92.9616 53.426C92.523 53.8647 91.9163 54.056 91.1416 54V53.132C91.6736 53.188 92.0656 53.062 92.3176 52.754C92.579 52.446 92.7096 51.8673 92.7096 51.018V47H97.7216ZM105.405 53.118C104.696 53.818 103.828 54.168 102.801 54.168C101.774 54.168 100.902 53.818 100.183 53.118C99.4736 52.4087 99.1189 51.536 99.1189 50.5C99.1189 49.464 99.4736 48.596 100.183 47.896C100.902 47.1867 101.774 46.832 102.801 46.832C103.828 46.832 104.696 47.1867 105.405 47.896C106.124 48.596 106.483 49.464 106.483 50.5C106.483 51.536 106.124 52.4087 105.405 53.118ZM100.841 52.474C101.373 53.006 102.026 53.272 102.801 53.272C103.576 53.272 104.229 53.006 104.761 52.474C105.293 51.9327 105.559 51.2747 105.559 50.5C105.559 49.7253 105.293 49.072 104.761 48.54C104.229 47.9987 103.576 47.728 102.801 47.728C102.026 47.728 101.373 47.9987 100.841 48.54C100.309 49.072 100.043 49.7253 100.043 50.5C100.043 51.2747 100.309 51.9327 100.841 52.474ZM115.505 54H114.385L111.529 50.626V54H110.605V50.626L107.749 54H106.629L109.765 50.36L106.769 47H107.889L110.605 50.108V47H111.529V50.108L114.245 47H115.365L112.369 50.36L115.505 54ZM119.296 46.832C120.332 46.832 121.167 47.2007 121.802 47.938C122.446 48.666 122.768 49.5293 122.768 50.528C122.768 50.6307 122.758 50.7753 122.74 50.962H116.594C116.687 51.6713 116.986 52.236 117.49 52.656C118.003 53.0667 118.633 53.272 119.38 53.272C119.912 53.272 120.369 53.1647 120.752 52.95C121.144 52.726 121.438 52.4367 121.634 52.082L122.446 52.558C122.138 53.0527 121.718 53.4447 121.186 53.734C120.654 54.0233 120.047 54.168 119.366 54.168C118.264 54.168 117.368 53.8227 116.678 53.132C115.987 52.4413 115.642 51.564 115.642 50.5C115.642 49.4547 115.982 48.582 116.664 47.882C117.345 47.182 118.222 46.832 119.296 46.832ZM119.296 47.728C118.568 47.728 117.956 47.9473 117.462 48.386C116.976 48.8153 116.687 49.3753 116.594 50.066H121.816C121.722 49.3287 121.438 48.7547 120.962 48.344C120.486 47.9333 119.93 47.728 119.296 47.728ZM129.053 47H129.977V54H129.053V50.948H125.021V54H124.097V47H125.021V50.052H129.053V47ZM136.747 47H137.671V54H136.747V50.948H132.715V54H131.791V47H132.715V50.052H136.747V47ZM142.327 49.66C142.981 49.66 143.531 49.8653 143.979 50.276C144.437 50.6773 144.665 51.1953 144.665 51.83C144.665 52.4647 144.437 52.9873 143.979 53.398C143.531 53.7993 142.981 54 142.327 54H139.485V47H140.409V49.66H142.327ZM145.645 47H146.569V54H145.645V47ZM142.327 53.104C142.719 53.104 143.051 52.9873 143.321 52.754C143.601 52.5207 143.741 52.2127 143.741 51.83C143.741 51.4473 143.601 51.1393 143.321 50.906C143.051 50.6727 142.719 50.556 142.327 50.556H140.409V53.104H142.327ZM151.63 46.832C152.666 46.832 153.502 47.2007 154.136 47.938C154.78 48.666 155.102 49.5293 155.102 50.528C155.102 50.6307 155.093 50.7753 155.074 50.962H148.928C149.022 51.6713 149.32 52.236 149.824 52.656C150.338 53.0667 150.968 53.272 151.714 53.272C152.246 53.272 152.704 53.1647 153.086 52.95C153.478 52.726 153.772 52.4367 153.968 52.082L154.78 52.558C154.472 53.0527 154.052 53.4447 153.52 53.734C152.988 54.0233 152.382 54.168 151.7 54.168C150.599 54.168 149.703 53.8227 149.012 53.132C148.322 52.4413 147.976 51.564 147.976 50.5C147.976 49.4547 148.317 48.582 148.998 47.882C149.68 47.182 150.557 46.832 151.63 46.832ZM151.63 47.728C150.902 47.728 150.291 47.9473 149.796 48.386C149.311 48.8153 149.022 49.3753 148.928 50.066H154.15C154.057 49.3287 153.772 48.7547 153.296 48.344C152.82 47.9333 152.265 47.728 151.63 47.728ZM162.284 46.832C163.339 46.832 164.188 47.182 164.832 47.882C165.476 48.5727 165.798 49.4453 165.798 50.5C165.798 51.5547 165.471 52.432 164.818 53.132C164.174 53.8227 163.32 54.168 162.256 54.168C161.5 54.168 160.842 54.0047 160.282 53.678C159.731 53.342 159.335 52.8893 159.092 52.32L159.89 51.858C160.049 52.2873 160.333 52.6327 160.744 52.894C161.155 53.146 161.659 53.272 162.256 53.272C162.956 53.272 163.539 53.0573 164.006 52.628C164.473 52.1893 164.753 51.6293 164.846 50.948H161.36V50.052H164.846C164.762 49.3707 164.487 48.8153 164.02 48.386C163.563 47.9473 162.984 47.728 162.284 47.728C161.752 47.728 161.281 47.854 160.87 48.106C160.459 48.358 160.156 48.6987 159.96 49.128L159.148 48.666C159.428 48.0967 159.843 47.6487 160.394 47.322C160.954 46.9953 161.584 46.832 162.284 46.832ZM172.665 47V54H171.741V47.896H168.577V51.018C168.577 52.1847 168.353 52.9873 167.905 53.426C167.467 53.8647 166.86 54.056 166.085 54V53.132C166.617 53.188 167.009 53.062 167.261 52.754C167.523 52.446 167.653 51.8673 167.653 51.018V47H172.665ZM177.717 46.832C178.753 46.832 179.588 47.2007 180.223 47.938C180.867 48.666 181.189 49.5293 181.189 50.528C181.189 50.6307 181.179 50.7753 181.161 50.962H175.015C175.108 51.6713 175.407 52.236 175.911 52.656C176.424 53.0667 177.054 53.272 177.801 53.272C178.333 53.272 178.79 53.1647 179.173 52.95C179.565 52.726 179.859 52.4367 180.055 52.082L180.867 52.558C180.559 53.0527 180.139 53.4447 179.607 53.734C179.075 54.0233 178.468 54.168 177.787 54.168C176.685 54.168 175.789 53.8227 175.099 53.132C174.408 52.4413 174.063 51.564 174.063 50.5C174.063 49.4547 174.403 48.582 175.085 47.882C175.766 47.182 176.643 46.832 177.717 46.832ZM177.717 47.728C176.989 47.728 176.377 47.9473 175.883 48.386C175.397 48.8153 175.108 49.3753 175.015 50.066H180.237C180.143 49.3287 179.859 48.7547 179.383 48.344C178.907 47.9333 178.351 47.728 177.717 47.728ZM189.378 47V54H188.454V48.414L186.004 52.39H185.892L183.442 48.414V54H182.518V47H183.582L185.948 50.836L188.314 47H189.378ZM194.431 46.832C195.467 46.832 196.302 47.2007 196.937 47.938C197.581 48.666 197.903 49.5293 197.903 50.528C197.903 50.6307 197.893 50.7753 197.875 50.962H191.729C191.822 51.6713 192.121 52.236 192.625 52.656C193.138 53.0667 193.768 53.272 194.515 53.272C195.047 53.272 195.504 53.1647 195.887 52.95C196.279 52.726 196.573 52.4367 196.769 52.082L197.581 52.558C197.273 53.0527 196.853 53.4447 196.321 53.734C195.789 54.0233 195.182 54.168 194.501 54.168C193.399 54.168 192.503 53.8227 191.813 53.132C191.122 52.4413 190.777 51.564 190.777 50.5C190.777 49.4547 191.117 48.582 191.799 47.882C192.48 47.182 193.357 46.832 194.431 46.832ZM194.431 47.728C193.703 47.728 193.091 47.9473 192.597 48.386C192.111 48.8153 191.822 49.3753 191.729 50.066H196.951C196.857 49.3287 196.573 48.7547 196.097 48.344C195.621 47.9333 195.065 47.728 194.431 47.728ZM204.189 47H205.113V54H204.189V50.948H200.157V54H199.233V47H200.157V50.052H204.189V47ZM211.967 47V47.896H209.489V54H208.565V47.896H206.087V47H211.967ZM215.795 49.66C216.448 49.66 216.999 49.8653 217.447 50.276C217.904 50.6773 218.133 51.1953 218.133 51.83C218.133 52.4647 217.904 52.9873 217.447 53.398C216.999 53.7993 216.448 54 215.795 54H212.953V47H213.877V49.66H215.795ZM219.113 47H220.037V54H219.113V47ZM215.795 53.104C216.187 53.104 216.518 52.9873 216.789 52.754C217.069 52.5207 217.209 52.2127 217.209 51.83C217.209 51.4473 217.069 51.1393 216.789 50.906C216.518 50.6727 216.187 50.556 215.795 50.556H213.877V53.104H215.795ZM230.263 47H231.243L228.247 54.644C227.977 55.3347 227.589 55.876 227.085 56.268C226.591 56.6693 226.035 56.8467 225.419 56.8V55.932C226.259 56.0253 226.899 55.54 227.337 54.476L227.519 54.042L224.383 47H225.363L227.995 52.866L230.263 47ZM238.1 47V54H237.176V47.896H233.144V54H232.22V47H238.1ZM243.666 46.832C244.665 46.832 245.514 47.1867 246.214 47.896C246.923 48.6053 247.278 49.4733 247.278 50.5C247.278 51.5267 246.923 52.3947 246.214 53.104C245.514 53.8133 244.665 54.168 243.666 54.168C242.425 54.168 241.482 53.6547 240.838 52.628V56.8H239.914V47H240.838V48.372C241.482 47.3453 242.425 46.832 243.666 46.832ZM241.636 52.474C242.168 53.006 242.821 53.272 243.596 53.272C244.371 53.272 245.024 53.006 245.556 52.474C246.088 51.9327 246.354 51.2747 246.354 50.5C246.354 49.7253 246.088 49.072 245.556 48.54C245.024 47.9987 244.371 47.728 243.596 47.728C242.821 47.728 242.168 47.9987 241.636 48.54C241.104 49.072 240.838 49.7253 240.838 50.5C240.838 51.2747 241.104 51.9327 241.636 52.474ZM254.694 47H255.618V54H254.694V52.628C254.05 53.6547 253.108 54.168 251.866 54.168C250.868 54.168 250.014 53.8133 249.304 53.104C248.604 52.3947 248.254 51.5267 248.254 50.5C248.254 49.4733 248.604 48.6053 249.304 47.896C250.014 47.1867 250.868 46.832 251.866 46.832C253.108 46.832 254.05 47.3453 254.694 48.372V47ZM249.976 52.474C250.508 53.006 251.162 53.272 251.936 53.272C252.711 53.272 253.364 53.006 253.896 52.474C254.428 51.9327 254.694 51.2747 254.694 50.5C254.694 49.7253 254.428 49.072 253.896 48.54C253.364 47.9987 252.711 47.728 251.936 47.728C251.162 47.728 250.508 47.9987 249.976 48.54C249.444 49.072 249.178 49.7253 249.178 50.5C249.178 51.2747 249.444 51.9327 249.976 52.474ZM261.887 50.402C262.652 50.682 263.035 51.228 263.035 52.04C263.035 52.6093 262.844 53.0807 262.461 53.454C262.088 53.818 261.546 54 260.837 54H257.435V47H260.557C261.238 47 261.766 47.1773 262.139 47.532C262.512 47.8773 262.699 48.3253 262.699 48.876C262.699 49.576 262.428 50.0847 261.887 50.402ZM260.557 47.896H258.359V50.024H260.557C261.369 50.024 261.775 49.66 261.775 48.932C261.775 48.6053 261.668 48.3533 261.453 48.176C261.248 47.9893 260.949 47.896 260.557 47.896ZM260.837 53.104C261.248 53.104 261.56 53.006 261.775 52.81C261.999 52.614 262.111 52.3387 262.111 51.984C262.111 51.6573 261.999 51.4007 261.775 51.214C261.56 51.018 261.248 50.92 260.837 50.92H258.359V53.104H260.837ZM269.761 47V54H268.837V47.896H265.673V51.018C265.673 52.1847 265.449 52.9873 265.001 53.426C264.563 53.8647 263.956 54.056 263.181 54V53.132C263.713 53.188 264.105 53.062 264.357 52.754C264.619 52.446 264.749 51.8673 264.749 51.018V47H269.761ZM274.813 46.832C275.849 46.832 276.684 47.2007 277.319 47.938C277.963 48.666 278.285 49.5293 278.285 50.528C278.285 50.6307 278.275 50.7753 278.257 50.962H272.111C272.204 51.6713 272.503 52.236 273.007 52.656C273.52 53.0667 274.15 53.272 274.897 53.272C275.429 53.272 275.886 53.1647 276.269 52.95C276.661 52.726 276.955 52.4367 277.151 52.082L277.963 52.558C277.655 53.0527 277.235 53.4447 276.703 53.734C276.171 54.0233 275.564 54.168 274.883 54.168C273.781 54.168 272.885 53.8227 272.195 53.132C271.504 52.4413 271.159 51.564 271.159 50.5C271.159 49.4547 271.499 48.582 272.181 47.882C272.862 47.182 273.739 46.832 274.813 46.832ZM274.813 47.728C274.085 47.728 273.473 47.9473 272.979 48.386C272.493 48.8153 272.204 49.3753 272.111 50.066H277.333C277.239 49.3287 276.955 48.7547 276.479 48.344C276.003 47.9333 275.447 47.728 274.813 47.728ZM284.57 47H285.494V54H284.57V50.948H280.538V54H279.614V47H280.538V50.052H284.57V47ZM292.404 47H293.188V54H292.264V48.61L288.092 54H287.308V47H288.232V52.39L292.404 47ZM300.042 47V54H299.118V51.312H297.914L295.758 54H294.582L296.794 51.284C296.234 51.2 295.772 50.9667 295.408 50.584C295.044 50.2013 294.862 49.73 294.862 49.17C294.862 48.5353 295.086 48.0173 295.534 47.616C295.992 47.2053 296.547 47 297.2 47H300.042ZM297.2 50.444H299.118V47.896H297.2C296.808 47.896 296.472 48.0127 296.192 48.246C295.922 48.4793 295.786 48.7873 295.786 49.17C295.786 49.5527 295.922 49.8607 296.192 50.094C296.472 50.3273 296.808 50.444 297.2 50.444ZM303.038 53.916C302.889 54.0653 302.707 54.14 302.492 54.14C302.278 54.14 302.096 54.0653 301.946 53.916C301.797 53.7667 301.722 53.5847 301.722 53.37C301.722 53.1553 301.797 52.9733 301.946 52.824C302.096 52.6747 302.278 52.6 302.492 52.6C302.707 52.6 302.889 52.6747 303.038 52.824C303.188 52.9733 303.262 53.1553 303.262 53.37C303.262 53.5847 303.188 53.7667 303.038 53.916ZM316.555 52.698C315.575 53.678 314.376 54.168 312.957 54.168C311.538 54.168 310.339 53.678 309.359 52.698C308.379 51.7087 307.889 50.5093 307.889 49.1C307.889 47.6907 308.379 46.496 309.359 45.516C310.339 44.5267 311.538 44.032 312.957 44.032C314.376 44.032 315.575 44.5267 316.555 45.516C317.535 46.496 318.025 47.6907 318.025 49.1C318.025 50.5093 317.535 51.7087 316.555 52.698ZM310.045 52.026C310.829 52.8193 311.8 53.216 312.957 53.216C314.114 53.216 315.085 52.8193 315.869 52.026C316.653 51.2233 317.045 50.248 317.045 49.1C317.045 47.952 316.653 46.9813 315.869 46.188C315.085 45.3853 314.114 44.984 312.957 44.984C311.8 44.984 310.829 45.3853 310.045 46.188C309.261 46.9813 308.869 47.952 308.869 49.1C308.869 50.248 309.261 51.2233 310.045 52.026ZM324.461 47V47.896H321.983V54H321.059V47.896H318.581V47H324.461ZM331.04 53.118C330.33 53.818 329.462 54.168 328.436 54.168C327.409 54.168 326.536 53.818 325.818 53.118C325.108 52.4087 324.754 51.536 324.754 50.5C324.754 49.464 325.108 48.596 325.818 47.896C326.536 47.1867 327.409 46.832 328.436 46.832C329.462 46.832 330.33 47.1867 331.04 47.896C331.758 48.596 332.118 49.464 332.118 50.5C332.118 51.536 331.758 52.4087 331.04 53.118ZM326.476 52.474C327.008 53.006 327.661 53.272 328.436 53.272C329.21 53.272 329.864 53.006 330.396 52.474C330.928 51.9327 331.194 51.2747 331.194 50.5C331.194 49.7253 330.928 49.072 330.396 48.54C329.864 47.9987 329.21 47.728 328.436 47.728C327.661 47.728 327.008 47.9987 326.476 48.54C325.944 49.072 325.678 49.7253 325.678 50.5C325.678 51.2747 325.944 51.9327 326.476 52.474ZM336.632 54.168C335.624 54.168 334.784 53.8367 334.112 53.174C333.44 52.502 333.104 51.634 333.104 50.57C333.104 49.3753 333.281 48.4607 333.636 47.826C333.99 47.182 334.709 46.5987 335.792 46.076C335.997 45.9733 336.268 45.852 336.604 45.712C336.949 45.572 337.206 45.46 337.374 45.376C337.551 45.292 337.742 45.1847 337.948 45.054C338.153 44.914 338.307 44.76 338.41 44.592C338.512 44.424 338.578 44.2233 338.606 43.99L339.334 44.41C339.296 44.634 339.222 44.844 339.11 45.04C338.998 45.236 338.881 45.3947 338.76 45.516C338.648 45.6373 338.466 45.7727 338.214 45.922C337.971 46.062 337.78 46.1647 337.64 46.23C337.509 46.286 337.276 46.384 336.94 46.524C336.613 46.664 336.394 46.7573 336.282 46.804C335.628 47.084 335.148 47.378 334.84 47.686C334.532 47.9847 334.312 48.3767 334.182 48.862C334.499 48.442 334.9 48.134 335.386 47.938C335.88 47.7327 336.361 47.63 336.828 47.63C337.761 47.63 338.531 47.938 339.138 48.554C339.754 49.1607 340.062 49.94 340.062 50.892C340.062 51.8347 339.735 52.6187 339.082 53.244C338.438 53.86 337.621 54.168 336.632 54.168ZM336.632 53.244C337.36 53.244 337.957 53.0247 338.424 52.586C338.9 52.138 339.138 51.5733 339.138 50.892C339.138 50.2013 338.914 49.6367 338.466 49.198C338.027 48.75 337.439 48.526 336.702 48.526C336.039 48.526 335.437 48.736 334.896 49.156C334.354 49.5667 334.084 50.1173 334.084 50.808C334.084 51.5173 334.326 52.1007 334.812 52.558C335.306 53.0153 335.913 53.244 336.632 53.244ZM345.079 46.832C346.078 46.832 346.927 47.1867 347.627 47.896C348.336 48.6053 348.691 49.4733 348.691 50.5C348.691 51.5267 348.336 52.3947 347.627 53.104C346.927 53.8133 346.078 54.168 345.079 54.168C343.838 54.168 342.895 53.6547 342.251 52.628V56.8H341.327V47H342.251V48.372C342.895 47.3453 343.838 46.832 345.079 46.832ZM343.049 52.474C343.581 53.006 344.234 53.272 345.009 53.272C345.784 53.272 346.437 53.006 346.969 52.474C347.501 51.9327 347.767 51.2747 347.767 50.5C347.767 49.7253 347.501 49.072 346.969 48.54C346.437 47.9987 345.784 47.728 345.009 47.728C344.234 47.728 343.581 47.9987 343.049 48.54C342.517 49.072 342.251 49.7253 342.251 50.5C342.251 51.2747 342.517 51.9327 343.049 52.474ZM356.108 47H357.032V54H356.108V52.628C355.464 53.6547 354.521 54.168 353.28 54.168C352.281 54.168 351.427 53.8133 350.718 53.104C350.018 52.3947 349.668 51.5267 349.668 50.5C349.668 49.4733 350.018 48.6053 350.718 47.896C351.427 47.1867 352.281 46.832 353.28 46.832C354.521 46.832 355.464 47.3453 356.108 48.372V47ZM351.39 52.474C351.922 53.006 352.575 53.272 353.35 53.272C354.124 53.272 354.778 53.006 355.31 52.474C355.842 51.9327 356.108 51.2747 356.108 50.5C356.108 49.7253 355.842 49.072 355.31 48.54C354.778 47.9987 354.124 47.728 353.35 47.728C352.575 47.728 351.922 47.9987 351.39 48.54C350.858 49.072 350.592 49.7253 350.592 50.5C350.592 51.2747 350.858 51.9327 351.39 52.474ZM367.024 54H365.904L363.048 50.626V54H362.124V50.626L359.268 54H358.148L361.284 50.36L358.288 47H359.408L362.124 50.108V47H363.048V50.108L365.764 47H366.884L363.888 50.36L367.024 54ZM370.815 46.832C371.851 46.832 372.686 47.2007 373.321 47.938C373.965 48.666 374.287 49.5293 374.287 50.528C374.287 50.6307 374.278 50.7753 374.259 50.962H368.113C368.206 51.6713 368.505 52.236 369.009 52.656C369.522 53.0667 370.152 53.272 370.899 53.272C371.431 53.272 371.888 53.1647 372.271 52.95C372.663 52.726 372.957 52.4367 373.153 52.082L373.965 52.558C373.657 53.0527 373.237 53.4447 372.705 53.734C372.173 54.0233 371.566 54.168 370.885 54.168C369.784 54.168 368.888 53.8227 368.197 53.132C367.506 52.4413 367.161 51.564 367.161 50.5C367.161 49.4547 367.502 48.582 368.183 47.882C368.864 47.182 369.742 46.832 370.815 46.832ZM370.815 47.728C370.087 47.728 369.476 47.9473 368.981 48.386C368.496 48.8153 368.206 49.3753 368.113 50.066H373.335C373.242 49.3287 372.957 48.7547 372.481 48.344C372.005 47.9333 371.45 47.728 370.815 47.728ZM380.573 47H381.497V54H380.573V50.948H376.541V54H375.617V47H376.541V50.052H380.573V47ZM388.407 47H389.191V54H388.267V48.61L384.095 54H383.311V47H384.235V52.39L388.407 47ZM394.239 46.832C395.275 46.832 396.11 47.2007 396.745 47.938C397.389 48.666 397.711 49.5293 397.711 50.528C397.711 50.6307 397.701 50.7753 397.683 50.962H391.537C391.63 51.6713 391.929 52.236 392.433 52.656C392.946 53.0667 393.576 53.272 394.323 53.272C394.855 53.272 395.312 53.1647 395.695 52.95C396.087 52.726 396.381 52.4367 396.577 52.082L397.389 52.558C397.081 53.0527 396.661 53.4447 396.129 53.734C395.597 54.0233 394.99 54.168 394.309 54.168C393.207 54.168 392.311 53.8227 391.621 53.132C390.93 52.4413 390.585 51.564 390.585 50.5C390.585 49.4547 390.925 48.582 391.607 47.882C392.288 47.182 393.165 46.832 394.239 46.832ZM394.239 47.728C393.511 47.728 392.899 47.9473 392.405 48.386C391.919 48.8153 391.63 49.3753 391.537 50.066H396.759C396.665 49.3287 396.381 48.7547 395.905 48.344C395.429 47.9333 394.873 47.728 394.239 47.728ZM5.488 69.946C5.98267 70.1793 6.37467 70.506 6.664 70.926C6.96267 71.3367 7.112 71.808 7.112 72.34C7.112 73.2267 6.79933 73.922 6.174 74.426C5.54867 74.9207 4.76933 75.168 3.836 75.168C2.90267 75.168 2.12333 74.9207 1.498 74.426C0.872667 73.922 0.56 73.2267 0.56 72.34C0.56 71.808 0.704667 71.3367 0.994 70.926C1.29267 70.506 1.68933 70.1793 2.184 69.946C1.316 69.4513 0.882 68.7187 0.882 67.748C0.882 66.8707 1.17133 66.1987 1.75 65.732C2.338 65.2653 3.03333 65.032 3.836 65.032C4.63867 65.032 5.32933 65.2653 5.908 65.732C6.496 66.1987 6.79 66.8707 6.79 67.748C6.79 68.7187 6.356 69.4513 5.488 69.946ZM5.236 66.418C4.86267 66.1287 4.396 65.984 3.836 65.984C3.276 65.984 2.80467 66.1287 2.422 66.418C2.04867 66.7073 1.862 67.1507 1.862 67.748C1.862 68.308 2.05333 68.742 2.436 69.05C2.828 69.358 3.29467 69.512 3.836 69.512C4.37733 69.512 4.83933 69.358 5.222 69.05C5.614 68.742 5.81 68.308 5.81 67.748C5.81 67.1507 5.61867 66.7073 5.236 66.418ZM2.17 73.74C2.59 74.0573 3.14533 74.216 3.836 74.216C4.52667 74.216 5.082 74.0573 5.502 73.74C5.922 73.4133 6.132 72.9467 6.132 72.34C6.132 71.7333 5.922 71.2713 5.502 70.954C5.082 70.6273 4.52667 70.464 3.836 70.464C3.14533 70.464 2.59 70.6273 2.17 70.954C1.75 71.2713 1.54 71.7333 1.54 72.34C1.54 72.9467 1.75 73.4133 2.17 73.74ZM16.9099 68V68.896H14.4319V75H13.5079V68.896H11.0299V68H16.9099ZM22.9919 68H23.7759V75H22.8519V69.61L18.6799 75H17.8959V68H18.8199V73.39L22.9919 68ZM31.4699 68V75H30.5459V68.896H26.5139V75H25.5899V68H31.4699ZM39.1499 74.118C38.4406 74.818 37.5726 75.168 36.5459 75.168C35.5192 75.168 34.6466 74.818 33.9279 74.118C33.2186 73.4087 32.8639 72.536 32.8639 71.5C32.8639 70.464 33.2186 69.596 33.9279 68.896C34.6466 68.1867 35.5192 67.832 36.5459 67.832C37.5726 67.832 38.4406 68.1867 39.1499 68.896C39.8686 69.596 40.2279 70.464 40.2279 71.5C40.2279 72.536 39.8686 73.4087 39.1499 74.118ZM34.5859 73.474C35.1179 74.006 35.7712 74.272 36.5459 74.272C37.3206 74.272 37.9739 74.006 38.5059 73.474C39.0379 72.9327 39.3039 72.2747 39.3039 71.5C39.3039 70.7253 39.0379 70.072 38.5059 69.54C37.9739 68.9987 37.3206 68.728 36.5459 68.728C35.7712 68.728 35.1179 68.9987 34.5859 69.54C34.0539 70.072 33.7879 70.7253 33.7879 71.5C33.7879 72.2747 34.0539 72.9327 34.5859 73.474ZM46.0861 71.402C46.8515 71.682 47.2341 72.228 47.2341 73.04C47.2341 73.6093 47.0428 74.0807 46.6601 74.454C46.2868 74.818 45.7455 75 45.0361 75H41.6341V68H44.7561C45.4375 68 45.9648 68.1773 46.3381 68.532C46.7115 68.8773 46.8981 69.3253 46.8981 69.876C46.8981 70.576 46.6275 71.0847 46.0861 71.402ZM44.7561 68.896H42.5581V71.024H44.7561C45.5681 71.024 45.9741 70.66 45.9741 69.932C45.9741 69.6053 45.8668 69.3533 45.6521 69.176C45.4468 68.9893 45.1481 68.896 44.7561 68.896ZM45.0361 74.104C45.4468 74.104 45.7595 74.006 45.9741 73.81C46.1981 73.614 46.3101 73.3387 46.3101 72.984C46.3101 72.6573 46.1981 72.4007 45.9741 72.214C45.7595 72.018 45.4468 71.92 45.0361 71.92H42.5581V74.104H45.0361ZM57.7341 74.104H58.7141V76.876H57.7901V75H52.0781V76.876H51.1541V74.104H52.0081C52.4841 73.4787 52.7221 72.5967 52.7221 71.458V68H57.7341V74.104ZM53.1281 74.104H56.8101V68.896H53.6461V71.458C53.6461 72.5313 53.4735 73.4133 53.1281 74.104ZM65.7185 68H66.6425V75H65.7185V73.628C65.0745 74.6547 64.1319 75.168 62.8905 75.168C61.8919 75.168 61.0379 74.8133 60.3285 74.104C59.6285 73.3947 59.2785 72.5267 59.2785 71.5C59.2785 70.4733 59.6285 69.6053 60.3285 68.896C61.0379 68.1867 61.8919 67.832 62.8905 67.832C64.1319 67.832 65.0745 68.3453 65.7185 69.372V68ZM61.0005 73.474C61.5325 74.006 62.1859 74.272 62.9605 74.272C63.7352 74.272 64.3885 74.006 64.9205 73.474C65.4525 72.9327 65.7185 72.2747 65.7185 71.5C65.7185 70.7253 65.4525 70.072 64.9205 69.54C64.3885 68.9987 63.7352 68.728 62.9605 68.728C62.1859 68.728 61.5325 68.9987 61.0005 69.54C60.4685 70.072 60.2025 70.7253 60.2025 71.5C60.2025 72.2747 60.4685 72.9327 61.0005 73.474ZM73.4149 68H74.3389V75H73.4149V71.948H69.3829V75H68.4589V68H69.3829V71.052H73.4149V68ZM81.1089 68H82.0329V75H81.1089V71.948H77.0769V75H76.1529V68H77.0769V71.052H81.1089V68ZM86.6889 70.66C87.3422 70.66 87.8929 70.8653 88.3409 71.276C88.7982 71.6773 89.0269 72.1953 89.0269 72.83C89.0269 73.4647 88.7982 73.9873 88.3409 74.398C87.8929 74.7993 87.3422 75 86.6889 75H83.8469V68H84.7709V70.66H86.6889ZM90.0069 68H90.9309V75H90.0069V68ZM86.6889 74.104C87.0809 74.104 87.4122 73.9873 87.6829 73.754C87.9629 73.5207 88.1029 73.2127 88.1029 72.83C88.1029 72.4473 87.9629 72.1393 87.6829 71.906C87.4122 71.6727 87.0809 71.556 86.6889 71.556H84.7709V74.104H86.6889ZM98.6377 75H97.5317L95.3477 72.116L93.1637 75H92.0577L94.8017 71.374L92.2397 68H93.3457L95.3477 70.646L97.3497 68H98.4557L95.9077 71.374L98.6377 75ZM107.566 71.402C108.332 71.682 108.714 72.228 108.714 73.04C108.714 73.6093 108.523 74.0807 108.14 74.454C107.767 74.818 107.226 75 106.516 75H103.114V68H106.236C106.918 68 107.445 68.1773 107.818 68.532C108.192 68.8773 108.378 69.3253 108.378 69.876C108.378 70.576 108.108 71.0847 107.566 71.402ZM106.236 68.896H104.038V71.024H106.236C107.048 71.024 107.454 70.66 107.454 69.932C107.454 69.6053 107.347 69.3533 107.132 69.176C106.927 68.9893 106.628 68.896 106.236 68.896ZM106.516 74.104C106.927 74.104 107.24 74.006 107.454 73.81C107.678 73.614 107.79 73.3387 107.79 72.984C107.79 72.6573 107.678 72.4007 107.454 72.214C107.24 72.018 106.927 71.92 106.516 71.92H104.038V74.104H106.516ZM117.086 67.832C118.085 67.832 118.934 68.1867 119.634 68.896C120.344 69.6053 120.698 70.4733 120.698 71.5C120.698 72.5267 120.344 73.3947 119.634 74.104C118.934 74.8133 118.085 75.168 117.086 75.168C115.845 75.168 114.902 74.6547 114.258 73.628V77.8H113.334V68H114.258V69.372C114.902 68.3453 115.845 67.832 117.086 67.832ZM115.056 73.474C115.588 74.006 116.242 74.272 117.016 74.272C117.791 74.272 118.444 74.006 118.976 73.474C119.508 72.9327 119.774 72.2747 119.774 71.5C119.774 70.7253 119.508 70.072 118.976 69.54C118.444 68.9987 117.791 68.728 117.016 68.728C116.242 68.728 115.588 68.9987 115.056 69.54C114.524 70.072 114.258 70.7253 114.258 71.5C114.258 72.2747 114.524 72.9327 115.056 73.474ZM125.329 67.832C126.365 67.832 127.2 68.2007 127.835 68.938C128.479 69.666 128.801 70.5293 128.801 71.528C128.801 71.6307 128.791 71.7753 128.773 71.962H122.627C122.72 72.6713 123.019 73.236 123.523 73.656C124.036 74.0667 124.666 74.272 125.413 74.272C125.945 74.272 126.402 74.1647 126.785 73.95C127.177 73.726 127.471 73.4367 127.667 73.082L128.479 73.558C128.171 74.0527 127.751 74.4447 127.219 74.734C126.687 75.0233 126.08 75.168 125.399 75.168C124.297 75.168 123.401 74.8227 122.711 74.132C122.02 73.4413 121.675 72.564 121.675 71.5C121.675 70.4547 122.015 69.582 122.697 68.882C123.378 68.182 124.255 67.832 125.329 67.832ZM125.329 68.728C124.601 68.728 123.989 68.9473 123.495 69.386C123.009 69.8153 122.72 70.3753 122.627 71.066H127.849C127.755 70.3287 127.471 69.7547 126.995 69.344C126.519 68.9333 125.963 68.728 125.329 68.728ZM136.151 68H137.075V75H136.151V73.628C135.507 74.6547 134.564 75.168 133.323 75.168C132.324 75.168 131.47 74.8133 130.761 74.104C130.061 73.3947 129.711 72.5267 129.711 71.5C129.711 70.4733 130.061 69.6053 130.761 68.896C131.47 68.1867 132.324 67.832 133.323 67.832C134.564 67.832 135.507 68.3453 136.151 69.372V68ZM131.433 73.474C131.965 74.006 132.618 74.272 133.393 74.272C134.167 74.272 134.821 74.006 135.353 73.474C135.885 72.9327 136.151 72.2747 136.151 71.5C136.151 70.7253 135.885 70.072 135.353 69.54C134.821 68.9987 134.167 68.728 133.393 68.728C132.618 68.728 131.965 68.9987 131.433 69.54C130.901 70.072 130.635 70.7253 130.635 71.5C130.635 72.2747 130.901 72.9327 131.433 73.474ZM144.631 68V75H143.707V68.896H140.543V72.018C140.543 73.1847 140.319 73.9873 139.871 74.426C139.432 74.8647 138.826 75.056 138.051 75V74.132C138.583 74.188 138.975 74.062 139.227 73.754C139.488 73.446 139.619 72.8673 139.619 72.018V68H144.631ZM149.29 70.66C149.944 70.66 150.494 70.8653 150.942 71.276C151.4 71.6773 151.628 72.1953 151.628 72.83C151.628 73.4647 151.4 73.9873 150.942 74.398C150.494 74.7993 149.944 75 149.29 75H146.448V68H147.372V70.66H149.29ZM149.29 74.104C149.682 74.104 150.014 73.9873 150.284 73.754C150.564 73.5207 150.704 73.2127 150.704 72.83C150.704 72.4473 150.564 72.1393 150.284 71.906C150.014 71.6727 149.682 71.556 149.29 71.556H147.372V74.104H149.29ZM157.84 68H158.764V75H157.84V71.948H153.808V75H152.884V68H153.808V71.052H157.84V68ZM166.444 74.118C165.735 74.818 164.867 75.168 163.84 75.168C162.814 75.168 161.941 74.818 161.222 74.118C160.513 73.4087 160.158 72.536 160.158 71.5C160.158 70.464 160.513 69.596 161.222 68.896C161.941 68.1867 162.814 67.832 163.84 67.832C164.867 67.832 165.735 68.1867 166.444 68.896C167.163 69.596 167.522 70.464 167.522 71.5C167.522 72.536 167.163 73.4087 166.444 74.118ZM161.88 73.474C162.412 74.006 163.066 74.272 163.84 74.272C164.615 74.272 165.268 74.006 165.8 73.474C166.332 72.9327 166.598 72.2747 166.598 71.5C166.598 70.7253 166.332 70.072 165.8 69.54C165.268 68.9987 164.615 68.728 163.84 68.728C163.066 68.728 162.412 68.9987 161.88 69.54C161.348 70.072 161.082 70.7253 161.082 71.5C161.082 72.2747 161.348 72.9327 161.88 73.474ZM175.789 68V75H174.865V69.414L172.415 73.39H172.303L169.853 69.414V75H168.929V68H169.993L172.359 71.836L174.725 68H175.789ZM185.419 71.402C186.184 71.682 186.567 72.228 186.567 73.04C186.567 73.6093 186.376 74.0807 185.993 74.454C185.62 74.818 185.078 75 184.369 75H180.967V68H184.089C184.77 68 185.298 68.1773 185.671 68.532C186.044 68.8773 186.231 69.3253 186.231 69.876C186.231 70.576 185.96 71.0847 185.419 71.402ZM184.089 68.896H181.891V71.024H184.089C184.901 71.024 185.307 70.66 185.307 69.932C185.307 69.6053 185.2 69.3533 184.985 69.176C184.78 68.9893 184.481 68.896 184.089 68.896ZM184.369 74.104C184.78 74.104 185.092 74.006 185.307 73.81C185.531 73.614 185.643 73.3387 185.643 72.984C185.643 72.6573 185.531 72.4007 185.307 72.214C185.092 72.018 184.78 71.92 184.369 71.92H181.891V74.104H184.369ZM191.579 67.832C192.578 67.832 193.427 68.1867 194.127 68.896C194.836 69.6053 195.191 70.4733 195.191 71.5C195.191 72.5267 194.836 73.3947 194.127 74.104C193.427 74.8133 192.578 75.168 191.579 75.168C190.338 75.168 189.395 74.6547 188.751 73.628V77.8H187.827V68H188.751V69.372C189.395 68.3453 190.338 67.832 191.579 67.832ZM189.549 73.474C190.081 74.006 190.734 74.272 191.509 74.272C192.284 74.272 192.937 74.006 193.469 73.474C194.001 72.9327 194.267 72.2747 194.267 71.5C194.267 70.7253 194.001 70.072 193.469 69.54C192.937 68.9987 192.284 68.728 191.509 68.728C190.734 68.728 190.081 68.9987 189.549 69.54C189.017 70.072 188.751 70.7253 188.751 71.5C188.751 72.2747 189.017 72.9327 189.549 73.474ZM199.821 67.832C200.857 67.832 201.693 68.2007 202.327 68.938C202.971 69.666 203.293 70.5293 203.293 71.528C203.293 71.6307 203.284 71.7753 203.265 71.962H197.119C197.213 72.6713 197.511 73.236 198.015 73.656C198.529 74.0667 199.159 74.272 199.905 74.272C200.437 74.272 200.895 74.1647 201.277 73.95C201.669 73.726 201.963 73.4367 202.159 73.082L202.971 73.558C202.663 74.0527 202.243 74.4447 201.711 74.734C201.179 75.0233 200.573 75.168 199.891 75.168C198.79 75.168 197.894 74.8227 197.203 74.132C196.513 73.4413 196.167 72.564 196.167 71.5C196.167 70.4547 196.508 69.582 197.189 68.882C197.871 68.182 198.748 67.832 199.821 67.832ZM199.821 68.728C199.093 68.728 198.482 68.9473 197.987 69.386C197.502 69.8153 197.213 70.3753 197.119 71.066H202.341C202.248 70.3287 201.963 69.7547 201.487 69.344C201.011 68.9333 200.456 68.728 199.821 68.728ZM211.483 68V75H210.559V69.414L208.109 73.39H207.997L205.547 69.414V75H204.623V68H205.687L208.053 71.836L210.419 68H211.483ZM216.535 67.832C217.571 67.832 218.407 68.2007 219.041 68.938C219.685 69.666 220.007 70.5293 220.007 71.528C220.007 71.6307 219.998 71.7753 219.979 71.962H213.833C213.927 72.6713 214.225 73.236 214.729 73.656C215.243 74.0667 215.873 74.272 216.619 74.272C217.151 74.272 217.609 74.1647 217.991 73.95C218.383 73.726 218.677 73.4367 218.873 73.082L219.685 73.558C219.377 74.0527 218.957 74.4447 218.425 74.734C217.893 75.0233 217.287 75.168 216.605 75.168C215.504 75.168 214.608 74.8227 213.917 74.132C213.227 73.4413 212.881 72.564 212.881 71.5C212.881 70.4547 213.222 69.582 213.903 68.882C214.585 68.182 215.462 67.832 216.535 67.832ZM216.535 68.728C215.807 68.728 215.196 68.9473 214.701 69.386C214.216 69.8153 213.927 70.3753 213.833 71.066H219.055C218.962 70.3287 218.677 69.7547 218.201 69.344C217.725 68.9333 217.17 68.728 216.535 68.728ZM226.293 68H227.217V75H226.293V71.948H222.261V75H221.337V68H222.261V71.052H226.293V68ZM234.127 68H234.911V75H233.987V69.61L229.815 75H229.031V68H229.955V73.39L234.127 68ZM237.901 69.176C237.752 69.3253 237.57 69.4 237.355 69.4C237.141 69.4 236.959 69.3253 236.809 69.176C236.66 69.0267 236.585 68.8447 236.585 68.63C236.585 68.4153 236.66 68.2333 236.809 68.084C236.959 67.9347 237.141 67.86 237.355 67.86C237.57 67.86 237.752 67.9347 237.901 68.084C238.051 68.2333 238.125 68.4153 238.125 68.63C238.125 68.8447 238.051 69.0267 237.901 69.176ZM237.901 74.916C237.752 75.0653 237.57 75.14 237.355 75.14C237.141 75.14 236.959 75.0653 236.809 74.916C236.66 74.7667 236.585 74.5847 236.585 74.37C236.585 74.1553 236.66 73.9733 236.809 73.824C236.959 73.6747 237.141 73.6 237.355 73.6C237.57 73.6 237.752 73.6747 237.901 73.824C238.051 73.9733 238.125 74.1553 238.125 74.37C238.125 74.5847 238.051 74.7667 237.901 74.916ZM246.434 75.168C245.379 75.168 244.502 74.818 243.802 74.118C243.102 73.4087 242.752 72.536 242.752 71.5C242.752 70.464 243.102 69.596 243.802 68.896C244.502 68.1867 245.379 67.832 246.434 67.832C247.124 67.832 247.745 68 248.296 68.336C248.846 68.6627 249.248 69.106 249.5 69.666L248.744 70.1C248.557 69.68 248.254 69.3487 247.834 69.106C247.423 68.854 246.956 68.728 246.434 68.728C245.659 68.728 245.006 68.9987 244.474 69.54C243.942 70.072 243.676 70.7253 243.676 71.5C243.676 72.2747 243.942 72.9327 244.474 73.474C245.006 74.006 245.659 74.272 246.434 74.272C246.956 74.272 247.423 74.1507 247.834 73.908C248.244 73.656 248.566 73.32 248.8 72.9L249.57 73.348C249.28 73.908 248.856 74.3513 248.296 74.678C247.736 75.0047 247.115 75.168 246.434 75.168ZM256.412 75H255.18L251.68 71.626V75H250.756V68H251.68V71.094L255.012 68H256.272L252.66 71.36L256.412 75ZM262.703 74.118C261.994 74.818 261.126 75.168 260.099 75.168C259.072 75.168 258.2 74.818 257.481 74.118C256.772 73.4087 256.417 72.536 256.417 71.5C256.417 70.464 256.772 69.596 257.481 68.896C258.2 68.1867 259.072 67.832 260.099 67.832C261.126 67.832 261.994 68.1867 262.703 68.896C263.422 69.596 263.781 70.464 263.781 71.5C263.781 72.536 263.422 73.4087 262.703 74.118ZM258.139 73.474C258.671 74.006 259.324 74.272 260.099 74.272C260.874 74.272 261.527 74.006 262.059 73.474C262.591 72.9327 262.857 72.2747 262.857 71.5C262.857 70.7253 262.591 70.072 262.059 69.54C261.527 68.9987 260.874 68.728 260.099 68.728C259.324 68.728 258.671 68.9987 258.139 69.54C257.607 70.072 257.341 70.7253 257.341 71.5C257.341 72.2747 257.607 72.9327 258.139 73.474ZM268.939 67.832C269.938 67.832 270.787 68.1867 271.487 68.896C272.197 69.6053 272.551 70.4733 272.551 71.5C272.551 72.5267 272.197 73.3947 271.487 74.104C270.787 74.8133 269.938 75.168 268.939 75.168C267.698 75.168 266.755 74.6547 266.111 73.628V77.8H265.187V68H266.111V69.372C266.755 68.3453 267.698 67.832 268.939 67.832ZM266.909 73.474C267.441 74.006 268.095 74.272 268.869 74.272C269.644 74.272 270.297 74.006 270.829 73.474C271.361 72.9327 271.627 72.2747 271.627 71.5C271.627 70.7253 271.361 70.072 270.829 69.54C270.297 68.9987 269.644 68.728 268.869 68.728C268.095 68.728 267.441 68.9987 266.909 69.54C266.377 70.072 266.111 70.7253 266.111 71.5C266.111 72.2747 266.377 72.9327 266.909 73.474ZM279.814 74.118C279.104 74.818 278.236 75.168 277.21 75.168C276.183 75.168 275.31 74.818 274.592 74.118C273.882 73.4087 273.528 72.536 273.528 71.5C273.528 70.464 273.882 69.596 274.592 68.896C275.31 68.1867 276.183 67.832 277.21 67.832C278.236 67.832 279.104 68.1867 279.814 68.896C280.532 69.596 280.892 70.464 280.892 71.5C280.892 72.536 280.532 73.4087 279.814 74.118ZM275.25 73.474C275.782 74.006 276.435 74.272 277.21 74.272C277.984 74.272 278.638 74.006 279.17 73.474C279.702 72.9327 279.968 72.2747 279.968 71.5C279.968 70.7253 279.702 70.072 279.17 69.54C278.638 68.9987 277.984 68.728 277.21 68.728C276.435 68.728 275.782 68.9987 275.25 69.54C274.718 70.072 274.452 70.7253 274.452 71.5C274.452 72.2747 274.718 72.9327 275.25 73.474ZM285.56 75.168C284.505 75.168 283.628 74.818 282.928 74.118C282.228 73.4087 281.878 72.536 281.878 71.5C281.878 70.464 282.228 69.596 282.928 68.896C283.628 68.1867 284.505 67.832 285.56 67.832C286.251 67.832 286.871 68 287.422 68.336C287.973 68.6627 288.374 69.106 288.626 69.666L287.87 70.1C287.683 69.68 287.38 69.3487 286.96 69.106C286.549 68.854 286.083 68.728 285.56 68.728C284.785 68.728 284.132 68.9987 283.6 69.54C283.068 70.072 282.802 70.7253 282.802 71.5C282.802 72.2747 283.068 72.9327 283.6 73.474C284.132 74.006 284.785 74.272 285.56 74.272C286.083 74.272 286.549 74.1507 286.96 73.908C287.371 73.656 287.693 73.32 287.926 72.9L288.696 73.348C288.407 73.908 287.982 74.3513 287.422 74.678C286.862 75.0047 286.241 75.168 285.56 75.168ZM294.786 68V68.896H292.308V75H291.384V68.896H288.906V68H294.786ZM298.614 70.66C299.267 70.66 299.818 70.8653 300.266 71.276C300.723 71.6773 300.952 72.1953 300.952 72.83C300.952 73.4647 300.723 73.9873 300.266 74.398C299.818 74.7993 299.267 75 298.614 75H295.772V68H296.696V70.66H298.614ZM298.614 74.104C299.006 74.104 299.337 73.9873 299.608 73.754C299.888 73.5207 300.028 73.2127 300.028 72.83C300.028 72.4473 299.888 72.1393 299.608 71.906C299.337 71.6727 299.006 71.556 298.614 71.556H296.696V74.104H298.614ZM303.611 73.81L302.771 76.96H301.931L302.491 73.81H303.611ZM312.407 67.832C313.405 67.832 314.255 68.1867 314.955 68.896C315.664 69.6053 316.019 70.4733 316.019 71.5C316.019 72.5267 315.664 73.3947 314.955 74.104C314.255 74.8133 313.405 75.168 312.407 75.168C311.165 75.168 310.223 74.6547 309.579 73.628V77.8H308.655V68H309.579V69.372C310.223 68.3453 311.165 67.832 312.407 67.832ZM310.377 73.474C310.909 74.006 311.562 74.272 312.337 74.272C313.111 74.272 313.765 74.006 314.297 73.474C314.829 72.9327 315.095 72.2747 315.095 71.5C315.095 70.7253 314.829 70.072 314.297 69.54C313.765 68.9987 313.111 68.728 312.337 68.728C311.562 68.728 310.909 68.9987 310.377 69.54C309.845 70.072 309.579 70.7253 309.579 71.5C309.579 72.2747 309.845 72.9327 310.377 73.474ZM320.649 67.832C321.685 67.832 322.52 68.2007 323.155 68.938C323.799 69.666 324.121 70.5293 324.121 71.528C324.121 71.6307 324.112 71.7753 324.093 71.962H317.947C318.04 72.6713 318.339 73.236 318.843 73.656C319.356 74.0667 319.986 74.272 320.733 74.272C321.265 74.272 321.722 74.1647 322.105 73.95C322.497 73.726 322.791 73.4367 322.987 73.082L323.799 73.558C323.491 74.0527 323.071 74.4447 322.539 74.734C322.007 75.0233 321.4 75.168 320.719 75.168C319.618 75.168 318.722 74.8227 318.031 74.132C317.34 73.4413 316.995 72.564 316.995 71.5C316.995 70.4547 317.336 69.582 318.017 68.882C318.698 68.182 319.576 67.832 320.649 67.832ZM320.649 68.728C319.921 68.728 319.31 68.9473 318.815 69.386C318.33 69.8153 318.04 70.3753 317.947 71.066H323.169C323.076 70.3287 322.791 69.7547 322.315 69.344C321.839 68.9333 321.284 68.728 320.649 68.728ZM333.203 75H332.083L329.227 71.626V75H328.303V71.626L325.447 75H324.327L327.463 71.36L324.467 68H325.587L328.303 71.108V68H329.227V71.108L331.943 68H333.063L330.067 71.36L333.203 75ZM339.417 68H340.201V75H339.277V69.61L335.105 75H334.321V68H335.245V73.39L339.417 68ZM348.875 68V75H347.951V69.414L345.501 73.39H345.389L342.939 69.414V75H342.015V68H343.079L345.445 71.836L347.811 68H348.875ZM352.233 73.81L351.393 76.96H350.553L351.113 73.81H352.233ZM360.888 71.402C361.7 71.71 362.106 72.27 362.106 73.082C362.106 73.6607 361.878 74.1553 361.42 74.566C360.972 74.9673 360.328 75.168 359.488 75.168C358.079 75.168 357.155 74.608 356.716 73.488L357.5 73.026C357.79 73.8567 358.452 74.272 359.488 74.272C360.03 74.272 360.445 74.1553 360.734 73.922C361.033 73.6887 361.182 73.39 361.182 73.026C361.182 72.6993 361.061 72.4333 360.818 72.228C360.576 72.0227 360.249 71.92 359.838 71.92H358.816V71.024H359.558C359.96 71.024 360.272 70.926 360.496 70.73C360.73 70.5247 360.846 70.2447 360.846 69.89C360.846 69.554 360.711 69.2787 360.44 69.064C360.17 68.84 359.806 68.728 359.348 68.728C358.471 68.728 357.888 69.078 357.598 69.778L356.828 69.33C357.295 68.3313 358.135 67.832 359.348 67.832C360.086 67.832 360.674 68.028 361.112 68.42C361.551 68.8027 361.77 69.274 361.77 69.834C361.77 70.5527 361.476 71.0753 360.888 71.402ZM369.391 68H370.315V75H369.391V73.628C368.747 74.6547 367.804 75.168 366.563 75.168C365.564 75.168 364.71 74.8133 364.001 74.104C363.301 73.3947 362.951 72.5267 362.951 71.5C362.951 70.4733 363.301 69.6053 364.001 68.896C364.71 68.1867 365.564 67.832 366.563 67.832C367.804 67.832 368.747 68.3453 369.391 69.372V68ZM364.673 73.474C365.205 74.006 365.858 74.272 366.633 74.272C367.407 74.272 368.061 74.006 368.593 73.474C369.125 72.9327 369.391 72.2747 369.391 71.5C369.391 70.7253 369.125 70.072 368.593 69.54C368.061 68.9987 367.407 68.728 366.633 68.728C365.858 68.728 365.205 68.9987 364.673 69.54C364.141 70.072 363.875 70.7253 363.875 71.5C363.875 72.2747 364.141 72.9327 364.673 73.474ZM375.883 67.832C376.882 67.832 377.731 68.1867 378.431 68.896C379.14 69.6053 379.495 70.4733 379.495 71.5C379.495 72.5267 379.14 73.3947 378.431 74.104C377.731 74.8133 376.882 75.168 375.883 75.168C374.642 75.168 373.699 74.6547 373.055 73.628V77.8H372.131V68H373.055V69.372C373.699 68.3453 374.642 67.832 375.883 67.832ZM373.853 73.474C374.385 74.006 375.038 74.272 375.813 74.272C376.588 74.272 377.241 74.006 377.773 73.474C378.305 72.9327 378.571 72.2747 378.571 71.5C378.571 70.7253 378.305 70.072 377.773 69.54C377.241 68.9987 376.588 68.728 375.813 68.728C375.038 68.728 374.385 68.9987 373.853 69.54C373.321 70.072 373.055 70.7253 373.055 71.5C373.055 72.2747 373.321 72.9327 373.853 73.474ZM385.658 68V75H384.734V72.312H383.53L381.374 75H380.198L382.41 72.284C381.85 72.2 381.388 71.9667 381.024 71.584C380.66 71.2013 380.478 70.73 380.478 70.17C380.478 69.5353 380.702 69.0173 381.15 68.616C381.607 68.2053 382.163 68 382.816 68H385.658ZM382.816 71.444H384.734V68.896H382.816C382.424 68.896 382.088 69.0127 381.808 69.246C381.537 69.4793 381.402 69.7873 381.402 70.17C381.402 70.5527 381.537 70.8607 381.808 71.094C382.088 71.3273 382.424 71.444 382.816 71.444ZM393.358 74.104H394.338V76.876H393.414V75H387.702V76.876H386.778V74.104H387.632C388.108 73.4787 388.346 72.5967 388.346 71.458V68H393.358V74.104ZM388.752 74.104H392.434V68.896H389.27V71.458C389.27 72.5313 389.097 73.4133 388.752 74.104ZM7 89H7.924V96H7V94.628C6.356 95.6547 5.41333 96.168 4.172 96.168C3.17333 96.168 2.31933 95.8133 1.61 95.104C0.91 94.3947 0.56 93.5267 0.56 92.5C0.56 91.4733 0.91 90.6053 1.61 89.896C2.31933 89.1867 3.17333 88.832 4.172 88.832C5.41333 88.832 6.356 89.3453 7 90.372V89ZM2.282 94.474C2.814 95.006 3.46733 95.272 4.242 95.272C5.01667 95.272 5.67 95.006 6.202 94.474C6.734 93.9327 7 93.2747 7 92.5C7 91.7253 6.734 91.072 6.202 90.54C5.67 89.9987 5.01667 89.728 4.242 89.728C3.46733 89.728 2.814 89.9987 2.282 90.54C1.75 91.072 1.484 91.7253 1.484 92.5C1.484 93.2747 1.75 93.9327 2.282 94.474ZM15.3964 96H14.1644L10.6644 92.626V96H9.74039V89H10.6644V92.094L13.9964 89H15.2564L11.6444 92.36L15.3964 96ZM22.1744 96H20.9424L17.4424 92.626V96H16.5184V89H17.4424V92.094L20.7744 89H22.0344L18.4224 92.36L22.1744 96ZM28.0629 89H29.0429L26.0469 96.644C25.7762 97.3347 25.3889 97.876 24.8849 98.268C24.3902 98.6693 23.8349 98.8467 23.2189 98.8V97.932C24.0589 98.0253 24.6982 97.54 25.1369 96.476L25.3189 96.042L22.1829 89H23.1629L25.7949 94.866L28.0629 89ZM36.8796 89V96H35.9556V90.414L33.5056 94.39H33.3936L30.9436 90.414V96H30.0196V89H31.0836L33.4496 92.836L35.8156 89H36.8796ZM43.738 89H44.718L41.722 96.644C41.4513 97.3347 41.064 97.876 40.56 98.268C40.0653 98.6693 39.51 98.8467 38.894 98.8V97.932C39.734 98.0253 40.3733 97.54 40.812 96.476L40.994 96.042L37.858 89H38.838L41.47 94.866L43.738 89ZM51.0109 89V96H50.0869V89.896H46.9229V93.018C46.9229 94.1847 46.6989 94.9873 46.2509 95.426C45.8122 95.8647 45.2055 96.056 44.4309 96V95.132C44.9629 95.188 45.3549 95.062 45.6069 94.754C45.8682 94.446 45.9989 93.8673 45.9989 93.018V89H51.0109ZM57.8681 89V96H56.9441V93.312H55.7401L53.5841 96H52.4081L54.6201 93.284C54.0601 93.2 53.5981 92.9667 53.2341 92.584C52.8701 92.2013 52.6881 91.73 52.6881 91.17C52.6881 90.5353 52.9121 90.0173 53.3601 89.616C53.8175 89.2053 54.3728 89 55.0261 89H57.8681ZM55.0261 92.444H56.9441V89.896H55.0261C54.6341 89.896 54.2981 90.0127 54.0181 90.246C53.7475 90.4793 53.6121 90.7873 53.6121 91.17C53.6121 91.5527 53.7475 91.8607 54.0181 92.094C54.2981 92.3273 54.6341 92.444 55.0261 92.444ZM64.7281 89V89.896H62.2501V96H61.3261V89.896H58.8481V89H64.7281ZM71.3067 95.118C70.5974 95.818 69.7294 96.168 68.7027 96.168C67.676 96.168 66.8034 95.818 66.0847 95.118C65.3754 94.4087 65.0207 93.536 65.0207 92.5C65.0207 91.464 65.3754 90.596 66.0847 89.896C66.8034 89.1867 67.676 88.832 68.7027 88.832C69.7294 88.832 70.5974 89.1867 71.3067 89.896C72.0254 90.596 72.3847 91.464 72.3847 92.5C72.3847 93.536 72.0254 94.4087 71.3067 95.118ZM66.7427 94.474C67.2747 95.006 67.928 95.272 68.7027 95.272C69.4774 95.272 70.1307 95.006 70.6627 94.474C71.1947 93.9327 71.4607 93.2747 71.4607 92.5C71.4607 91.7253 71.1947 91.072 70.6627 90.54C70.1307 89.9987 69.4774 89.728 68.7027 89.728C67.928 89.728 67.2747 89.9987 66.7427 90.54C66.2107 91.072 65.9447 91.7253 65.9447 92.5C65.9447 93.2747 66.2107 93.9327 66.7427 94.474ZM77.5429 88.832C78.5416 88.832 79.3909 89.1867 80.0909 89.896C80.8003 90.6053 81.1549 91.4733 81.1549 92.5C81.1549 93.5267 80.8003 94.3947 80.0909 95.104C79.3909 95.8133 78.5416 96.168 77.5429 96.168C76.3016 96.168 75.3589 95.6547 74.7149 94.628V98.8H73.7909V89H74.7149V90.372C75.3589 89.3453 76.3016 88.832 77.5429 88.832ZM75.5129 94.474C76.0449 95.006 76.6983 95.272 77.4729 95.272C78.2476 95.272 78.9009 95.006 79.4329 94.474C79.9649 93.9327 80.2309 93.2747 80.2309 92.5C80.2309 91.7253 79.9649 91.072 79.4329 90.54C78.9009 89.9987 78.2476 89.728 77.4729 89.728C76.6983 89.728 76.0449 89.9987 75.5129 90.54C74.9809 91.072 74.7149 91.7253 74.7149 92.5C74.7149 93.2747 74.9809 93.9327 75.5129 94.474ZM88.5713 89H89.4953V96H88.5713V94.628C87.9273 95.6547 86.9847 96.168 85.7433 96.168C84.7447 96.168 83.8907 95.8133 83.1813 95.104C82.4813 94.3947 82.1313 93.5267 82.1313 92.5C82.1313 91.4733 82.4813 90.6053 83.1813 89.896C83.8907 89.1867 84.7447 88.832 85.7433 88.832C86.9847 88.832 87.9273 89.3453 88.5713 90.372V89ZM83.8533 94.474C84.3853 95.006 85.0387 95.272 85.8133 95.272C86.588 95.272 87.2413 95.006 87.7733 94.474C88.3053 93.9327 88.5713 93.2747 88.5713 92.5C88.5713 91.7253 88.3053 91.072 87.7733 90.54C87.2413 89.9987 86.588 89.728 85.8133 89.728C85.0387 89.728 84.3853 89.9987 83.8533 90.54C83.3213 91.072 83.0553 91.7253 83.0553 92.5C83.0553 93.2747 83.3213 93.9327 83.8533 94.474ZM92.8517 94.81L92.0117 97.96H91.1717L91.7317 94.81H92.8517ZM101.157 96.168C100.102 96.168 99.225 95.818 98.525 95.118C97.825 94.4087 97.475 93.536 97.475 92.5C97.475 91.464 97.825 90.596 98.525 89.896C99.225 89.1867 100.102 88.832 101.157 88.832C101.848 88.832 102.468 89 103.019 89.336C103.57 89.6627 103.971 90.106 104.223 90.666L103.467 91.1C103.28 90.68 102.977 90.3487 102.557 90.106C102.146 89.854 101.68 89.728 101.157 89.728C100.382 89.728 99.729 89.9987 99.197 90.54C98.665 91.072 98.399 91.7253 98.399 92.5C98.399 93.2747 98.665 93.9327 99.197 94.474C99.729 95.006 100.382 95.272 101.157 95.272C101.68 95.272 102.146 95.1507 102.557 94.908C102.968 94.656 103.29 94.32 103.523 93.9L104.293 94.348C104.004 94.908 103.579 95.3513 103.019 95.678C102.459 96.0047 101.838 96.168 101.157 96.168ZM111.277 95.118C110.568 95.818 109.7 96.168 108.673 96.168C107.647 96.168 106.774 95.818 106.055 95.118C105.346 94.4087 104.991 93.536 104.991 92.5C104.991 91.464 105.346 90.596 106.055 89.896C106.774 89.1867 107.647 88.832 108.673 88.832C109.7 88.832 110.568 89.1867 111.277 89.896C111.996 90.596 112.355 91.464 112.355 92.5C112.355 93.536 111.996 94.4087 111.277 95.118ZM106.713 94.474C107.245 95.006 107.899 95.272 108.673 95.272C109.448 95.272 110.101 95.006 110.633 94.474C111.165 93.9327 111.431 93.2747 111.431 92.5C111.431 91.7253 111.165 91.072 110.633 90.54C110.101 89.9987 109.448 89.728 108.673 89.728C107.899 89.728 107.245 89.9987 106.713 90.54C106.181 91.072 105.915 91.7253 105.915 92.5C105.915 93.2747 106.181 93.9327 106.713 94.474ZM117.023 96.168C115.969 96.168 115.091 95.818 114.391 95.118C113.691 94.4087 113.341 93.536 113.341 92.5C113.341 91.464 113.691 90.596 114.391 89.896C115.091 89.1867 115.969 88.832 117.023 88.832C117.714 88.832 118.335 89 118.885 89.336C119.436 89.6627 119.837 90.106 120.089 90.666L119.333 91.1C119.147 90.68 118.843 90.3487 118.423 90.106C118.013 89.854 117.546 89.728 117.023 89.728C116.249 89.728 115.595 89.9987 115.063 90.54C114.531 91.072 114.265 91.7253 114.265 92.5C114.265 93.2747 114.531 93.9327 115.063 94.474C115.595 95.006 116.249 95.272 117.023 95.272C117.546 95.272 118.013 95.1507 118.423 94.908C118.834 94.656 119.156 94.32 119.389 93.9L120.159 94.348C119.87 94.908 119.445 95.3513 118.885 95.678C118.325 96.0047 117.705 96.168 117.023 96.168ZM126.249 89V89.896H123.771V96H122.847V89.896H120.369V89H126.249ZM132.828 95.118C132.119 95.818 131.251 96.168 130.224 96.168C129.197 96.168 128.325 95.818 127.606 95.118C126.897 94.4087 126.542 93.536 126.542 92.5C126.542 91.464 126.897 90.596 127.606 89.896C128.325 89.1867 129.197 88.832 130.224 88.832C131.251 88.832 132.119 89.1867 132.828 89.896C133.547 90.596 133.906 91.464 133.906 92.5C133.906 93.536 133.547 94.4087 132.828 95.118ZM128.264 94.474C128.796 95.006 129.449 95.272 130.224 95.272C130.999 95.272 131.652 95.006 132.184 94.474C132.716 93.9327 132.982 93.2747 132.982 92.5C132.982 91.7253 132.716 91.072 132.184 90.54C131.652 89.9987 130.999 89.728 130.224 89.728C129.449 89.728 128.796 89.9987 128.264 90.54C127.732 91.072 127.466 91.7253 127.466 92.5C127.466 93.2747 127.732 93.9327 128.264 94.474ZM140.079 89V96H139.155V93.312H137.951L135.795 96H134.619L136.831 93.284C136.271 93.2 135.809 92.9667 135.445 92.584C135.081 92.2013 134.899 91.73 134.899 91.17C134.899 90.5353 135.123 90.0173 135.571 89.616C136.028 89.2053 136.583 89 137.237 89H140.079ZM137.237 92.444H139.155V89.896H137.237C136.845 89.896 136.509 90.0127 136.229 90.246C135.958 90.4793 135.823 90.7873 135.823 91.17C135.823 91.5527 135.958 91.8607 136.229 92.094C136.509 92.3273 136.845 92.444 137.237 92.444ZM146.855 89H147.779V96H146.855V92.948H142.823V96H141.899V89H142.823V92.052H146.855V89ZM154.689 89H155.473V96H154.549V90.61L150.377 96H149.593V89H150.517V94.39L154.689 89ZM160.521 88.832C161.557 88.832 162.392 89.2007 163.027 89.938C163.671 90.666 163.993 91.5293 163.993 92.528C163.993 92.6307 163.983 92.7753 163.965 92.962H157.819C157.912 93.6713 158.211 94.236 158.715 94.656C159.228 95.0667 159.858 95.272 160.605 95.272C161.137 95.272 161.594 95.1647 161.977 94.95C162.369 94.726 162.663 94.4367 162.859 94.082L163.671 94.558C163.363 95.0527 162.943 95.4447 162.411 95.734C161.879 96.0233 161.272 96.168 160.591 96.168C159.489 96.168 158.593 95.8227 157.903 95.132C157.212 94.4413 156.867 93.564 156.867 92.5C156.867 91.4547 157.207 90.582 157.889 89.882C158.57 89.182 159.447 88.832 160.521 88.832ZM160.521 89.728C159.793 89.728 159.181 89.9473 158.687 90.386C158.201 90.8153 157.912 91.3753 157.819 92.066H163.041C162.947 91.3287 162.663 90.7547 162.187 90.344C161.711 89.9333 161.155 89.728 160.521 89.728ZM171.79 96.168C170.782 96.168 169.942 95.8367 169.27 95.174C168.598 94.502 168.262 93.634 168.262 92.57C168.262 91.3753 168.44 90.4607 168.794 89.826C169.149 89.182 169.868 88.5987 170.95 88.076C171.156 87.9733 171.426 87.852 171.762 87.712C172.108 87.572 172.364 87.46 172.532 87.376C172.71 87.292 172.901 87.1847 173.106 87.054C173.312 86.914 173.466 86.76 173.568 86.592C173.671 86.424 173.736 86.2233 173.764 85.99L174.492 86.41C174.455 86.634 174.38 86.844 174.268 87.04C174.156 87.236 174.04 87.3947 173.918 87.516C173.806 87.6373 173.624 87.7727 173.372 87.922C173.13 88.062 172.938 88.1647 172.798 88.23C172.668 88.286 172.434 88.384 172.098 88.524C171.772 88.664 171.552 88.7573 171.44 88.804C170.787 89.084 170.306 89.378 169.998 89.686C169.69 89.9847 169.471 90.3767 169.34 90.862C169.658 90.442 170.059 90.134 170.544 89.938C171.039 89.7327 171.52 89.63 171.986 89.63C172.92 89.63 173.69 89.938 174.296 90.554C174.912 91.1607 175.22 91.94 175.22 92.892C175.22 93.8347 174.894 94.6187 174.24 95.244C173.596 95.86 172.78 96.168 171.79 96.168ZM171.79 95.244C172.518 95.244 173.116 95.0247 173.582 94.586C174.058 94.138 174.296 93.5733 174.296 92.892C174.296 92.2013 174.072 91.6367 173.624 91.198C173.186 90.75 172.598 90.526 171.86 90.526C171.198 90.526 170.596 90.736 170.054 91.156C169.513 91.5667 169.242 92.1173 169.242 92.808C169.242 93.5173 169.485 94.1007 169.97 94.558C170.465 95.0153 171.072 95.244 171.79 95.244ZM181.952 89V96H181.028V89.896H177.864V93.018C177.864 94.1847 177.64 94.9873 177.192 95.426C176.754 95.8647 176.147 96.056 175.372 96V95.132C175.904 95.188 176.296 95.062 176.548 94.754C176.81 94.446 176.94 93.8673 176.94 93.018V89H181.952ZM189.636 95.118C188.926 95.818 188.058 96.168 187.032 96.168C186.005 96.168 185.132 95.818 184.414 95.118C183.704 94.4087 183.35 93.536 183.35 92.5C183.35 91.464 183.704 90.596 184.414 89.896C185.132 89.1867 186.005 88.832 187.032 88.832C188.058 88.832 188.926 89.1867 189.636 89.896C190.354 90.596 190.714 91.464 190.714 92.5C190.714 93.536 190.354 94.4087 189.636 95.118ZM185.072 94.474C185.604 95.006 186.257 95.272 187.032 95.272C187.806 95.272 188.46 95.006 188.992 94.474C189.524 93.9327 189.79 93.2747 189.79 92.5C189.79 91.7253 189.524 91.072 188.992 90.54C188.46 89.9987 187.806 89.728 187.032 89.728C186.257 89.728 185.604 89.9987 185.072 90.54C184.54 91.072 184.274 91.7253 184.274 92.5C184.274 93.2747 184.54 93.9327 185.072 94.474ZM197.776 96H196.544L193.044 92.626V96H192.12V89H193.044V92.094L196.376 89H197.636L194.024 92.36L197.776 96ZM203.994 89H204.778V96H203.854V90.61L199.682 96H198.898V89H199.822V94.39L203.994 89ZM210.344 88.832C211.343 88.832 212.192 89.1867 212.892 89.896C213.601 90.6053 213.956 91.4733 213.956 92.5C213.956 93.5267 213.601 94.3947 212.892 95.104C212.192 95.8133 211.343 96.168 210.344 96.168C209.103 96.168 208.16 95.6547 207.516 94.628V98.8H206.592V89H207.516V90.372C208.16 89.3453 209.103 88.832 210.344 88.832ZM208.314 94.474C208.846 95.006 209.499 95.272 210.274 95.272C211.049 95.272 211.702 95.006 212.234 94.474C212.766 93.9327 213.032 93.2747 213.032 92.5C213.032 91.7253 212.766 91.072 212.234 90.54C211.702 89.9987 211.049 89.728 210.274 89.728C209.499 89.728 208.846 89.9987 208.314 90.54C207.782 91.072 207.516 91.7253 207.516 92.5C207.516 93.2747 207.782 93.9327 208.314 94.474ZM221.218 95.118C220.509 95.818 219.641 96.168 218.614 96.168C217.588 96.168 216.715 95.818 215.996 95.118C215.287 94.4087 214.932 93.536 214.932 92.5C214.932 91.464 215.287 90.596 215.996 89.896C216.715 89.1867 217.588 88.832 218.614 88.832C219.641 88.832 220.509 89.1867 221.218 89.896C221.937 90.596 222.296 91.464 222.296 92.5C222.296 93.536 221.937 94.4087 221.218 95.118ZM216.654 94.474C217.186 95.006 217.84 95.272 218.614 95.272C219.389 95.272 220.042 95.006 220.574 94.474C221.106 93.9327 221.372 93.2747 221.372 92.5C221.372 91.7253 221.106 91.072 220.574 90.54C220.042 89.9987 219.389 89.728 218.614 89.728C217.84 89.728 217.186 89.9987 216.654 90.54C216.122 91.072 215.856 91.7253 215.856 92.5C215.856 93.2747 216.122 93.9327 216.654 94.474ZM228.155 92.402C228.92 92.682 229.303 93.228 229.303 94.04C229.303 94.6093 229.111 95.0807 228.729 95.454C228.355 95.818 227.814 96 227.105 96H223.703V89H226.825C227.506 89 228.033 89.1773 228.407 89.532C228.78 89.8773 228.967 90.3253 228.967 90.876C228.967 91.576 228.696 92.0847 228.155 92.402ZM226.825 89.896H224.627V92.024H226.825C227.637 92.024 228.043 91.66 228.043 90.932C228.043 90.6053 227.935 90.3533 227.721 90.176C227.515 89.9893 227.217 89.896 226.825 89.896ZM227.105 95.104C227.515 95.104 227.828 95.006 228.043 94.81C228.267 94.614 228.379 94.3387 228.379 93.984C228.379 93.6573 228.267 93.4007 228.043 93.214C227.828 93.018 227.515 92.92 227.105 92.92H224.627V95.104H227.105ZM236.219 96H234.987L231.487 92.626V96H230.563V89H231.487V92.094L234.819 89H236.079L232.467 92.36L236.219 96ZM242.436 89H243.22V96H242.296V90.61L238.124 96H237.34V89H238.264V94.39L242.436 89ZM253.49 89H254.274V96H253.35V90.61L249.178 96H248.394V89H249.318V94.39L253.49 89ZM265.328 95.104H266.308V97.876H265.384V96H259.672V97.876H258.748V95.104H259.602C260.078 94.4787 260.316 93.5967 260.316 92.458V89H265.328V95.104ZM260.722 95.104H264.404V89.896H261.24V92.458C261.24 93.5313 261.068 94.4133 260.722 95.104ZM271.318 88.832C272.317 88.832 273.166 89.1867 273.866 89.896C274.576 90.6053 274.93 91.4733 274.93 92.5C274.93 93.5267 274.576 94.3947 273.866 95.104C273.166 95.8133 272.317 96.168 271.318 96.168C270.077 96.168 269.134 95.6547 268.49 94.628V98.8H267.566V89H268.49V90.372C269.134 89.3453 270.077 88.832 271.318 88.832ZM269.288 94.474C269.82 95.006 270.474 95.272 271.248 95.272C272.023 95.272 272.676 95.006 273.208 94.474C273.74 93.9327 274.006 93.2747 274.006 92.5C274.006 91.7253 273.74 91.072 273.208 90.54C272.676 89.9987 272.023 89.728 271.248 89.728C270.474 89.728 269.82 89.9987 269.288 90.54C268.756 91.072 268.49 91.7253 268.49 92.5C268.49 93.2747 268.756 93.9327 269.288 94.474ZM281.093 89H282.073L279.077 96.644C278.807 97.3347 278.419 97.876 277.915 98.268C277.421 98.6693 276.865 98.8467 276.249 98.8V97.932C277.089 98.0253 277.729 97.54 278.167 96.476L278.349 96.042L275.213 89H276.193L278.825 94.866L281.093 89ZM287.53 89V89.896H283.974V96H283.05V89H287.53ZM294.262 89H295.186V96H294.262V94.628C293.618 95.6547 292.675 96.168 291.434 96.168C290.435 96.168 289.581 95.8133 288.872 95.104C288.172 94.3947 287.822 93.5267 287.822 92.5C287.822 91.4733 288.172 90.6053 288.872 89.896C289.581 89.1867 290.435 88.832 291.434 88.832C292.675 88.832 293.618 89.3453 294.262 90.372V89ZM289.544 94.474C290.076 95.006 290.729 95.272 291.504 95.272C292.279 95.272 292.932 95.006 293.464 94.474C293.996 93.9327 294.262 93.2747 294.262 92.5C294.262 91.7253 293.996 91.072 293.464 90.54C292.932 89.9987 292.279 89.728 291.504 89.728C290.729 89.728 290.076 89.9987 289.544 90.54C289.012 91.072 288.746 91.7253 288.746 92.5C288.746 93.2747 289.012 93.9327 289.544 94.474ZM302.042 89V96H301.118V93.312H299.914L297.758 96H296.582L298.794 93.284C298.234 93.2 297.772 92.9667 297.408 92.584C297.044 92.2013 296.862 91.73 296.862 91.17C296.862 90.5353 297.086 90.0173 297.534 89.616C297.992 89.2053 298.547 89 299.2 89H302.042ZM299.2 92.444H301.118V89.896H299.2C298.808 89.896 298.472 90.0127 298.192 90.246C297.922 90.4793 297.786 90.7873 297.786 91.17C297.786 91.5527 297.922 91.8607 298.192 92.094C298.472 92.3273 298.808 92.444 299.2 92.444ZM312.318 89H313.102V96H312.178V90.61L308.006 96H307.222V89H308.146V94.39L312.318 89ZM319.872 89H320.796V96H319.872V92.948H315.84V96H314.916V89H315.84V92.052H319.872V89ZM329.442 90.008C330.114 90.6893 330.45 91.52 330.45 92.5C330.45 93.48 330.114 94.3107 329.442 94.992C328.77 95.6733 327.884 96.0607 326.782 96.154V98.8H325.858V96.154C324.757 96.0607 323.87 95.6733 323.198 94.992C322.526 94.3107 322.19 93.48 322.19 92.5C322.19 91.52 322.526 90.6893 323.198 90.008C323.87 89.3267 324.757 88.9393 325.858 88.846V86.2H326.782V88.846C327.884 88.9393 328.77 89.3267 329.442 90.008ZM323.856 90.652C323.362 91.156 323.114 91.772 323.114 92.5C323.114 93.228 323.362 93.8487 323.856 94.362C324.351 94.866 325.018 95.16 325.858 95.244V89.756C325.018 89.84 324.351 90.1387 323.856 90.652ZM326.782 95.244C327.622 95.16 328.29 94.866 328.784 94.362C329.279 93.8487 329.526 93.228 329.526 92.5C329.526 91.772 329.279 91.156 328.784 90.652C328.29 90.1387 327.622 89.84 326.782 89.756V95.244ZM337.715 95.118C337.006 95.818 336.138 96.168 335.111 96.168C334.085 96.168 333.212 95.818 332.493 95.118C331.784 94.4087 331.429 93.536 331.429 92.5C331.429 91.464 331.784 90.596 332.493 89.896C333.212 89.1867 334.085 88.832 335.111 88.832C336.138 88.832 337.006 89.1867 337.715 89.896C338.434 90.596 338.793 91.464 338.793 92.5C338.793 93.536 338.434 94.4087 337.715 95.118ZM333.151 94.474C333.683 95.006 334.337 95.272 335.111 95.272C335.886 95.272 336.539 95.006 337.071 94.474C337.603 93.9327 337.869 93.2747 337.869 92.5C337.869 91.7253 337.603 91.072 337.071 90.54C336.539 89.9987 335.886 89.728 335.111 89.728C334.337 89.728 333.683 89.9987 333.151 90.54C332.619 91.072 332.353 91.7253 332.353 92.5C332.353 93.2747 332.619 93.9327 333.151 94.474ZM343.951 88.832C344.95 88.832 345.799 89.1867 346.499 89.896C347.209 90.6053 347.563 91.4733 347.563 92.5C347.563 93.5267 347.209 94.3947 346.499 95.104C345.799 95.8133 344.95 96.168 343.951 96.168C342.71 96.168 341.767 95.6547 341.123 94.628V98.8H340.199V89H341.123V90.372C341.767 89.3453 342.71 88.832 343.951 88.832ZM341.921 94.474C342.453 95.006 343.107 95.272 343.881 95.272C344.656 95.272 345.309 95.006 345.841 94.474C346.373 93.9327 346.639 93.2747 346.639 92.5C346.639 91.7253 346.373 91.072 345.841 90.54C345.309 89.9987 344.656 89.728 343.881 89.728C343.107 89.728 342.453 89.9987 341.921 90.54C341.389 91.072 341.123 91.7253 341.123 92.5C341.123 93.2747 341.389 93.9327 341.921 94.474ZM355.82 89V96H354.896V90.414L352.446 94.39H352.334L349.884 90.414V96H348.96V89H350.024L352.39 92.836L354.756 89H355.82ZM363.658 89H364.582V96H363.658V94.628C363.014 95.6547 362.072 96.168 360.83 96.168C359.832 96.168 358.978 95.8133 358.268 95.104C357.568 94.3947 357.218 93.5267 357.218 92.5C357.218 91.4733 357.568 90.6053 358.268 89.896C358.978 89.1867 359.832 88.832 360.83 88.832C362.072 88.832 363.014 89.3453 363.658 90.372V89ZM358.94 94.474C359.472 95.006 360.126 95.272 360.9 95.272C361.675 95.272 362.328 95.006 362.86 94.474C363.392 93.9327 363.658 93.2747 363.658 92.5C363.658 91.7253 363.392 91.072 362.86 90.54C362.328 89.9987 361.675 89.728 360.9 89.728C360.126 89.728 359.472 89.9987 358.94 90.54C358.408 91.072 358.142 91.7253 358.142 92.5C358.142 93.2747 358.408 93.9327 358.94 94.474ZM372.139 95.104H373.259V97.876H372.335V96H366.399V89H367.323V95.104H371.215V89H372.139V95.104ZM379.612 89H380.396V96H379.472V90.61L375.3 96H374.516V89H375.44V94.39L379.612 89ZM387.25 89V96H386.326V93.312H385.122L382.966 96H381.79L384.002 93.284C383.442 93.2 382.98 92.9667 382.616 92.584C382.252 92.2013 382.07 91.73 382.07 91.17C382.07 90.5353 382.294 90.0173 382.742 89.616C383.2 89.2053 383.755 89 384.408 89H387.25ZM384.408 92.444H386.326V89.896H384.408C384.016 89.896 383.68 90.0127 383.4 90.246C383.13 90.4793 382.994 90.7873 382.994 91.17C382.994 91.5527 383.13 91.8607 383.4 92.094C383.68 92.3273 384.016 92.444 384.408 92.444ZM390.246 95.916C390.097 96.0653 389.915 96.14 389.7 96.14C389.486 96.14 389.304 96.0653 389.154 95.916C389.005 95.7667 388.93 95.5847 388.93 95.37C388.93 95.1553 389.005 94.9733 389.154 94.824C389.304 94.6747 389.486 94.6 389.7 94.6C389.915 94.6 390.097 94.6747 390.246 94.824C390.396 94.9733 390.47 95.1553 390.47 95.37C390.47 95.5847 390.396 95.7667 390.246 95.916Z" fill="#F1F1F1"/>
</svg>
