<svg width="440" height="102" viewBox="0 0 440 102" fill="none" xmlns="http://www.w3.org/2000/svg">
<path d="M14.8 5V19H12.5V9.02L8.24 16.06H7.96L3.7 9V19H1.4V5H3.88L8.1 12L12.34 5H14.8ZM24.6914 9H26.3514V19H24.2314V12.64L19.1114 19H17.4514V9H19.5714V15.34L24.6914 9ZM35.5977 9H37.7577V19H35.5977V15.02H31.0177V19H28.8577V9H31.0177V12.98H35.5977V9ZM47.5039 9H49.1639V19H47.0439V12.64L41.9239 19H40.2639V9H42.3839V15.34L47.5039 9ZM61.8702 9V19H59.7702V12.42L56.8902 17H56.6302L53.7702 12.44V19H51.6702V9H53.8702L56.7702 13.62L59.6702 9H61.8702ZM72.2855 9H74.4455V19H72.2855V17.56C71.4721 18.6933 70.3055 19.26 68.7855 19.26C67.4121 19.26 66.2388 18.7533 65.2655 17.74C64.2921 16.7133 63.8055 15.4667 63.8055 14C63.8055 12.52 64.2921 11.2733 65.2655 10.26C66.2388 9.24667 67.4121 8.74 68.7855 8.74C70.3055 8.74 71.4721 9.3 72.2855 10.42V9ZM66.8655 16.3C67.4655 16.9 68.2188 17.2 69.1255 17.2C70.0321 17.2 70.7855 16.9 71.3855 16.3C71.9855 15.6867 72.2855 14.92 72.2855 14C72.2855 13.08 71.9855 12.32 71.3855 11.72C70.7855 11.1067 70.0321 10.8 69.1255 10.8C68.2188 10.8 67.4655 11.1067 66.8655 11.72C66.2655 12.32 65.9655 13.08 65.9655 14C65.9655 14.92 66.2655 15.6867 66.8655 16.3ZM85.4031 9V19H83.2431V11.08H79.9031V14.8C79.9031 16.3867 79.5565 17.5133 78.8631 18.18C78.1698 18.8467 77.1831 19.12 75.9031 19V16.98C76.5165 17.0867 76.9765 16.96 77.2831 16.6C77.5898 16.24 77.7431 15.6067 77.7431 14.7V9H85.4031ZM95.1602 9H96.8202V19H94.7002V12.64L89.5802 19H87.9202V9H90.0402V15.34L95.1602 9ZM104.046 19.26C102.54 19.26 101.28 18.7533 100.266 17.74C99.2664 16.7267 98.7664 15.48 98.7664 14C98.7664 12.5067 99.2664 11.26 100.266 10.26C101.28 9.24667 102.54 8.74 104.046 8.74C105.02 8.74 105.906 8.97333 106.706 9.44C107.506 9.90667 108.106 10.5333 108.506 11.32L106.646 12.4C106.42 11.92 106.073 11.5467 105.606 11.28C105.153 11 104.626 10.86 104.026 10.86C103.146 10.86 102.406 11.16 101.806 11.76C101.22 12.36 100.926 13.1067 100.926 14C100.926 14.8933 101.22 15.64 101.806 16.24C102.406 16.84 103.146 17.14 104.026 17.14C104.613 17.14 105.14 17 105.606 16.72C106.086 16.44 106.446 16.0667 106.686 15.6L108.546 16.66C108.12 17.46 107.506 18.0933 106.706 18.56C105.906 19.0267 105.02 19.26 104.046 19.26ZM117.65 9V11.08H114.39V19H112.23V11.08H108.95V9H117.65ZM126.352 9H128.012V19H125.892V12.64L120.772 19H119.112V9H121.232V15.34L126.352 9ZM136.598 9H138.758V19H136.598V15.62C135.798 15.9133 134.958 16.06 134.078 16.06C132.838 16.06 131.858 15.7533 131.138 15.14C130.418 14.5267 130.058 13.6267 130.058 12.44V9H132.218V12.24C132.218 13.44 132.931 14.04 134.358 14.04C135.198 14.04 135.944 13.8867 136.598 13.58V9ZM148.02 9H150.18V19H148.02V15.02H143.44V19H141.28V9H143.44V12.98H148.02V9ZM157.046 12.4C158.112 12.4 158.986 12.7067 159.666 13.32C160.346 13.92 160.686 14.7133 160.686 15.7C160.686 16.6733 160.346 17.4667 159.666 18.08C158.986 18.6933 158.112 19 157.046 19H152.686V9H154.846V12.4H157.046ZM161.886 9H164.046V19H161.886V9ZM157.066 17.06C157.492 17.06 157.846 16.9333 158.126 16.68C158.419 16.4267 158.566 16.1 158.566 15.7C158.566 15.2867 158.419 14.96 158.126 14.72C157.846 14.4667 157.492 14.34 157.066 14.34H154.846V17.06H157.066ZM168.193 7.6V5.72H173.793V7.6H168.193ZM173.793 9H175.453V19H173.333V12.64L168.213 19H166.553V9H168.673V15.34L173.793 9ZM191.759 16.96H193.099V21.68H190.979V19H184.119V21.68H181.999V16.96H183.219C183.833 16.0933 184.139 14.8867 184.139 13.34V9H191.759V16.96ZM185.599 16.96H189.639V10.98H186.259V13.34C186.259 14.7667 186.039 15.9733 185.599 16.96ZM202.094 9H203.754V19H201.634V12.64L196.514 19H194.854V9H196.974V15.34L202.094 9ZM211.88 13.88C212.947 14.36 213.48 15.1533 213.48 16.26C213.48 17.1133 213.133 17.8267 212.44 18.4C211.747 18.9733 210.78 19.26 209.54 19.26C207.527 19.26 206.167 18.46 205.46 16.86L207.22 15.82C207.58 16.82 208.36 17.32 209.56 17.32C210.12 17.32 210.56 17.2067 210.88 16.98C211.2 16.74 211.36 16.4267 211.36 16.04C211.36 15.6933 211.233 15.42 210.98 15.22C210.727 15.0067 210.373 14.9 209.92 14.9H208.5V13H209.56C210 13 210.34 12.9 210.58 12.7C210.833 12.4867 210.96 12.2 210.96 11.84C210.96 11.4933 210.82 11.2133 210.54 11C210.26 10.7733 209.887 10.66 209.42 10.66C208.42 10.66 207.727 11.1 207.34 11.98L205.58 10.98C206.327 9.48667 207.593 8.74 209.38 8.74C210.5 8.74 211.387 9.02667 212.04 9.6C212.707 10.16 213.04 10.8467 213.04 11.66C213.04 12.66 212.653 13.4 211.88 13.88ZM223.164 9H225.324V19H223.164V17.56C222.351 18.6933 221.184 19.26 219.664 19.26C218.291 19.26 217.118 18.7533 216.144 17.74C215.171 16.7133 214.684 15.4667 214.684 14C214.684 12.52 215.171 11.2733 216.144 10.26C217.118 9.24667 218.291 8.74 219.664 8.74C221.184 8.74 222.351 9.3 223.164 10.42V9ZM217.744 16.3C218.344 16.9 219.098 17.2 220.004 17.2C220.911 17.2 221.664 16.9 222.264 16.3C222.864 15.6867 223.164 14.92 223.164 14C223.164 13.08 222.864 12.32 222.264 11.72C221.664 11.1067 220.911 10.8 220.004 10.8C219.098 10.8 218.344 11.1067 217.744 11.72C217.144 12.32 216.844 13.08 216.844 14C216.844 14.92 217.144 15.6867 217.744 16.3ZM229.482 7.6V5.72H235.082V7.6H229.482ZM235.082 9H236.742V19H234.622V12.64L229.502 19H227.842V9H229.962V15.34L235.082 9ZM245.988 9H248.148V19H245.988V15.02H241.408V19H239.248V9H241.408V12.98H245.988V9Z" fill="#F1F1F1"/>
<path d="M4.62 44.2C5.49733 44.2 6.23 44.494 6.818 45.082C7.406 45.67 7.7 46.4027 7.7 47.28C7.7 48.1573 7.406 48.89 6.818 49.478C6.23 50.066 5.49733 50.36 4.62 50.36H2.1V54H1.12V44.2H4.62ZM4.62 49.436C5.22667 49.436 5.726 49.2353 6.118 48.834C6.51933 48.4233 6.72 47.9053 6.72 47.28C6.72 46.6547 6.51933 46.1413 6.118 45.74C5.726 45.3293 5.22667 45.124 4.62 45.124H2.1V49.436H4.62ZM14.5573 47H15.4813V54H14.5573V52.628C13.9133 53.6547 12.9706 54.168 11.7293 54.168C10.7306 54.168 9.8766 53.8133 9.16727 53.104C8.46727 52.3947 8.11727 51.5267 8.11727 50.5C8.11727 49.4733 8.46727 48.6053 9.16727 47.896C9.8766 47.1867 10.7306 46.832 11.7293 46.832C12.9706 46.832 13.9133 47.3453 14.5573 48.372V47ZM9.83927 52.474C10.3713 53.006 11.0246 53.272 11.7993 53.272C12.5739 53.272 13.2273 53.006 13.7593 52.474C14.2913 51.9327 14.5573 51.2747 14.5573 50.5C14.5573 49.7253 14.2913 49.072 13.7593 48.54C13.2273 47.9987 12.5739 47.728 11.7993 47.728C11.0246 47.728 10.3713 47.9987 9.83927 48.54C9.30727 49.072 9.04127 49.7253 9.04127 50.5C9.04127 51.2747 9.30727 51.9327 9.83927 52.474ZM24.1577 47V54H23.2337V48.414L20.7837 52.39H20.6717L18.2217 48.414V54H17.2977V47H18.3617L20.7277 50.836L23.0937 47H24.1577ZM31.996 47H32.92V54H31.996V52.628C31.352 53.6547 30.4093 54.168 29.168 54.168C28.1693 54.168 27.3153 53.8133 26.606 53.104C25.906 52.3947 25.556 51.5267 25.556 50.5C25.556 49.4733 25.906 48.6053 26.606 47.896C27.3153 47.1867 28.1693 46.832 29.168 46.832C30.4093 46.832 31.352 47.3453 31.996 48.372V47ZM27.278 52.474C27.81 53.006 28.4633 53.272 29.238 53.272C30.0127 53.272 30.666 53.006 31.198 52.474C31.73 51.9327 31.996 51.2747 31.996 50.5C31.996 49.7253 31.73 49.072 31.198 48.54C30.666 47.9987 30.0127 47.728 29.238 47.728C28.4633 47.728 27.81 47.9987 27.278 48.54C26.746 49.072 26.48 49.7253 26.48 50.5C26.48 51.2747 26.746 51.9327 27.278 52.474ZM36.2764 52.81L35.4364 55.96H34.5964L35.1564 52.81H36.2764ZM46.9757 54H45.7437L42.2437 50.626V54H41.3197V47H42.2437V50.094L45.5757 47H46.8357L43.2237 50.36L46.9757 54ZM53.2664 53.118C52.5571 53.818 51.6891 54.168 50.6624 54.168C49.6357 54.168 48.7631 53.818 48.0444 53.118C47.3351 52.4087 46.9804 51.536 46.9804 50.5C46.9804 49.464 47.3351 48.596 48.0444 47.896C48.7631 47.1867 49.6357 46.832 50.6624 46.832C51.6891 46.832 52.5571 47.1867 53.2664 47.896C53.9851 48.596 54.3444 49.464 54.3444 50.5C54.3444 51.536 53.9851 52.4087 53.2664 53.118ZM48.7024 52.474C49.2344 53.006 49.8877 53.272 50.6624 53.272C51.4371 53.272 52.0904 53.006 52.6224 52.474C53.1544 51.9327 53.4204 51.2747 53.4204 50.5C53.4204 49.7253 53.1544 49.072 52.6224 48.54C52.0904 47.9987 51.4371 47.728 50.6624 47.728C49.8877 47.728 49.2344 47.9987 48.7024 48.54C48.1704 49.072 47.9044 49.7253 47.9044 50.5C47.9044 51.2747 48.1704 51.9327 48.7024 52.474ZM62.6106 47V54H61.6866V48.414L59.2366 52.39H59.1246L56.6746 48.414V54H55.7506V47H56.8146L59.1806 50.836L61.5466 47H62.6106ZM70.309 47V54H69.385V47.896H65.353V54H64.429V47H70.309ZM77.989 53.118C77.2796 53.818 76.4116 54.168 75.385 54.168C74.3583 54.168 73.4856 53.818 72.767 53.118C72.0576 52.4087 71.703 51.536 71.703 50.5C71.703 49.464 72.0576 48.596 72.767 47.896C73.4856 47.1867 74.3583 46.832 75.385 46.832C76.4116 46.832 77.2796 47.1867 77.989 47.896C78.7076 48.596 79.067 49.464 79.067 50.5C79.067 51.536 78.7076 52.4087 77.989 53.118ZM73.425 52.474C73.957 53.006 74.6103 53.272 75.385 53.272C76.1596 53.272 76.813 53.006 77.345 52.474C77.877 51.9327 78.143 51.2747 78.143 50.5C78.143 49.7253 77.877 49.072 77.345 48.54C76.813 47.9987 76.1596 47.728 75.385 47.728C74.6103 47.728 73.957 47.9987 73.425 48.54C72.893 49.072 72.627 49.7253 72.627 50.5C72.627 51.2747 72.893 51.9327 73.425 52.474ZM85.4292 47H86.3532V54H85.4292V50.948H81.3972V54H80.4732V47H81.3972V50.052H85.4292V47ZM91.4012 46.832C92.4372 46.832 93.2725 47.2007 93.9072 47.938C94.5512 48.666 94.8732 49.5293 94.8732 50.528C94.8732 50.6307 94.8639 50.7753 94.8452 50.962H88.6992C88.7925 51.6713 89.0912 52.236 89.5952 52.656C90.1085 53.0667 90.7385 53.272 91.4852 53.272C92.0172 53.272 92.4745 53.1647 92.8572 52.95C93.2492 52.726 93.5432 52.4367 93.7392 52.082L94.5512 52.558C94.2432 53.0527 93.8232 53.4447 93.2912 53.734C92.7592 54.0233 92.1525 54.168 91.4712 54.168C90.3699 54.168 89.4739 53.8227 88.7832 53.132C88.0925 52.4413 87.7472 51.564 87.7472 50.5C87.7472 49.4547 88.0879 48.582 88.7692 47.882C89.4505 47.182 90.3279 46.832 91.4012 46.832ZM91.4012 47.728C90.6732 47.728 90.0619 47.9473 89.5672 48.386C89.0819 48.8153 88.7925 49.3753 88.6992 50.066H93.9212C93.8279 49.3287 93.5432 48.7547 93.0672 48.344C92.5912 47.9333 92.0359 47.728 91.4012 47.728ZM101.159 47H102.083V54H101.159V50.948H97.127V54H96.203V47H97.127V50.052H101.159V47ZM108.937 47V47.896H106.459V54H105.535V47.896H103.057V47H108.937ZM112.765 49.66C113.418 49.66 113.969 49.8653 114.417 50.276C114.874 50.6773 115.103 51.1953 115.103 51.83C115.103 52.4647 114.874 52.9873 114.417 53.398C113.969 53.7993 113.418 54 112.765 54H109.923V47H110.847V49.66H112.765ZM116.083 47H117.007V54H116.083V47ZM112.765 53.104C113.157 53.104 113.488 52.9873 113.759 52.754C114.039 52.5207 114.179 52.2127 114.179 51.83C114.179 51.4473 114.039 51.1393 113.759 50.906C113.488 50.6727 113.157 50.556 112.765 50.556H110.847V53.104H112.765ZM127.29 47H128.074V54H127.15V48.61L122.978 54H122.194V47H123.118V52.39L127.29 47ZM139.268 47H140.192V54H139.268V52.628C138.624 53.6547 137.681 54.168 136.44 54.168C135.441 54.168 134.587 53.8133 133.878 53.104C133.178 52.3947 132.828 51.5267 132.828 50.5C132.828 49.4733 133.178 48.6053 133.878 47.896C134.587 47.1867 135.441 46.832 136.44 46.832C137.681 46.832 138.624 47.3453 139.268 48.372V47ZM134.55 52.474C135.082 53.006 135.735 53.272 136.51 53.272C137.284 53.272 137.938 53.006 138.47 52.474C139.002 51.9327 139.268 51.2747 139.268 50.5C139.268 49.7253 139.002 49.072 138.47 48.54C137.938 47.9987 137.284 47.728 136.51 47.728C135.735 47.728 135.082 47.9987 134.55 48.54C134.018 49.072 133.752 49.7253 133.752 50.5C133.752 51.2747 134.018 51.9327 134.55 52.474ZM147.664 54H146.432L142.932 50.626V54H142.008V47H142.932V50.094L146.264 47H147.524L143.912 50.36L147.664 54ZM151.351 54.168C150.296 54.168 149.419 53.818 148.719 53.118C148.019 52.4087 147.669 51.536 147.669 50.5C147.669 49.464 148.019 48.596 148.719 47.896C149.419 47.1867 150.296 46.832 151.351 46.832C152.041 46.832 152.662 47 153.213 47.336C153.763 47.6627 154.165 48.106 154.417 48.666L153.661 49.1C153.474 48.68 153.171 48.3487 152.751 48.106C152.34 47.854 151.873 47.728 151.351 47.728C150.576 47.728 149.923 47.9987 149.391 48.54C148.859 49.072 148.593 49.7253 148.593 50.5C148.593 51.2747 148.859 51.9327 149.391 52.474C149.923 53.006 150.576 53.272 151.351 53.272C151.873 53.272 152.34 53.1507 152.751 52.908C153.161 52.656 153.483 52.32 153.717 51.9L154.487 52.348C154.197 52.908 153.773 53.3513 153.213 53.678C152.653 54.0047 152.032 54.168 151.351 54.168ZM158.839 46.832C159.875 46.832 160.71 47.2007 161.345 47.938C161.989 48.666 162.311 49.5293 162.311 50.528C162.311 50.6307 162.302 50.7753 162.283 50.962H156.137C156.23 51.6713 156.529 52.236 157.033 52.656C157.546 53.0667 158.176 53.272 158.923 53.272C159.455 53.272 159.912 53.1647 160.295 52.95C160.687 52.726 160.981 52.4367 161.177 52.082L161.989 52.558C161.681 53.0527 161.261 53.4447 160.729 53.734C160.197 54.0233 159.59 54.168 158.909 54.168C157.808 54.168 156.912 53.8227 156.221 53.132C155.53 52.4413 155.185 51.564 155.185 50.5C155.185 49.4547 155.526 48.582 156.207 47.882C156.888 47.182 157.766 46.832 158.839 46.832ZM158.839 47.728C158.111 47.728 157.5 47.9473 157.005 48.386C156.52 48.8153 156.23 49.3753 156.137 50.066H161.359C161.266 49.3287 160.981 48.7547 160.505 48.344C160.029 47.9333 159.474 47.728 158.839 47.728ZM166.903 54.168C165.848 54.168 164.971 53.818 164.271 53.118C163.571 52.4087 163.221 51.536 163.221 50.5C163.221 49.464 163.571 48.596 164.271 47.896C164.971 47.1867 165.848 46.832 166.903 46.832C167.594 46.832 168.214 47 168.765 47.336C169.316 47.6627 169.717 48.106 169.969 48.666L169.213 49.1C169.026 48.68 168.723 48.3487 168.303 48.106C167.892 47.854 167.426 47.728 166.903 47.728C166.128 47.728 165.475 47.9987 164.943 48.54C164.411 49.072 164.145 49.7253 164.145 50.5C164.145 51.2747 164.411 51.9327 164.943 52.474C165.475 53.006 166.128 53.272 166.903 53.272C167.426 53.272 167.892 53.1507 168.303 52.908C168.714 52.656 169.036 52.32 169.269 51.9L170.039 52.348C169.75 52.908 169.325 53.3513 168.765 53.678C168.205 54.0047 167.584 54.168 166.903 54.168ZM174.419 54.168C173.364 54.168 172.487 53.818 171.787 53.118C171.087 52.4087 170.737 51.536 170.737 50.5C170.737 49.464 171.087 48.596 171.787 47.896C172.487 47.1867 173.364 46.832 174.419 46.832C175.11 46.832 175.73 47 176.281 47.336C176.832 47.6627 177.233 48.106 177.485 48.666L176.729 49.1C176.542 48.68 176.239 48.3487 175.819 48.106C175.408 47.854 174.942 47.728 174.419 47.728C173.644 47.728 172.991 47.9987 172.459 48.54C171.927 49.072 171.661 49.7253 171.661 50.5C171.661 51.2747 171.927 51.9327 172.459 52.474C172.991 53.006 173.644 53.272 174.419 53.272C174.942 53.272 175.408 53.1507 175.819 52.908C176.23 52.656 176.552 52.32 176.785 51.9L177.555 52.348C177.266 52.908 176.841 53.3513 176.281 53.678C175.721 54.0047 175.1 54.168 174.419 54.168ZM183.508 47H184.488L181.492 54.644C181.222 55.3347 180.834 55.876 180.33 56.268C179.836 56.6693 179.28 56.8467 178.664 56.8V55.932C179.504 56.0253 180.144 55.54 180.582 54.476L180.764 54.042L177.628 47H178.608L181.24 52.866L183.508 47ZM191.212 47H192.136V54H191.212V52.628C190.568 53.6547 189.625 54.168 188.384 54.168C187.385 54.168 186.531 53.8133 185.822 53.104C185.122 52.3947 184.772 51.5267 184.772 50.5C184.772 49.4733 185.122 48.6053 185.822 47.896C186.531 47.1867 187.385 46.832 188.384 46.832C189.625 46.832 190.568 47.3453 191.212 48.372V47ZM186.494 52.474C187.026 53.006 187.679 53.272 188.454 53.272C189.228 53.272 189.882 53.006 190.414 52.474C190.946 51.9327 191.212 51.2747 191.212 50.5C191.212 49.7253 190.946 49.072 190.414 48.54C189.882 47.9987 189.228 47.728 188.454 47.728C187.679 47.728 187.026 47.9987 186.494 48.54C185.962 49.072 185.696 49.7253 185.696 50.5C185.696 51.2747 185.962 51.9327 186.494 52.474ZM197.704 46.832C198.703 46.832 199.552 47.1867 200.252 47.896C200.961 48.6053 201.316 49.4733 201.316 50.5C201.316 51.5267 200.961 52.3947 200.252 53.104C199.552 53.8133 198.703 54.168 197.704 54.168C196.463 54.168 195.52 53.6547 194.876 52.628V56.8H193.952V47H194.876V48.372C195.52 47.3453 196.463 46.832 197.704 46.832ZM195.674 52.474C196.206 53.006 196.859 53.272 197.634 53.272C198.409 53.272 199.062 53.006 199.594 52.474C200.126 51.9327 200.392 51.2747 200.392 50.5C200.392 49.7253 200.126 49.072 199.594 48.54C199.062 47.9987 198.409 47.728 197.634 47.728C196.859 47.728 196.206 47.9987 195.674 48.54C195.142 49.072 194.876 49.7253 194.876 50.5C194.876 51.2747 195.142 51.9327 195.674 52.474ZM205.554 49.66C206.208 49.66 206.758 49.8653 207.206 50.276C207.664 50.6773 207.892 51.1953 207.892 51.83C207.892 52.4647 207.664 52.9873 207.206 53.398C206.758 53.7993 206.208 54 205.554 54H202.712V47H203.636V49.66H205.554ZM208.872 47H209.796V54H208.872V47ZM205.554 53.104C205.946 53.104 206.278 52.9873 206.548 52.754C206.828 52.5207 206.968 52.2127 206.968 51.83C206.968 51.4473 206.828 51.1393 206.548 50.906C206.278 50.6727 205.946 50.556 205.554 50.556H203.636V53.104H205.554ZM218.245 54.168C217.19 54.168 216.313 53.818 215.613 53.118C214.913 52.4087 214.563 51.536 214.563 50.5C214.563 49.464 214.913 48.596 215.613 47.896C216.313 47.1867 217.19 46.832 218.245 46.832C218.936 46.832 219.556 47 220.107 47.336C220.658 47.6627 221.059 48.106 221.311 48.666L220.555 49.1C220.368 48.68 220.065 48.3487 219.645 48.106C219.234 47.854 218.768 47.728 218.245 47.728C217.47 47.728 216.817 47.9987 216.285 48.54C215.753 49.072 215.487 49.7253 215.487 50.5C215.487 51.2747 215.753 51.9327 216.285 52.474C216.817 53.006 217.47 53.272 218.245 53.272C218.768 53.272 219.234 53.1507 219.645 52.908C220.056 52.656 220.378 52.32 220.611 51.9L221.381 52.348C221.092 52.908 220.667 53.3513 220.107 53.678C219.547 54.0047 218.926 54.168 218.245 54.168ZM228.224 54H226.992L223.492 50.626V54H222.568V47H223.492V50.094L226.824 47H228.084L224.472 50.36L228.224 54ZM234.112 47H235.092L232.096 54.644C231.826 55.3347 231.438 55.876 230.934 56.268C230.44 56.6693 229.884 56.8467 229.268 56.8V55.932C230.108 56.0253 230.748 55.54 231.186 54.476L231.368 54.042L228.232 47H229.212L231.844 52.866L234.112 47ZM241.109 47V47.896H238.631V54H237.707V47.896H235.229V47H241.109ZM245.056 46.832C246.092 46.832 246.927 47.2007 247.562 47.938C248.206 48.666 248.528 49.5293 248.528 50.528C248.528 50.6307 248.518 50.7753 248.5 50.962H242.354C242.447 51.6713 242.746 52.236 243.25 52.656C243.763 53.0667 244.393 53.272 245.14 53.272C245.672 53.272 246.129 53.1647 246.512 52.95C246.904 52.726 247.198 52.4367 247.394 52.082L248.206 52.558C247.898 53.0527 247.478 53.4447 246.946 53.734C246.414 54.0233 245.807 54.168 245.126 54.168C244.024 54.168 243.128 53.8227 242.438 53.132C241.747 52.4413 241.402 51.564 241.402 50.5C241.402 49.4547 241.742 48.582 242.424 47.882C243.105 47.182 243.982 46.832 245.056 46.832ZM245.056 47.728C244.328 47.728 243.716 47.9473 243.222 48.386C242.736 48.8153 242.447 49.3753 242.354 50.066H247.576C247.482 49.3287 247.198 48.7547 246.722 48.344C246.246 47.9333 245.69 47.728 245.056 47.728ZM253.609 46.832C254.608 46.832 255.457 47.1867 256.157 47.896C256.867 48.6053 257.221 49.4733 257.221 50.5C257.221 51.5267 256.867 52.3947 256.157 53.104C255.457 53.8133 254.608 54.168 253.609 54.168C252.368 54.168 251.425 53.6547 250.781 52.628V56.8H249.857V47H250.781V48.372C251.425 47.3453 252.368 46.832 253.609 46.832ZM251.579 52.474C252.111 53.006 252.765 53.272 253.539 53.272C254.314 53.272 254.967 53.006 255.499 52.474C256.031 51.9327 256.297 51.2747 256.297 50.5C256.297 49.7253 256.031 49.072 255.499 48.54C254.967 47.9987 254.314 47.728 253.539 47.728C252.765 47.728 252.111 47.9987 251.579 48.54C251.047 49.072 250.781 49.7253 250.781 50.5C250.781 51.2747 251.047 51.9327 251.579 52.474ZM264.638 47H265.562V54H264.638V52.628C263.994 53.6547 263.051 54.168 261.81 54.168C260.811 54.168 259.957 53.8133 259.248 53.104C258.548 52.3947 258.198 51.5267 258.198 50.5C258.198 49.4733 258.548 48.6053 259.248 47.896C259.957 47.1867 260.811 46.832 261.81 46.832C263.051 46.832 263.994 47.3453 264.638 48.372V47ZM259.92 52.474C260.452 53.006 261.105 53.272 261.88 53.272C262.654 53.272 263.308 53.006 263.84 52.474C264.372 51.9327 264.638 51.2747 264.638 50.5C264.638 49.7253 264.372 49.072 263.84 48.54C263.308 47.9987 262.654 47.728 261.88 47.728C261.105 47.728 260.452 47.9987 259.92 48.54C259.388 49.072 259.122 49.7253 259.122 50.5C259.122 51.2747 259.388 51.9327 259.92 52.474ZM275.19 50.402C275.955 50.682 276.338 51.228 276.338 52.04C276.338 52.6093 276.147 53.0807 275.764 53.454C275.391 53.818 274.849 54 274.14 54H270.738V47H273.86C274.541 47 275.069 47.1773 275.442 47.532C275.815 47.8773 276.002 48.3253 276.002 48.876C276.002 49.576 275.731 50.0847 275.19 50.402ZM273.86 47.896H271.662V50.024H273.86C274.672 50.024 275.078 49.66 275.078 48.932C275.078 48.6053 274.971 48.3533 274.756 48.176C274.551 47.9893 274.252 47.896 273.86 47.896ZM274.14 53.104C274.551 53.104 274.863 53.006 275.078 52.81C275.302 52.614 275.414 52.3387 275.414 51.984C275.414 51.6573 275.302 51.4007 275.078 51.214C274.863 51.018 274.551 50.92 274.14 50.92H271.662V53.104H274.14ZM280.44 49.66C281.093 49.66 281.644 49.8653 282.092 50.276C282.549 50.6773 282.778 51.1953 282.778 51.83C282.778 52.4647 282.549 52.9873 282.092 53.398C281.644 53.7993 281.093 54 280.44 54H277.598V47H278.522V49.66H280.44ZM283.758 47H284.682V54H283.758V47ZM280.44 53.104C280.832 53.104 281.163 52.9873 281.434 52.754C281.714 52.5207 281.854 52.2127 281.854 51.83C281.854 51.4473 281.714 51.1393 281.434 50.906C281.163 50.6727 280.832 50.556 280.44 50.556H278.522V53.104H280.44ZM292.389 53.104H293.369V55.876H292.445V54H286.733V55.876H285.809V53.104H286.663C287.139 52.4787 287.377 51.5967 287.377 50.458V47H292.389V53.104ZM287.783 53.104H291.465V47.896H288.301V50.458C288.301 51.5313 288.128 52.4133 287.783 53.104ZM297.587 46.832C298.623 46.832 299.459 47.2007 300.093 47.938C300.737 48.666 301.059 49.5293 301.059 50.528C301.059 50.6307 301.05 50.7753 301.031 50.962H294.885C294.979 51.6713 295.277 52.236 295.781 52.656C296.295 53.0667 296.925 53.272 297.671 53.272C298.203 53.272 298.661 53.1647 299.043 52.95C299.435 52.726 299.729 52.4367 299.925 52.082L300.737 52.558C300.429 53.0527 300.009 53.4447 299.477 53.734C298.945 54.0233 298.339 54.168 297.657 54.168C296.556 54.168 295.66 53.8227 294.969 53.132C294.279 52.4413 293.933 51.564 293.933 50.5C293.933 49.4547 294.274 48.582 294.955 47.882C295.637 47.182 296.514 46.832 297.587 46.832ZM297.587 47.728C296.859 47.728 296.248 47.9473 295.753 48.386C295.268 48.8153 294.979 49.3753 294.885 50.066H300.107C300.014 49.3287 299.729 48.7547 299.253 48.344C298.777 47.9333 298.222 47.728 297.587 47.728ZM306.141 46.832C307.14 46.832 307.989 47.1867 308.689 47.896C309.398 48.6053 309.753 49.4733 309.753 50.5C309.753 51.5267 309.398 52.3947 308.689 53.104C307.989 53.8133 307.14 54.168 306.141 54.168C304.9 54.168 303.957 53.6547 303.313 52.628V56.8H302.389V47H303.313V48.372C303.957 47.3453 304.9 46.832 306.141 46.832ZM304.111 52.474C304.643 53.006 305.296 53.272 306.071 53.272C306.846 53.272 307.499 53.006 308.031 52.474C308.563 51.9327 308.829 51.2747 308.829 50.5C308.829 49.7253 308.563 49.072 308.031 48.54C307.499 47.9987 306.846 47.728 306.071 47.728C305.296 47.728 304.643 47.9987 304.111 48.54C303.579 49.072 303.313 49.7253 303.313 50.5C303.313 51.2747 303.579 51.9327 304.111 52.474ZM318.765 54H317.645L314.789 50.626V54H313.865V50.626L311.009 54H309.889L313.025 50.36L310.029 47H311.149L313.865 50.108V47H314.789V50.108L317.505 47H318.625L315.629 50.36L318.765 54ZM325.342 47H326.266V54H325.342V52.628C324.698 53.6547 323.755 54.168 322.514 54.168C321.515 54.168 320.661 53.8133 319.952 53.104C319.252 52.3947 318.902 51.5267 318.902 50.5C318.902 49.4733 319.252 48.6053 319.952 47.896C320.661 47.1867 321.515 46.832 322.514 46.832C323.755 46.832 324.698 47.3453 325.342 48.372V47ZM320.624 52.474C321.156 53.006 321.809 53.272 322.584 53.272C323.359 53.272 324.012 53.006 324.544 52.474C325.076 51.9327 325.342 51.2747 325.342 50.5C325.342 49.7253 325.076 49.072 324.544 48.54C324.012 47.9987 323.359 47.728 322.584 47.728C321.809 47.728 321.156 47.9987 320.624 48.54C320.092 49.072 319.826 49.7253 319.826 50.5C319.826 51.2747 320.092 51.9327 320.624 52.474ZM333.038 47H333.962V54H333.038V50.948H329.006V54H328.082V47H329.006V50.052H333.038V47ZM338.618 49.66C339.272 49.66 339.822 49.8653 340.27 50.276C340.728 50.6773 340.956 51.1953 340.956 51.83C340.956 52.4647 340.728 52.9873 340.27 53.398C339.822 53.7993 339.272 54 338.618 54H335.776V47H336.7V49.66H338.618ZM341.936 47H342.86V54H341.936V47ZM338.618 53.104C339.01 53.104 339.342 52.9873 339.612 52.754C339.892 52.5207 340.032 52.2127 340.032 51.83C340.032 51.4473 339.892 51.1393 339.612 50.906C339.342 50.6727 339.01 50.556 338.618 50.556H336.7V53.104H338.618ZM352.499 50.402C353.264 50.682 353.647 51.228 353.647 52.04C353.647 52.6093 353.456 53.0807 353.073 53.454C352.7 53.818 352.158 54 351.449 54H348.047V47H351.169C351.85 47 352.378 47.1773 352.751 47.532C353.124 47.8773 353.311 48.3253 353.311 48.876C353.311 49.576 353.04 50.0847 352.499 50.402ZM351.169 47.896H348.971V50.024H351.169C351.981 50.024 352.387 49.66 352.387 48.932C352.387 48.6053 352.28 48.3533 352.065 48.176C351.86 47.9893 351.561 47.896 351.169 47.896ZM351.449 53.104C351.86 53.104 352.172 53.006 352.387 52.81C352.611 52.614 352.723 52.3387 352.723 51.984C352.723 51.6573 352.611 51.4007 352.387 51.214C352.172 51.018 351.86 50.92 351.449 50.92H348.971V53.104H351.449ZM361.501 46.832C362.537 46.832 363.372 47.2007 364.007 47.938C364.651 48.666 364.973 49.5293 364.973 50.528C364.973 50.6307 364.964 50.7753 364.945 50.962H358.799C358.892 51.6713 359.191 52.236 359.695 52.656C360.208 53.0667 360.838 53.272 361.585 53.272C362.117 53.272 362.574 53.1647 362.957 52.95C363.349 52.726 363.643 52.4367 363.839 52.082L364.651 52.558C364.343 53.0527 363.923 53.4447 363.391 53.734C362.859 54.0233 362.252 54.168 361.571 54.168C360.47 54.168 359.574 53.8227 358.883 53.132C358.192 52.4413 357.847 51.564 357.847 50.5C357.847 49.4547 358.188 48.582 358.869 47.882C359.55 47.182 360.428 46.832 361.501 46.832ZM361.501 47.728C360.773 47.728 360.162 47.9473 359.667 48.386C359.182 48.8153 358.892 49.3753 358.799 50.066H364.021C363.928 49.3287 363.643 48.7547 363.167 48.344C362.691 47.9333 362.136 47.728 361.501 47.728ZM371.909 53.104H372.889V55.876H371.965V54H366.253V55.876H365.329V53.104H366.183C366.659 52.4787 366.897 51.5967 366.897 50.458V47H371.909V53.104ZM367.303 53.104H370.985V47.896H367.821V50.458C367.821 51.5313 367.649 52.4133 367.303 53.104ZM379.243 47H380.027V54H379.103V48.61L374.931 54H374.147V47H375.071V52.39L379.243 47ZM386.797 47H387.721V54H386.797V50.948H382.765V54H381.841V47H382.765V50.052H386.797V47ZM395.401 53.118C394.692 53.818 393.824 54.168 392.797 54.168C391.771 54.168 390.898 53.818 390.179 53.118C389.47 52.4087 389.115 51.536 389.115 50.5C389.115 49.464 389.47 48.596 390.179 47.896C390.898 47.1867 391.771 46.832 392.797 46.832C393.824 46.832 394.692 47.1867 395.401 47.896C396.12 48.596 396.479 49.464 396.479 50.5C396.479 51.536 396.12 52.4087 395.401 53.118ZM390.837 52.474C391.369 53.006 392.023 53.272 392.797 53.272C393.572 53.272 394.225 53.006 394.757 52.474C395.289 51.9327 395.555 51.2747 395.555 50.5C395.555 49.7253 395.289 49.072 394.757 48.54C394.225 47.9987 393.572 47.728 392.797 47.728C392.023 47.728 391.369 47.9987 390.837 48.54C390.305 49.072 390.039 49.7253 390.039 50.5C390.039 51.2747 390.305 51.9327 390.837 52.474ZM404.745 47V54H403.821V48.414L401.371 52.39H401.259L398.809 48.414V54H397.885V47H398.949L401.315 50.836L403.681 47H404.745ZM4.242 75.168C3.18733 75.168 2.31 74.818 1.61 74.118C0.91 73.4087 0.56 72.536 0.56 71.5C0.56 70.464 0.91 69.596 1.61 68.896C2.31 68.1867 3.18733 67.832 4.242 67.832C4.93267 67.832 5.55333 68 6.104 68.336C6.65467 68.6627 7.056 69.106 7.308 69.666L6.552 70.1C6.36533 69.68 6.062 69.3487 5.642 69.106C5.23133 68.854 4.76467 68.728 4.242 68.728C3.46733 68.728 2.814 68.9987 2.282 69.54C1.75 70.072 1.484 70.7253 1.484 71.5C1.484 72.2747 1.75 72.9327 2.282 73.474C2.814 74.006 3.46733 74.272 4.242 74.272C4.76467 74.272 5.23133 74.1507 5.642 73.908C6.05267 73.656 6.37467 73.32 6.608 72.9L7.378 73.348C7.08867 73.908 6.664 74.3513 6.104 74.678C5.544 75.0047 4.92333 75.168 4.242 75.168ZM13.4679 68V68.896H10.9899V75H10.0659V68.896H7.58789V68H13.4679ZM19.5499 68H20.3339V75H19.4099V69.61L15.2379 75H14.4539V68H15.3779V73.39L19.5499 68ZM27.8879 68V75H26.9639V68.896H23.7999V72.018C23.7999 73.1847 23.5759 73.9873 23.1279 74.426C22.6892 74.8647 22.0826 75.056 21.3079 75V74.132C21.8399 74.188 22.2319 74.062 22.4839 73.754C22.7452 73.446 22.8759 72.8673 22.8759 72.018V68H27.8879ZM32.9392 67.832C33.9752 67.832 34.8105 68.2007 35.4452 68.938C36.0892 69.666 36.4112 70.5293 36.4112 71.528C36.4112 71.6307 36.4018 71.7753 36.3832 71.962H30.2372C30.3305 72.6713 30.6292 73.236 31.1332 73.656C31.6465 74.0667 32.2765 74.272 33.0232 74.272C33.5552 74.272 34.0125 74.1647 34.3952 73.95C34.7872 73.726 35.0812 73.4367 35.2772 73.082L36.0892 73.558C35.7812 74.0527 35.3612 74.4447 34.8292 74.734C34.2972 75.0233 33.6905 75.168 33.0092 75.168C31.9078 75.168 31.0118 74.8227 30.3212 74.132C29.6305 73.4413 29.2852 72.564 29.2852 71.5C29.2852 70.4547 29.6258 69.582 30.3072 68.882C30.9885 68.182 31.8658 67.832 32.9392 67.832ZM32.9392 68.728C32.2112 68.728 31.5998 68.9473 31.1052 69.386C30.6198 69.8153 30.3305 70.3753 30.2372 71.066H35.4592C35.3658 70.3287 35.0812 69.7547 34.6052 69.344C34.1292 68.9333 33.5738 68.728 32.9392 68.728ZM38.7204 73.81L37.8804 76.96H37.0404L37.6004 73.81H38.7204ZM48.2437 68V68.896H44.6877V75H43.7637V68H48.2437ZM54.6853 74.104H55.6653V76.876H54.7413V75H49.0293V76.876H48.1053V74.104H48.9593C49.4353 73.4787 49.6733 72.5967 49.6733 71.458V68H54.6853V74.104ZM50.0793 74.104H53.7613V68.896H50.5973V71.458C50.5973 72.5313 50.4246 73.4133 50.0793 74.104ZM59.8837 67.832C60.9197 67.832 61.755 68.2007 62.3897 68.938C63.0337 69.666 63.3557 70.5293 63.3557 71.528C63.3557 71.6307 63.3464 71.7753 63.3277 71.962H57.1817C57.275 72.6713 57.5737 73.236 58.0777 73.656C58.591 74.0667 59.221 74.272 59.9677 74.272C60.4997 74.272 60.957 74.1647 61.3397 73.95C61.7317 73.726 62.0257 73.4367 62.2217 73.082L63.0337 73.558C62.7257 74.0527 62.3057 74.4447 61.7737 74.734C61.2417 75.0233 60.635 75.168 59.9537 75.168C58.8524 75.168 57.9564 74.8227 57.2657 74.132C56.575 73.4413 56.2297 72.564 56.2297 71.5C56.2297 70.4547 56.5704 69.582 57.2517 68.882C57.933 68.182 58.8104 67.832 59.8837 67.832ZM59.8837 68.728C59.1557 68.728 58.5444 68.9473 58.0497 69.386C57.5644 69.8153 57.275 70.3753 57.1817 71.066H62.4037C62.3104 70.3287 62.0257 69.7547 61.5497 69.344C61.0737 68.9333 60.5184 68.728 59.8837 68.728ZM73.0855 68H74.0655L71.0695 75.644C70.7988 76.3347 70.4115 76.876 69.9075 77.268C69.4128 77.6693 68.8575 77.8467 68.2415 77.8V76.932C69.0815 77.0253 69.7208 76.54 70.1595 75.476L70.3415 75.042L67.2055 68H68.1855L70.8175 73.866L73.0855 68ZM80.4984 74.104H81.4784V76.876H80.5544V75H74.8424V76.876H73.9184V74.104H74.7724C75.2484 73.4787 75.4864 72.5967 75.4864 71.458V68H80.4984V74.104ZM75.8924 74.104H79.5744V68.896H76.4104V71.458C76.4104 72.5313 76.2377 73.4133 75.8924 74.104ZM88.3287 74.118C87.6194 74.818 86.7514 75.168 85.7247 75.168C84.6981 75.168 83.8254 74.818 83.1067 74.118C82.3974 73.4087 82.0427 72.536 82.0427 71.5C82.0427 70.464 82.3974 69.596 83.1067 68.896C83.8254 68.1867 84.6981 67.832 85.7247 67.832C86.7514 67.832 87.6194 68.1867 88.3287 68.896C89.0474 69.596 89.4067 70.464 89.4067 71.5C89.4067 72.536 89.0474 73.4087 88.3287 74.118ZM83.7647 73.474C84.2967 74.006 84.9501 74.272 85.7247 74.272C86.4994 74.272 87.1527 74.006 87.6847 73.474C88.2167 72.9327 88.4827 72.2747 88.4827 71.5C88.4827 70.7253 88.2167 70.072 87.6847 69.54C87.1527 68.9987 86.4994 68.728 85.7247 68.728C84.9501 68.728 84.2967 68.9987 83.7647 69.54C83.2327 70.072 82.9667 70.7253 82.9667 71.5C82.9667 72.2747 83.2327 72.9327 83.7647 73.474ZM93.921 75.168C92.913 75.168 92.073 74.8367 91.401 74.174C90.729 73.502 90.393 72.634 90.393 71.57C90.393 70.3753 90.5703 69.4607 90.925 68.826C91.2796 68.182 91.9983 67.5987 93.081 67.076C93.2863 66.9733 93.557 66.852 93.893 66.712C94.2383 66.572 94.495 66.46 94.663 66.376C94.8403 66.292 95.0316 66.1847 95.237 66.054C95.4423 65.914 95.5963 65.76 95.699 65.592C95.8016 65.424 95.867 65.2233 95.895 64.99L96.623 65.41C96.5856 65.634 96.511 65.844 96.399 66.04C96.287 66.236 96.1703 66.3947 96.049 66.516C95.937 66.6373 95.755 66.7727 95.503 66.922C95.2603 67.062 95.069 67.1647 94.929 67.23C94.7983 67.286 94.565 67.384 94.229 67.524C93.9023 67.664 93.683 67.7573 93.571 67.804C92.9176 68.084 92.437 68.378 92.129 68.686C91.821 68.9847 91.6016 69.3767 91.471 69.862C91.7883 69.442 92.1896 69.134 92.675 68.938C93.1696 68.7327 93.6503 68.63 94.117 68.63C95.0503 68.63 95.8203 68.938 96.427 69.554C97.043 70.1607 97.351 70.94 97.351 71.892C97.351 72.8347 97.0243 73.6187 96.371 74.244C95.727 74.86 94.9103 75.168 93.921 75.168ZM93.921 74.244C94.649 74.244 95.2463 74.0247 95.713 73.586C96.189 73.138 96.427 72.5733 96.427 71.892C96.427 71.2013 96.203 70.6367 95.755 70.198C95.3163 69.75 94.7283 69.526 93.991 69.526C93.3283 69.526 92.7263 69.736 92.185 70.156C91.6436 70.5667 91.373 71.1173 91.373 71.808C91.373 72.5173 91.6156 73.1007 92.101 73.558C92.5956 74.0153 93.2023 74.244 93.921 74.244ZM101.878 75.168C100.824 75.168 99.9463 74.818 99.2463 74.118C98.5463 73.4087 98.1963 72.536 98.1963 71.5C98.1963 70.464 98.5463 69.596 99.2463 68.896C99.9463 68.1867 100.824 67.832 101.878 67.832C102.569 67.832 103.19 68 103.74 68.336C104.291 68.6627 104.692 69.106 104.944 69.666L104.188 70.1C104.002 69.68 103.698 69.3487 103.278 69.106C102.868 68.854 102.401 68.728 101.878 68.728C101.104 68.728 100.45 68.9987 99.9183 69.54C99.3863 70.072 99.1203 70.7253 99.1203 71.5C99.1203 72.2747 99.3863 72.9327 99.9183 73.474C100.45 74.006 101.104 74.272 101.878 74.272C102.401 74.272 102.868 74.1507 103.278 73.908C103.689 73.656 104.011 73.32 104.244 72.9L105.014 73.348C104.725 73.908 104.3 74.3513 103.74 74.678C103.18 75.0047 102.56 75.168 101.878 75.168ZM111.104 68V68.896H108.626V75H107.702V68.896H105.224V68H111.104ZM116.542 71.402C117.308 71.682 117.69 72.228 117.69 73.04C117.69 73.6093 117.499 74.0807 117.116 74.454C116.743 74.818 116.202 75 115.492 75H112.09V68H115.212C115.894 68 116.421 68.1773 116.794 68.532C117.168 68.8773 117.354 69.3253 117.354 69.876C117.354 70.576 117.084 71.0847 116.542 71.402ZM115.212 68.896H113.014V71.024H115.212C116.024 71.024 116.43 70.66 116.43 69.932C116.43 69.6053 116.323 69.3533 116.108 69.176C115.903 68.9893 115.604 68.896 115.212 68.896ZM115.492 74.104C115.903 74.104 116.216 74.006 116.43 73.81C116.654 73.614 116.766 73.3387 116.766 72.984C116.766 72.6573 116.654 72.4007 116.43 72.214C116.216 72.018 115.903 71.92 115.492 71.92H113.014V74.104H115.492ZM124.816 74.118C124.107 74.818 123.239 75.168 122.212 75.168C121.186 75.168 120.313 74.818 119.594 74.118C118.885 73.4087 118.53 72.536 118.53 71.5C118.53 70.464 118.885 69.596 119.594 68.896C120.313 68.1867 121.186 67.832 122.212 67.832C123.239 67.832 124.107 68.1867 124.816 68.896C125.535 69.596 125.894 70.464 125.894 71.5C125.894 72.536 125.535 73.4087 124.816 74.118ZM120.252 73.474C120.784 74.006 121.438 74.272 122.212 74.272C122.987 74.272 123.64 74.006 124.172 73.474C124.704 72.9327 124.97 72.2747 124.97 71.5C124.97 70.7253 124.704 70.072 124.172 69.54C123.64 68.9987 122.987 68.728 122.212 68.728C121.438 68.728 120.784 68.9987 120.252 69.54C119.72 70.072 119.454 70.7253 119.454 71.5C119.454 72.2747 119.72 72.9327 120.252 73.474ZM136.54 68V75H135.616V68.896H131.584V75H130.66V68H136.54ZM144.22 74.118C143.511 74.818 142.643 75.168 141.616 75.168C140.59 75.168 139.717 74.818 138.998 74.118C138.289 73.4087 137.934 72.536 137.934 71.5C137.934 70.464 138.289 69.596 138.998 68.896C139.717 68.1867 140.59 67.832 141.616 67.832C142.643 67.832 143.511 68.1867 144.22 68.896C144.939 69.596 145.298 70.464 145.298 71.5C145.298 72.536 144.939 73.4087 144.22 74.118ZM139.656 73.474C140.188 74.006 140.842 74.272 141.616 74.272C142.391 74.272 143.044 74.006 143.576 73.474C144.108 72.9327 144.374 72.2747 144.374 71.5C144.374 70.7253 144.108 70.072 143.576 69.54C143.044 68.9987 142.391 68.728 141.616 68.728C140.842 68.728 140.188 68.9987 139.656 69.54C139.124 70.072 138.858 70.7253 138.858 71.5C138.858 72.2747 139.124 72.9327 139.656 73.474ZM152.171 68V75H151.247V68.896H148.083V72.018C148.083 73.1847 147.859 73.9873 147.411 74.426C146.973 74.8647 146.366 75.056 145.591 75V74.132C146.123 74.188 146.515 74.062 146.767 73.754C147.029 73.446 147.159 72.8673 147.159 72.018V68H152.171ZM156.831 70.66C157.484 70.66 158.035 70.8653 158.483 71.276C158.94 71.6773 159.169 72.1953 159.169 72.83C159.169 73.4647 158.94 73.9873 158.483 74.398C158.035 74.7993 157.484 75 156.831 75H153.989V68H154.913V70.66H156.831ZM156.831 74.104C157.223 74.104 157.554 73.9873 157.825 73.754C158.105 73.5207 158.245 73.2127 158.245 72.83C158.245 72.4473 158.105 72.1393 157.825 71.906C157.554 71.6727 157.223 71.556 156.831 71.556H154.913V74.104H156.831ZM163.9 71.402C164.712 71.71 165.118 72.27 165.118 73.082C165.118 73.6607 164.889 74.1553 164.432 74.566C163.984 74.9673 163.34 75.168 162.5 75.168C161.091 75.168 160.167 74.608 159.728 73.488L160.512 73.026C160.801 73.8567 161.464 74.272 162.5 74.272C163.041 74.272 163.457 74.1553 163.746 73.922C164.045 73.6887 164.194 73.39 164.194 73.026C164.194 72.6993 164.073 72.4333 163.83 72.228C163.587 72.0227 163.261 71.92 162.85 71.92H161.828V71.024H162.57C162.971 71.024 163.284 70.926 163.508 70.73C163.741 70.5247 163.858 70.2447 163.858 69.89C163.858 69.554 163.723 69.2787 163.452 69.064C163.181 68.84 162.817 68.728 162.36 68.728C161.483 68.728 160.899 69.078 160.61 69.778L159.84 69.33C160.307 68.3313 161.147 67.832 162.36 67.832C163.097 67.832 163.685 68.028 164.124 68.42C164.563 68.8027 164.782 69.274 164.782 69.834C164.782 70.5527 164.488 71.0753 163.9 71.402ZM172.248 74.118C171.539 74.818 170.671 75.168 169.644 75.168C168.618 75.168 167.745 74.818 167.026 74.118C166.317 73.4087 165.962 72.536 165.962 71.5C165.962 70.464 166.317 69.596 167.026 68.896C167.745 68.1867 168.618 67.832 169.644 67.832C170.671 67.832 171.539 68.1867 172.248 68.896C172.967 69.596 173.326 70.464 173.326 71.5C173.326 72.536 172.967 73.4087 172.248 74.118ZM167.684 73.474C168.216 74.006 168.87 74.272 169.644 74.272C170.419 74.272 171.072 74.006 171.604 73.474C172.136 72.9327 172.402 72.2747 172.402 71.5C172.402 70.7253 172.136 70.072 171.604 69.54C171.072 68.9987 170.419 68.728 169.644 68.728C168.87 68.728 168.216 68.9987 167.684 69.54C167.152 70.072 166.886 70.7253 166.886 71.5C166.886 72.2747 167.152 72.9327 167.684 73.474ZM179.185 71.402C179.95 71.682 180.333 72.228 180.333 73.04C180.333 73.6093 180.141 74.0807 179.759 74.454C179.385 74.818 178.844 75 178.135 75H174.733V68H177.855C178.536 68 179.063 68.1773 179.437 68.532C179.81 68.8773 179.997 69.3253 179.997 69.876C179.997 70.576 179.726 71.0847 179.185 71.402ZM177.855 68.896H175.657V71.024H177.855C178.667 71.024 179.073 70.66 179.073 69.932C179.073 69.6053 178.965 69.3533 178.751 69.176C178.545 68.9893 178.247 68.896 177.855 68.896ZM178.135 74.104C178.545 74.104 178.858 74.006 179.073 73.81C179.297 73.614 179.409 73.3387 179.409 72.984C179.409 72.6573 179.297 72.4007 179.073 72.214C178.858 72.018 178.545 71.92 178.135 71.92H175.657V74.104H178.135ZM187.613 68H188.537V75H187.613V73.628C186.969 74.6547 186.026 75.168 184.785 75.168C183.786 75.168 182.932 74.8133 182.223 74.104C181.523 73.3947 181.173 72.5267 181.173 71.5C181.173 70.4733 181.523 69.6053 182.223 68.896C182.932 68.1867 183.786 67.832 184.785 67.832C186.026 67.832 186.969 68.3453 187.613 69.372V68ZM182.895 73.474C183.427 74.006 184.08 74.272 184.855 74.272C185.629 74.272 186.283 74.006 186.815 73.474C187.347 72.9327 187.613 72.2747 187.613 71.5C187.613 70.7253 187.347 70.072 186.815 69.54C186.283 68.9987 185.629 68.728 184.855 68.728C184.08 68.728 183.427 68.9987 182.895 69.54C182.363 70.072 182.097 70.7253 182.097 71.5C182.097 72.2747 182.363 72.9327 182.895 73.474ZM195.393 68V68.896H192.915V75H191.991V68.896H189.513V68H195.393ZM199.34 67.832C200.376 67.832 201.211 68.2007 201.846 68.938C202.49 69.666 202.812 70.5293 202.812 71.528C202.812 71.6307 202.802 71.7753 202.784 71.962H196.638C196.731 72.6713 197.03 73.236 197.534 73.656C198.047 74.0667 198.677 74.272 199.424 74.272C199.956 74.272 200.413 74.1647 200.796 73.95C201.188 73.726 201.482 73.4367 201.678 73.082L202.49 73.558C202.182 74.0527 201.762 74.4447 201.23 74.734C200.698 75.0233 200.091 75.168 199.41 75.168C198.308 75.168 197.412 74.8227 196.722 74.132C196.031 73.4413 195.686 72.564 195.686 71.5C195.686 70.4547 196.026 69.582 196.708 68.882C197.389 68.182 198.266 67.832 199.34 67.832ZM199.34 68.728C198.612 68.728 198 68.9473 197.506 69.386C197.02 69.8153 196.731 70.3753 196.638 71.066H201.86C201.766 70.3287 201.482 69.7547 201.006 69.344C200.53 68.9333 199.974 68.728 199.34 68.728ZM209.608 68V75H208.684V68.896H205.52V72.018C205.52 73.1847 205.296 73.9873 204.848 74.426C204.409 74.8647 203.803 75.056 203.028 75V74.132C203.56 74.188 203.952 74.062 204.204 73.754C204.465 73.446 204.596 72.8673 204.596 72.018V68H209.608ZM216.465 68V75H215.541V72.312H214.337L212.181 75H211.005L213.217 72.284C212.657 72.2 212.195 71.9667 211.831 71.584C211.467 71.2013 211.285 70.73 211.285 70.17C211.285 69.5353 211.509 69.0173 211.957 68.616C212.414 68.2053 212.97 68 213.623 68H216.465ZM213.623 71.444H215.541V68.896H213.623C213.231 68.896 212.895 69.0127 212.615 69.246C212.344 69.4793 212.209 69.7873 212.209 70.17C212.209 70.5527 212.344 70.8607 212.615 71.094C212.895 71.3273 213.231 71.444 213.623 71.444ZM226.097 71.402C226.862 71.682 227.245 72.228 227.245 73.04C227.245 73.6093 227.054 74.0807 226.671 74.454C226.298 74.818 225.756 75 225.047 75H221.645V68H224.767C225.448 68 225.976 68.1773 226.349 68.532C226.722 68.8773 226.909 69.3253 226.909 69.876C226.909 70.576 226.638 71.0847 226.097 71.402ZM224.767 68.896H222.569V71.024H224.767C225.579 71.024 225.985 70.66 225.985 69.932C225.985 69.6053 225.878 69.3533 225.663 69.176C225.458 68.9893 225.159 68.896 224.767 68.896ZM225.047 74.104C225.458 74.104 225.77 74.006 225.985 73.81C226.209 73.614 226.321 73.3387 226.321 72.984C226.321 72.6573 226.209 72.4007 225.985 72.214C225.77 72.018 225.458 71.92 225.047 71.92H222.569V74.104H225.047ZM231.347 70.66C232 70.66 232.551 70.8653 232.999 71.276C233.456 71.6773 233.685 72.1953 233.685 72.83C233.685 73.4647 233.456 73.9873 232.999 74.398C232.551 74.7993 232 75 231.347 75H228.505V68H229.429V70.66H231.347ZM234.665 68H235.589V75H234.665V68ZM231.347 74.104C231.739 74.104 232.07 73.9873 232.341 73.754C232.621 73.5207 232.761 73.2127 232.761 72.83C232.761 72.4473 232.621 72.1393 232.341 71.906C232.07 71.6727 231.739 71.556 231.347 71.556H229.429V74.104H231.347ZM243.296 75H242.19L240.006 72.116L237.822 75H236.716L239.46 71.374L236.898 68H238.004L240.006 70.646L242.008 68H243.114L240.566 71.374L243.296 75ZM249.786 74.118C249.077 74.818 248.209 75.168 247.182 75.168C246.156 75.168 245.283 74.818 244.564 74.118C243.855 73.4087 243.5 72.536 243.5 71.5C243.5 70.464 243.855 69.596 244.564 68.896C245.283 68.1867 246.156 67.832 247.182 67.832C248.209 67.832 249.077 68.1867 249.786 68.896C250.505 69.596 250.864 70.464 250.864 71.5C250.864 72.536 250.505 73.4087 249.786 74.118ZM245.222 73.474C245.754 74.006 246.408 74.272 247.182 74.272C247.957 74.272 248.61 74.006 249.142 73.474C249.674 72.9327 249.94 72.2747 249.94 71.5C249.94 70.7253 249.674 70.072 249.142 69.54C248.61 68.9987 247.957 68.728 247.182 68.728C246.408 68.728 245.754 68.9987 245.222 69.54C244.69 70.072 244.424 70.7253 244.424 71.5C244.424 72.2747 244.69 72.9327 245.222 73.474ZM257.877 74.104H258.857V76.876H257.933V75H252.221V76.876H251.297V74.104H252.151C252.627 73.4787 252.865 72.5967 252.865 71.458V68H257.877V74.104ZM253.271 74.104H256.953V68.896H253.789V71.458C253.789 72.5313 253.617 73.4133 253.271 74.104ZM265.211 68H265.995V75H265.071V69.61L260.899 75H260.115V68H261.039V73.39L265.211 68ZM272.849 68V68.896H270.371V75H269.447V68.896H266.969V68H272.849ZM282.151 68H283.075V75H282.151V71.948H278.119V75H277.195V68H278.119V71.052H282.151V68ZM290.909 68H291.833V75H290.909V73.628C290.265 74.6547 289.322 75.168 288.081 75.168C287.082 75.168 286.228 74.8133 285.519 74.104C284.819 73.3947 284.469 72.5267 284.469 71.5C284.469 70.4733 284.819 69.6053 285.519 68.896C286.228 68.1867 287.082 67.832 288.081 67.832C289.322 67.832 290.265 68.3453 290.909 69.372V68ZM286.191 73.474C286.723 74.006 287.376 74.272 288.151 74.272C288.926 74.272 289.579 74.006 290.111 73.474C290.643 72.9327 290.909 72.2747 290.909 71.5C290.909 70.7253 290.643 70.072 290.111 69.54C289.579 68.9987 288.926 68.728 288.151 68.728C287.376 68.728 286.723 68.9987 286.191 69.54C285.659 70.072 285.393 70.7253 285.393 71.5C285.393 72.2747 285.659 72.9327 286.191 73.474ZM302.889 68V75H301.965V68.896H297.933V75H297.009V68H302.889ZM307.937 67.832C308.973 67.832 309.809 68.2007 310.443 68.938C311.087 69.666 311.409 70.5293 311.409 71.528C311.409 71.6307 311.4 71.7753 311.381 71.962H305.235C305.329 72.6713 305.627 73.236 306.131 73.656C306.645 74.0667 307.275 74.272 308.021 74.272C308.553 74.272 309.011 74.1647 309.393 73.95C309.785 73.726 310.079 73.4367 310.275 73.082L311.087 73.558C310.779 74.0527 310.359 74.4447 309.827 74.734C309.295 75.0233 308.689 75.168 308.007 75.168C306.906 75.168 306.01 74.8227 305.319 74.132C304.629 73.4413 304.283 72.564 304.283 71.5C304.283 70.4547 304.624 69.582 305.305 68.882C305.987 68.182 306.864 67.832 307.937 67.832ZM307.937 68.728C307.209 68.728 306.598 68.9473 306.103 69.386C305.618 69.8153 305.329 70.3753 305.235 71.066H310.457C310.364 70.3287 310.079 69.7547 309.603 69.344C309.127 68.9333 308.572 68.728 307.937 68.728ZM316.491 67.832C317.49 67.832 318.339 68.1867 319.039 68.896C319.749 69.6053 320.103 70.4733 320.103 71.5C320.103 72.5267 319.749 73.3947 319.039 74.104C318.339 74.8133 317.49 75.168 316.491 75.168C315.25 75.168 314.307 74.6547 313.663 73.628V77.8H312.739V68H313.663V69.372C314.307 68.3453 315.25 67.832 316.491 67.832ZM314.461 73.474C314.993 74.006 315.647 74.272 316.421 74.272C317.196 74.272 317.849 74.006 318.381 73.474C318.913 72.9327 319.179 72.2747 319.179 71.5C319.179 70.7253 318.913 70.072 318.381 69.54C317.849 68.9987 317.196 68.728 316.421 68.728C315.647 68.728 314.993 68.9987 314.461 69.54C313.929 70.072 313.663 70.7253 313.663 71.5C313.663 72.2747 313.929 72.9327 314.461 73.474ZM325.952 71.402C326.717 71.682 327.1 72.228 327.1 73.04C327.1 73.6093 326.908 74.0807 326.526 74.454C326.152 74.818 325.611 75 324.902 75H321.5V68H324.622C325.303 68 325.83 68.1773 326.204 68.532C326.577 68.8773 326.764 69.3253 326.764 69.876C326.764 70.576 326.493 71.0847 325.952 71.402ZM324.622 68.896H322.424V71.024H324.622C325.434 71.024 325.84 70.66 325.84 69.932C325.84 69.6053 325.732 69.3533 325.518 69.176C325.312 68.9893 325.014 68.896 324.622 68.896ZM324.902 74.104C325.312 74.104 325.625 74.006 325.84 73.81C326.064 73.614 326.176 73.3387 326.176 72.984C326.176 72.6573 326.064 72.4007 325.84 72.214C325.625 72.018 325.312 71.92 324.902 71.92H322.424V74.104H324.902ZM334.226 74.118C333.516 74.818 332.648 75.168 331.622 75.168C330.595 75.168 329.722 74.818 329.004 74.118C328.294 73.4087 327.94 72.536 327.94 71.5C327.94 70.464 328.294 69.596 329.004 68.896C329.722 68.1867 330.595 67.832 331.622 67.832C332.648 67.832 333.516 68.1867 334.226 68.896C334.944 69.596 335.304 70.464 335.304 71.5C335.304 72.536 334.944 73.4087 334.226 74.118ZM329.662 73.474C330.194 74.006 330.847 74.272 331.622 74.272C332.396 74.272 333.05 74.006 333.582 73.474C334.114 72.9327 334.38 72.2747 334.38 71.5C334.38 70.7253 334.114 70.072 333.582 69.54C333.05 68.9987 332.396 68.728 331.622 68.728C330.847 68.728 330.194 68.9987 329.662 69.54C329.13 70.072 328.864 70.7253 328.864 71.5C328.864 72.2747 329.13 72.9327 329.662 73.474ZM339.944 67.832C340.98 67.832 341.815 68.2007 342.45 68.938C343.094 69.666 343.416 70.5293 343.416 71.528C343.416 71.6307 343.407 71.7753 343.388 71.962H337.242C337.335 72.6713 337.634 73.236 338.138 73.656C338.651 74.0667 339.281 74.272 340.028 74.272C340.56 74.272 341.017 74.1647 341.4 73.95C341.792 73.726 342.086 73.4367 342.282 73.082L343.094 73.558C342.786 74.0527 342.366 74.4447 341.834 74.734C341.302 75.0233 340.695 75.168 340.014 75.168C338.913 75.168 338.017 74.8227 337.326 74.132C336.635 73.4413 336.29 72.564 336.29 71.5C336.29 70.4547 336.631 69.582 337.312 68.882C337.993 68.182 338.871 67.832 339.944 67.832ZM339.944 68.728C339.216 68.728 338.605 68.9473 338.11 69.386C337.625 69.8153 337.335 70.3753 337.242 71.066H342.464C342.371 70.3287 342.086 69.7547 341.61 69.344C341.134 68.9333 340.579 68.728 339.944 68.728ZM354.966 68V75H354.042V69.414L351.592 73.39H351.48L349.03 69.414V75H348.106V68H349.17L351.536 71.836L353.902 68H354.966ZM360.018 67.832C361.054 67.832 361.889 68.2007 362.524 68.938C363.168 69.666 363.49 70.5293 363.49 71.528C363.49 71.6307 363.481 71.7753 363.462 71.962H357.316C357.409 72.6713 357.708 73.236 358.212 73.656C358.725 74.0667 359.355 74.272 360.102 74.272C360.634 74.272 361.091 74.1647 361.474 73.95C361.866 73.726 362.16 73.4367 362.356 73.082L363.168 73.558C362.86 74.0527 362.44 74.4447 361.908 74.734C361.376 75.0233 360.769 75.168 360.088 75.168C358.987 75.168 358.091 74.8227 357.4 74.132C356.709 73.4413 356.364 72.564 356.364 71.5C356.364 70.4547 356.705 69.582 357.386 68.882C358.067 68.182 358.945 67.832 360.018 67.832ZM360.018 68.728C359.29 68.728 358.679 68.9473 358.184 69.386C357.699 69.8153 357.409 70.3753 357.316 71.066H362.538C362.445 70.3287 362.16 69.7547 361.684 69.344C361.208 68.9333 360.653 68.728 360.018 68.728ZM368.082 75.168C367.027 75.168 366.15 74.818 365.45 74.118C364.75 73.4087 364.4 72.536 364.4 71.5C364.4 70.464 364.75 69.596 365.45 68.896C366.15 68.1867 367.027 67.832 368.082 67.832C368.772 67.832 369.393 68 369.944 68.336C370.494 68.6627 370.896 69.106 371.148 69.666L370.392 70.1C370.205 69.68 369.902 69.3487 369.482 69.106C369.071 68.854 368.604 68.728 368.082 68.728C367.307 68.728 366.654 68.9987 366.122 69.54C365.59 70.072 365.324 70.7253 365.324 71.5C365.324 72.2747 365.59 72.9327 366.122 73.474C366.654 74.006 367.307 74.272 368.082 74.272C368.604 74.272 369.071 74.1507 369.482 73.908C369.892 73.656 370.214 73.32 370.448 72.9L371.218 73.348C370.928 73.908 370.504 74.3513 369.944 74.678C369.384 75.0047 368.763 75.168 368.082 75.168ZM377.308 68V68.896H374.83V75H373.906V68.896H371.428V68H377.308ZM383.886 74.118C383.177 74.818 382.309 75.168 381.282 75.168C380.256 75.168 379.383 74.818 378.664 74.118C377.955 73.4087 377.6 72.536 377.6 71.5C377.6 70.464 377.955 69.596 378.664 68.896C379.383 68.1867 380.256 67.832 381.282 67.832C382.309 67.832 383.177 68.1867 383.886 68.896C384.605 69.596 384.964 70.464 384.964 71.5C384.964 72.536 384.605 73.4087 383.886 74.118ZM379.322 73.474C379.854 74.006 380.508 74.272 381.282 74.272C382.057 74.272 382.71 74.006 383.242 73.474C383.774 72.9327 384.04 72.2747 384.04 71.5C384.04 70.7253 383.774 70.072 383.242 69.54C382.71 68.9987 382.057 68.728 381.282 68.728C380.508 68.728 379.854 68.9987 379.322 69.54C378.79 70.072 378.524 70.7253 378.524 71.5C378.524 72.2747 378.79 72.9327 379.322 73.474ZM386.986 74.916C386.837 75.0653 386.655 75.14 386.44 75.14C386.225 75.14 386.043 75.0653 385.894 74.916C385.745 74.7667 385.67 74.5847 385.67 74.37C385.67 74.1553 385.745 73.9733 385.894 73.824C386.043 73.6747 386.225 73.6 386.44 73.6C386.655 73.6 386.837 73.6747 386.986 73.824C387.135 73.9733 387.21 74.1553 387.21 74.37C387.21 74.5847 387.135 74.7667 386.986 74.916ZM9.226 94.698C8.246 95.678 7.04667 96.168 5.628 96.168C4.20933 96.168 3.01 95.678 2.03 94.698C1.05 93.7087 0.56 92.5093 0.56 91.1C0.56 89.6907 1.05 88.496 2.03 87.516C3.01 86.5267 4.20933 86.032 5.628 86.032C7.04667 86.032 8.246 86.5267 9.226 87.516C10.206 88.496 10.696 89.6907 10.696 91.1C10.696 92.5093 10.206 93.7087 9.226 94.698ZM2.716 94.026C3.5 94.8193 4.47067 95.216 5.628 95.216C6.78533 95.216 7.756 94.8193 8.54 94.026C9.324 93.2233 9.716 92.248 9.716 91.1C9.716 89.952 9.324 88.9813 8.54 88.188C7.756 87.3853 6.78533 86.984 5.628 86.984C4.47067 86.984 3.5 87.3853 2.716 88.188C1.932 88.9813 1.54 89.952 1.54 91.1C1.54 92.248 1.932 93.2233 2.716 94.026ZM17.6985 95.104H18.6785V97.876H17.7545V96H12.0425V97.876H11.1185V95.104H11.9725C12.4485 94.4787 12.6865 93.5967 12.6865 92.458V89H17.6985V95.104ZM13.0925 95.104H16.7745V89.896H13.6105V92.458C13.6105 93.5313 13.4378 94.4133 13.0925 95.104ZM24.8923 89H25.8163V96H24.8923V92.948H20.8603V96H19.9363V89H20.8603V92.052H24.8923V89ZM33.4963 95.118C32.787 95.818 31.919 96.168 30.8923 96.168C29.8656 96.168 28.993 95.818 28.2743 95.118C27.565 94.4087 27.2103 93.536 27.2103 92.5C27.2103 91.464 27.565 90.596 28.2743 89.896C28.993 89.1867 29.8656 88.832 30.8923 88.832C31.919 88.832 32.787 89.1867 33.4963 89.896C34.215 90.596 34.5743 91.464 34.5743 92.5C34.5743 93.536 34.215 94.4087 33.4963 95.118ZM28.9323 94.474C29.4643 95.006 30.1176 95.272 30.8923 95.272C31.667 95.272 32.3203 95.006 32.8523 94.474C33.3843 93.9327 33.6503 93.2747 33.6503 92.5C33.6503 91.7253 33.3843 91.072 32.8523 90.54C32.3203 89.9987 31.667 89.728 30.8923 89.728C30.1176 89.728 29.4643 89.9987 28.9323 90.54C28.4003 91.072 28.1343 91.7253 28.1343 92.5C28.1343 93.2747 28.4003 93.9327 28.9323 94.474ZM40.4605 89V89.896H36.9045V96H35.9805V89H40.4605ZM47.0386 95.118C46.3292 95.818 45.4612 96.168 44.4346 96.168C43.4079 96.168 42.5352 95.818 41.8166 95.118C41.1072 94.4087 40.7526 93.536 40.7526 92.5C40.7526 91.464 41.1072 90.596 41.8166 89.896C42.5352 89.1867 43.4079 88.832 44.4346 88.832C45.4612 88.832 46.3292 89.1867 47.0386 89.896C47.7572 90.596 48.1166 91.464 48.1166 92.5C48.1166 93.536 47.7572 94.4087 47.0386 95.118ZM42.4746 94.474C43.0066 95.006 43.6599 95.272 44.4346 95.272C45.2092 95.272 45.8626 95.006 46.3946 94.474C46.9266 93.9327 47.1926 93.2747 47.1926 92.5C47.1926 91.7253 46.9266 91.072 46.3946 90.54C45.8626 89.9987 45.2092 89.728 44.4346 89.728C43.6599 89.728 43.0066 89.9987 42.4746 90.54C41.9426 91.072 41.6766 91.7253 41.6766 92.5C41.6766 93.2747 41.9426 93.9327 42.4746 94.474ZM58.7628 89V96H57.8388V89.896H53.8068V96H52.8828V89H58.7628ZM64.3288 88.832C65.3275 88.832 66.1768 89.1867 66.8768 89.896C67.5861 90.6053 67.9408 91.4733 67.9408 92.5C67.9408 93.5267 67.5861 94.3947 66.8768 95.104C66.1768 95.8133 65.3275 96.168 64.3288 96.168C63.0875 96.168 62.1448 95.6547 61.5008 94.628V98.8H60.5768V89H61.5008V90.372C62.1448 89.3453 63.0875 88.832 64.3288 88.832ZM62.2988 94.474C62.8308 95.006 63.4841 95.272 64.2588 95.272C65.0335 95.272 65.6868 95.006 66.2188 94.474C66.7508 93.9327 67.0168 93.2747 67.0168 92.5C67.0168 91.7253 66.7508 91.072 66.2188 90.54C65.6868 89.9987 65.0335 89.728 64.2588 89.728C63.4841 89.728 62.8308 89.9987 62.2988 90.54C61.7668 91.072 61.5008 91.7253 61.5008 92.5C61.5008 93.2747 61.7668 93.9327 62.2988 94.474ZM74.4332 89H75.2172V96H74.2932V90.61L70.1212 96H69.3372V89H70.2612V94.39L74.4332 89ZM82.6872 96H81.4552L77.9552 92.626V96H77.0312V89H77.9552V92.094L81.2872 89H82.5472L78.9352 92.36L82.6872 96ZM88.9779 95.118C88.2685 95.818 87.4005 96.168 86.3739 96.168C85.3472 96.168 84.4745 95.818 83.7559 95.118C83.0465 94.4087 82.6919 93.536 82.6919 92.5C82.6919 91.464 83.0465 90.596 83.7559 89.896C84.4745 89.1867 85.3472 88.832 86.3739 88.832C87.4005 88.832 88.2685 89.1867 88.9779 89.896C89.6965 90.596 90.0559 91.464 90.0559 92.5C90.0559 93.536 89.6965 94.4087 88.9779 95.118ZM84.4139 94.474C84.9459 95.006 85.5992 95.272 86.3739 95.272C87.1485 95.272 87.8019 95.006 88.3339 94.474C88.8659 93.9327 89.1319 93.2747 89.1319 92.5C89.1319 91.7253 88.8659 91.072 88.3339 90.54C87.8019 89.9987 87.1485 89.728 86.3739 89.728C85.5992 89.728 84.9459 89.9987 84.4139 90.54C83.8819 91.072 83.6159 91.7253 83.6159 92.5C83.6159 93.2747 83.8819 93.9327 84.4139 94.474ZM94.7241 96.168C93.6694 96.168 92.7921 95.818 92.0921 95.118C91.3921 94.4087 91.0421 93.536 91.0421 92.5C91.0421 91.464 91.3921 90.596 92.0921 89.896C92.7921 89.1867 93.6694 88.832 94.7241 88.832C95.4148 88.832 96.0354 89 96.5861 89.336C97.1368 89.6627 97.5381 90.106 97.7901 90.666L97.0341 91.1C96.8474 90.68 96.5441 90.3487 96.1241 90.106C95.7134 89.854 95.2468 89.728 94.7241 89.728C93.9494 89.728 93.2961 89.9987 92.7641 90.54C92.2321 91.072 91.9661 91.7253 91.9661 92.5C91.9661 93.2747 92.2321 93.9327 92.7641 94.474C93.2961 95.006 93.9494 95.272 94.7241 95.272C95.2468 95.272 95.7134 95.1507 96.1241 94.908C96.5348 94.656 96.8568 94.32 97.0901 93.9L97.8601 94.348C97.5708 94.908 97.1461 95.3513 96.5861 95.678C96.0261 96.0047 95.4054 96.168 94.7241 96.168ZM104.003 89H104.927V96H104.003V92.948H99.9707V96H99.0467V89H99.9707V92.052H104.003V89ZM112.607 95.118C111.897 95.818 111.029 96.168 110.003 96.168C108.976 96.168 108.103 95.818 107.385 95.118C106.675 94.4087 106.321 93.536 106.321 92.5C106.321 91.464 106.675 90.596 107.385 89.896C108.103 89.1867 108.976 88.832 110.003 88.832C111.029 88.832 111.897 89.1867 112.607 89.896C113.325 90.596 113.685 91.464 113.685 92.5C113.685 93.536 113.325 94.4087 112.607 95.118ZM108.043 94.474C108.575 95.006 109.228 95.272 110.003 95.272C110.777 95.272 111.431 95.006 111.963 94.474C112.495 93.9327 112.761 93.2747 112.761 92.5C112.761 91.7253 112.495 91.072 111.963 90.54C111.431 89.9987 110.777 89.728 110.003 89.728C109.228 89.728 108.575 89.9987 108.043 90.54C107.511 91.072 107.245 91.7253 107.245 92.5C107.245 93.2747 107.511 93.9327 108.043 94.474ZM119.543 92.402C120.308 92.682 120.691 93.228 120.691 94.04C120.691 94.6093 120.5 95.0807 120.117 95.454C119.744 95.818 119.202 96 118.493 96H115.091V89H118.213C118.894 89 119.422 89.1773 119.795 89.532C120.168 89.8773 120.355 90.3253 120.355 90.876C120.355 91.576 120.084 92.0847 119.543 92.402ZM118.213 89.896H116.015V92.024H118.213C119.025 92.024 119.431 91.66 119.431 90.932C119.431 90.6053 119.324 90.3533 119.109 90.176C118.904 89.9893 118.605 89.896 118.213 89.896ZM118.493 95.104C118.904 95.104 119.216 95.006 119.431 94.81C119.655 94.614 119.767 94.3387 119.767 93.984C119.767 93.6573 119.655 93.4007 119.431 93.214C119.216 93.018 118.904 92.92 118.493 92.92H116.015V95.104H118.493ZM125.185 88.832C126.221 88.832 127.056 89.2007 127.691 89.938C128.335 90.666 128.657 91.5293 128.657 92.528C128.657 92.6307 128.648 92.7753 128.629 92.962H122.483C122.576 93.6713 122.875 94.236 123.379 94.656C123.892 95.0667 124.522 95.272 125.269 95.272C125.801 95.272 126.258 95.1647 126.641 94.95C127.033 94.726 127.327 94.4367 127.523 94.082L128.335 94.558C128.027 95.0527 127.607 95.4447 127.075 95.734C126.543 96.0233 125.936 96.168 125.255 96.168C124.154 96.168 123.258 95.8227 122.567 95.132C121.876 94.4413 121.531 93.564 121.531 92.5C121.531 91.4547 121.872 90.582 122.553 89.882C123.234 89.182 124.112 88.832 125.185 88.832ZM125.185 89.728C124.457 89.728 123.846 89.9473 123.351 90.386C122.866 90.8153 122.576 91.3753 122.483 92.066H127.705C127.612 91.3287 127.327 90.7547 126.851 90.344C126.375 89.9333 125.82 89.728 125.185 89.728ZM134.943 89H135.867V96H134.943V92.948H130.911V96H129.987V89H130.911V92.052H134.943V89ZM142.777 89H143.561V96H142.637V90.61L138.465 96H137.681V89H138.605V94.39L142.777 89ZM150.415 89V96H149.491V93.312H148.287L146.131 96H144.955L147.167 93.284C146.607 93.2 146.145 92.9667 145.781 92.584C145.417 92.2013 145.235 91.73 145.235 91.17C145.235 90.5353 145.459 90.0173 145.907 89.616C146.364 89.2053 146.919 89 147.573 89H150.415ZM147.573 92.444H149.491V89.896H147.573C147.181 89.896 146.845 90.0127 146.565 90.246C146.294 90.4793 146.159 90.7873 146.159 91.17C146.159 91.5527 146.294 91.8607 146.565 92.094C146.845 92.3273 147.181 92.444 147.573 92.444ZM161.475 95.104H162.455V97.876H161.531V96H155.819V97.876H154.895V95.104H155.749C156.225 94.4787 156.463 93.5967 156.463 92.458V89H161.475V95.104ZM156.869 95.104H160.551V89.896H157.387V92.458C157.387 93.5313 157.214 94.4133 156.869 95.104ZM169.305 95.118C168.596 95.818 167.728 96.168 166.701 96.168C165.674 96.168 164.802 95.818 164.083 95.118C163.374 94.4087 163.019 93.536 163.019 92.5C163.019 91.464 163.374 90.596 164.083 89.896C164.802 89.1867 165.674 88.832 166.701 88.832C167.728 88.832 168.596 89.1867 169.305 89.896C170.024 90.596 170.383 91.464 170.383 92.5C170.383 93.536 170.024 94.4087 169.305 95.118ZM164.741 94.474C165.273 95.006 165.926 95.272 166.701 95.272C167.476 95.272 168.129 95.006 168.661 94.474C169.193 93.9327 169.459 93.2747 169.459 92.5C169.459 91.7253 169.193 91.072 168.661 90.54C168.129 89.9987 167.476 89.728 166.701 89.728C165.926 89.728 165.273 89.9987 164.741 90.54C164.209 91.072 163.943 91.7253 163.943 92.5C163.943 93.2747 164.209 93.9327 164.741 94.474ZM175.051 96.168C173.997 96.168 173.119 95.818 172.419 95.118C171.719 94.4087 171.369 93.536 171.369 92.5C171.369 91.464 171.719 90.596 172.419 89.896C173.119 89.1867 173.997 88.832 175.051 88.832C175.742 88.832 176.363 89 176.913 89.336C177.464 89.6627 177.865 90.106 178.117 90.666L177.361 91.1C177.175 90.68 176.871 90.3487 176.451 90.106C176.041 89.854 175.574 89.728 175.051 89.728C174.277 89.728 173.623 89.9987 173.091 90.54C172.559 91.072 172.293 91.7253 172.293 92.5C172.293 93.2747 172.559 93.9327 173.091 94.474C173.623 95.006 174.277 95.272 175.051 95.272C175.574 95.272 176.041 95.1507 176.451 94.908C176.862 94.656 177.184 94.32 177.417 93.9L178.187 94.348C177.898 94.908 177.473 95.3513 176.913 95.678C176.353 96.0047 175.733 96.168 175.051 96.168ZM184.277 89V89.896H181.799V96H180.875V89.896H178.397V89H184.277ZM191.01 89H191.934V96H191.01V94.628C190.366 95.6547 189.423 96.168 188.182 96.168C187.183 96.168 186.329 95.8133 185.62 95.104C184.92 94.3947 184.57 93.5267 184.57 92.5C184.57 91.4733 184.92 90.6053 185.62 89.896C186.329 89.1867 187.183 88.832 188.182 88.832C189.423 88.832 190.366 89.3453 191.01 90.372V89ZM186.292 94.474C186.824 95.006 187.477 95.272 188.252 95.272C189.026 95.272 189.68 95.006 190.212 94.474C190.744 93.9327 191.01 93.2747 191.01 92.5C191.01 91.7253 190.744 91.072 190.212 90.54C189.68 89.9987 189.026 89.728 188.252 89.728C187.477 89.728 186.824 89.9987 186.292 90.54C185.76 91.072 185.494 91.7253 185.494 92.5C185.494 93.2747 185.76 93.9327 186.292 94.474ZM198.79 89V89.896H196.312V96H195.388V89.896H192.91V89H198.79ZM205.369 95.118C204.659 95.818 203.791 96.168 202.765 96.168C201.738 96.168 200.865 95.818 200.147 95.118C199.437 94.4087 199.083 93.536 199.083 92.5C199.083 91.464 199.437 90.596 200.147 89.896C200.865 89.1867 201.738 88.832 202.765 88.832C203.791 88.832 204.659 89.1867 205.369 89.896C206.087 90.596 206.447 91.464 206.447 92.5C206.447 93.536 206.087 94.4087 205.369 95.118ZM200.805 94.474C201.337 95.006 201.99 95.272 202.765 95.272C203.539 95.272 204.193 95.006 204.725 94.474C205.257 93.9327 205.523 93.2747 205.523 92.5C205.523 91.7253 205.257 91.072 204.725 90.54C204.193 89.9987 203.539 89.728 202.765 89.728C201.99 89.728 201.337 89.9987 200.805 90.54C200.273 91.072 200.007 91.7253 200.007 92.5C200.007 93.2747 200.273 93.9327 200.805 94.474ZM212.252 89H213.176V96H212.252V93.34C211.711 93.62 211.044 93.76 210.25 93.76C209.336 93.76 208.636 93.55 208.15 93.13C207.674 92.7007 207.436 92.0707 207.436 91.24V89H208.36V91.24C208.36 91.828 208.514 92.2527 208.822 92.514C209.13 92.766 209.597 92.892 210.222 92.892C210.95 92.892 211.627 92.7567 212.252 92.486V89ZM219.956 89H220.88V96H219.956V92.948H215.924V96H215V89H215.924V92.052H219.956V89ZM228.56 95.118C227.851 95.818 226.983 96.168 225.956 96.168C224.929 96.168 224.057 95.818 223.338 95.118C222.629 94.4087 222.274 93.536 222.274 92.5C222.274 91.464 222.629 90.596 223.338 89.896C224.057 89.1867 224.929 88.832 225.956 88.832C226.983 88.832 227.851 89.1867 228.56 89.896C229.279 90.596 229.638 91.464 229.638 92.5C229.638 93.536 229.279 94.4087 228.56 95.118ZM223.996 94.474C224.528 95.006 225.181 95.272 225.956 95.272C226.731 95.272 227.384 95.006 227.916 94.474C228.448 93.9327 228.714 93.2747 228.714 92.5C228.714 91.7253 228.448 91.072 227.916 90.54C227.384 89.9987 226.731 89.728 225.956 89.728C225.181 89.728 224.528 89.9987 223.996 90.54C223.464 91.072 223.198 91.7253 223.198 92.5C223.198 93.2747 223.464 93.9327 223.996 94.474ZM232.024 94.81L231.184 97.96H230.344L230.904 94.81H232.024ZM241.603 89H242.527V96H241.603V93.34C241.062 93.62 240.394 93.76 239.601 93.76C238.686 93.76 237.986 93.55 237.501 93.13C237.025 92.7007 236.787 92.0707 236.787 91.24V89H237.711V91.24C237.711 91.828 237.865 92.2527 238.173 92.514C238.481 92.766 238.948 92.892 239.573 92.892C240.301 92.892 240.978 92.7567 241.603 92.486V89ZM249.391 89V89.896H246.913V96H245.989V89.896H243.511V89H249.391ZM255.969 95.118C255.26 95.818 254.392 96.168 253.365 96.168C252.339 96.168 251.466 95.818 250.747 95.118C250.038 94.4087 249.683 93.536 249.683 92.5C249.683 91.464 250.038 90.596 250.747 89.896C251.466 89.1867 252.339 88.832 253.365 88.832C254.392 88.832 255.26 89.1867 255.969 89.896C256.688 90.596 257.047 91.464 257.047 92.5C257.047 93.536 256.688 94.4087 255.969 95.118ZM251.405 94.474C251.937 95.006 252.591 95.272 253.365 95.272C254.14 95.272 254.793 95.006 255.325 94.474C255.857 93.9327 256.123 93.2747 256.123 92.5C256.123 91.7253 255.857 91.072 255.325 90.54C254.793 89.9987 254.14 89.728 253.365 89.728C252.591 89.728 251.937 89.9987 251.405 90.54C250.873 91.072 250.607 91.7253 250.607 92.5C250.607 93.2747 250.873 93.9327 251.405 94.474ZM261.562 96.168C260.554 96.168 259.714 95.8367 259.042 95.174C258.37 94.502 258.034 93.634 258.034 92.57C258.034 91.3753 258.211 90.4607 258.566 89.826C258.92 89.182 259.639 88.5987 260.722 88.076C260.927 87.9733 261.198 87.852 261.534 87.712C261.879 87.572 262.136 87.46 262.304 87.376C262.481 87.292 262.672 87.1847 262.878 87.054C263.083 86.914 263.237 86.76 263.34 86.592C263.442 86.424 263.508 86.2233 263.536 85.99L264.264 86.41C264.226 86.634 264.152 86.844 264.04 87.04C263.928 87.236 263.811 87.3947 263.69 87.516C263.578 87.6373 263.396 87.7727 263.144 87.922C262.901 88.062 262.71 88.1647 262.57 88.23C262.439 88.286 262.206 88.384 261.87 88.524C261.543 88.664 261.324 88.7573 261.212 88.804C260.558 89.084 260.078 89.378 259.77 89.686C259.462 89.9847 259.242 90.3767 259.112 90.862C259.429 90.442 259.83 90.134 260.316 89.938C260.81 89.7327 261.291 89.63 261.758 89.63C262.691 89.63 263.461 89.938 264.068 90.554C264.684 91.1607 264.992 91.94 264.992 92.892C264.992 93.8347 264.665 94.6187 264.012 95.244C263.368 95.86 262.551 96.168 261.562 96.168ZM261.562 95.244C262.29 95.244 262.887 95.0247 263.354 94.586C263.83 94.138 264.068 93.5733 264.068 92.892C264.068 92.2013 263.844 91.6367 263.396 91.198C262.957 90.75 262.369 90.526 261.632 90.526C260.969 90.526 260.367 90.736 259.826 91.156C259.284 91.5667 259.014 92.1173 259.014 92.808C259.014 93.5173 259.256 94.1007 259.742 94.558C260.236 95.0153 260.843 95.244 261.562 95.244ZM269.099 91.66C269.752 91.66 270.303 91.8653 270.751 92.276C271.208 92.6773 271.437 93.1953 271.437 93.83C271.437 94.4647 271.208 94.9873 270.751 95.398C270.303 95.7993 269.752 96 269.099 96H266.257V89H267.181V91.66H269.099ZM272.417 89H273.341V96H272.417V89ZM269.099 95.104C269.491 95.104 269.822 94.9873 270.093 94.754C270.373 94.5207 270.513 94.2127 270.513 93.83C270.513 93.4473 270.373 93.1393 270.093 92.906C269.822 92.6727 269.491 92.556 269.099 92.556H267.181V95.104H269.099ZM282.14 92.402C282.952 92.71 283.358 93.27 283.358 94.082C283.358 94.6607 283.129 95.1553 282.672 95.566C282.224 95.9673 281.58 96.168 280.74 96.168C279.33 96.168 278.406 95.608 277.968 94.488L278.752 94.026C279.041 94.8567 279.704 95.272 280.74 95.272C281.281 95.272 281.696 95.1553 281.986 94.922C282.284 94.6887 282.434 94.39 282.434 94.026C282.434 93.6993 282.312 93.4333 282.07 93.228C281.827 93.0227 281.5 92.92 281.09 92.92H280.068V92.024H280.81C281.211 92.024 281.524 91.926 281.748 91.73C281.981 91.5247 282.098 91.2447 282.098 90.89C282.098 90.554 281.962 90.2787 281.692 90.064C281.421 89.84 281.057 89.728 280.6 89.728C279.722 89.728 279.139 90.078 278.85 90.778L278.08 90.33C278.546 89.3313 279.386 88.832 280.6 88.832C281.337 88.832 281.925 89.028 282.364 89.42C282.802 89.8027 283.022 90.274 283.022 90.834C283.022 91.5527 282.728 92.0753 282.14 92.402ZM290.642 89H291.566V96H290.642V94.628C289.998 95.6547 289.056 96.168 287.814 96.168C286.816 96.168 285.962 95.8133 285.252 95.104C284.552 94.3947 284.202 93.5267 284.202 92.5C284.202 91.4733 284.552 90.6053 285.252 89.896C285.962 89.1867 286.816 88.832 287.814 88.832C289.056 88.832 289.998 89.3453 290.642 90.372V89ZM285.924 94.474C286.456 95.006 287.11 95.272 287.884 95.272C288.659 95.272 289.312 95.006 289.844 94.474C290.376 93.9327 290.642 93.2747 290.642 92.5C290.642 91.7253 290.376 91.072 289.844 90.54C289.312 89.9987 288.659 89.728 287.884 89.728C287.11 89.728 286.456 89.9987 285.924 90.54C285.392 91.072 285.126 91.7253 285.126 92.5C285.126 93.2747 285.392 93.9327 285.924 94.474ZM299.263 89V96H298.339V89.896H294.307V96H293.383V89H299.263ZM306.117 89H307.097L304.101 96.644C303.83 97.3347 303.443 97.876 302.939 98.268C302.444 98.6693 301.889 98.8467 301.273 98.8V97.932C302.113 98.0253 302.752 97.54 303.191 96.476L303.373 96.042L300.237 89H301.217L303.849 94.866L306.117 89ZM311.062 96.168C310.007 96.168 309.13 95.818 308.43 95.118C307.73 94.4087 307.38 93.536 307.38 92.5C307.38 91.464 307.73 90.596 308.43 89.896C309.13 89.1867 310.007 88.832 311.062 88.832C311.753 88.832 312.373 89 312.924 89.336C313.475 89.6627 313.876 90.106 314.128 90.666L313.372 91.1C313.185 90.68 312.882 90.3487 312.462 90.106C312.051 89.854 311.585 89.728 311.062 89.728C310.287 89.728 309.634 89.9987 309.102 90.54C308.57 91.072 308.304 91.7253 308.304 92.5C308.304 93.2747 308.57 93.9327 309.102 94.474C309.634 95.006 310.287 95.272 311.062 95.272C311.585 95.272 312.051 95.1507 312.462 94.908C312.873 94.656 313.195 94.32 313.428 93.9L314.198 94.348C313.909 94.908 313.484 95.3513 312.924 95.678C312.364 96.0047 311.743 96.168 311.062 96.168ZM320.288 89V89.896H317.81V96H316.886V89.896H314.408V89H320.288ZM326.37 89H327.154V96H326.23V90.61L322.058 96H321.274V89H322.198V94.39L326.37 89ZM334.008 89V89.896H331.53V96H330.606V89.896H328.128V89H334.008ZM337.836 91.66C338.489 91.66 339.04 91.8653 339.488 92.276C339.945 92.6773 340.174 93.1953 340.174 93.83C340.174 94.4647 339.945 94.9873 339.488 95.398C339.04 95.7993 338.489 96 337.836 96H334.994V89H335.918V91.66H337.836ZM337.836 95.104C338.228 95.104 338.559 94.9873 338.83 94.754C339.11 94.5207 339.25 94.2127 339.25 93.83C339.25 93.4473 339.11 93.1393 338.83 92.906C338.559 92.6727 338.228 92.556 337.836 92.556H335.918V95.104H337.836ZM348.052 96.168C346.997 96.168 346.12 95.818 345.42 95.118C344.72 94.4087 344.37 93.536 344.37 92.5C344.37 91.464 344.72 90.596 345.42 89.896C346.12 89.1867 346.997 88.832 348.052 88.832C348.743 88.832 349.363 89 349.914 89.336C350.465 89.6627 350.866 90.106 351.118 90.666L350.362 91.1C350.175 90.68 349.872 90.3487 349.452 90.106C349.041 89.854 348.575 89.728 348.052 89.728C347.277 89.728 346.624 89.9987 346.092 90.54C345.56 91.072 345.294 91.7253 345.294 92.5C345.294 93.2747 345.56 93.9327 346.092 94.474C346.624 95.006 347.277 95.272 348.052 95.272C348.575 95.272 349.041 95.1507 349.452 94.908C349.863 94.656 350.185 94.32 350.418 93.9L351.188 94.348C350.899 94.908 350.474 95.3513 349.914 95.678C349.354 96.0047 348.733 96.168 348.052 96.168ZM358.326 89H359.25V96H358.326V94.628C357.682 95.6547 356.74 96.168 355.498 96.168C354.5 96.168 353.646 95.8133 352.936 95.104C352.236 94.3947 351.886 93.5267 351.886 92.5C351.886 91.4733 352.236 90.6053 352.936 89.896C353.646 89.1867 354.5 88.832 355.498 88.832C356.74 88.832 357.682 89.3453 358.326 90.372V89ZM353.608 94.474C354.14 95.006 354.794 95.272 355.568 95.272C356.343 95.272 356.996 95.006 357.528 94.474C358.06 93.9327 358.326 93.2747 358.326 92.5C358.326 91.7253 358.06 91.072 357.528 90.54C356.996 89.9987 356.343 89.728 355.568 89.728C354.794 89.728 354.14 89.9987 353.608 90.54C353.076 91.072 352.81 91.7253 352.81 92.5C352.81 93.2747 353.076 93.9327 353.608 94.474ZM367.927 89V96H367.003V90.414L364.553 94.39H364.441L361.991 90.414V96H361.067V89H362.131L364.497 92.836L366.863 89H367.927ZM375.611 95.118C374.902 95.818 374.034 96.168 373.007 96.168C371.98 96.168 371.108 95.818 370.389 95.118C369.68 94.4087 369.325 93.536 369.325 92.5C369.325 91.464 369.68 90.596 370.389 89.896C371.108 89.1867 371.98 88.832 373.007 88.832C374.034 88.832 374.902 89.1867 375.611 89.896C376.33 90.596 376.689 91.464 376.689 92.5C376.689 93.536 376.33 94.4087 375.611 95.118ZM371.047 94.474C371.579 95.006 372.232 95.272 373.007 95.272C373.782 95.272 374.435 95.006 374.967 94.474C375.499 93.9327 375.765 93.2747 375.765 92.5C375.765 91.7253 375.499 91.072 374.967 90.54C374.435 89.9987 373.782 89.728 373.007 89.728C372.232 89.728 371.579 89.9987 371.047 90.54C370.515 91.072 370.249 91.7253 370.249 92.5C370.249 93.2747 370.515 93.9327 371.047 94.474ZM383.751 96H382.519L379.019 92.626V96H378.095V89H379.019V92.094L382.351 89H383.611L379.999 92.36L383.751 96ZM390.196 89H391.12V96H390.196V94.628C389.552 95.6547 388.609 96.168 387.368 96.168C386.369 96.168 385.515 95.8133 384.806 95.104C384.106 94.3947 383.756 93.5267 383.756 92.5C383.756 91.4733 384.106 90.6053 384.806 89.896C385.515 89.1867 386.369 88.832 387.368 88.832C388.609 88.832 389.552 89.3453 390.196 90.372V89ZM385.478 94.474C386.01 95.006 386.663 95.272 387.438 95.272C388.213 95.272 388.866 95.006 389.398 94.474C389.93 93.9327 390.196 93.2747 390.196 92.5C390.196 91.7253 389.93 91.072 389.398 90.54C388.866 89.9987 388.213 89.728 387.438 89.728C386.663 89.728 386.01 89.9987 385.478 90.54C384.946 91.072 384.68 91.7253 384.68 92.5C384.68 93.2747 384.946 93.9327 385.478 94.474ZM397.976 89V89.896H395.498V96H394.574V89.896H392.096V89H397.976ZM399.154 95.916C399.005 96.0653 398.823 96.14 398.608 96.14C398.393 96.14 398.211 96.0653 398.062 95.916C397.913 95.7667 397.838 95.5847 397.838 95.37C397.838 95.1553 397.913 94.9733 398.062 94.824C398.211 94.6747 398.393 94.6 398.608 94.6C398.823 94.6 399.005 94.6747 399.154 94.824C399.303 94.9733 399.378 95.1553 399.378 95.37C399.378 95.5847 399.303 95.7667 399.154 95.916Z" fill="#F1F1F1"/>
</svg>
